<svg width="24" height="24" viewBox="0 0 24 24" fill="none" xmlns="http://www.w3.org/2000/svg">
<g clip-path="url(#clip0_109_1137)">
<path d="M20.1371 24C19.7672 23.999 19.4011 23.9247 19.0601 23.7813C18.719 23.638 18.4097 23.4285 18.1501 23.165L12.0001 17.051L5.85012 23.169C5.45515 23.5697 4.94861 23.8422 4.39654 23.9508C3.84447 24.0594 3.27247 23.9992 2.75512 23.778C2.23264 23.5678 1.78567 23.205 1.47258 22.7369C1.15949 22.2688 0.994841 21.7171 1.00012 21.154V5C1.00012 3.67392 1.52691 2.40215 2.46459 1.46447C3.40227 0.526784 4.67404 0 6.00012 0L18.0001 0C18.6567 0 19.3069 0.129329 19.9135 0.380602C20.5202 0.631876 21.0714 1.00017 21.5357 1.46447C22 1.92876 22.3683 2.47996 22.6195 3.08658C22.8708 3.69321 23.0001 4.34339 23.0001 5V21.154C23.0057 21.7167 22.8417 22.268 22.5293 22.7361C22.217 23.2041 21.7709 23.5672 21.2491 23.778C20.8969 23.9253 20.5189 24.0008 20.1371 24Z" fill="#374957"/>
</g>
<defs>
<clipPath id="clip0_109_1137">
<rect width="24" height="24" fill="white"/>
</clipPath>
</defs>
</svg>
