<svg width="24" height="24" viewBox="0 0 24 24" fill="none" xmlns="http://www.w3.org/2000/svg">
<g clip-path="url(#clip0_74_8764)">
<path d="M21.835 2.16564C21.1488 1.4793 20.3342 0.934857 19.4376 0.563403C18.541 0.19195 17.58 0.000762939 16.6095 0.000762939C15.639 0.000762939 14.678 0.19195 13.7814 0.563403C12.8848 0.934857 12.0701 1.4793 11.384 2.16564L2.16496 11.3846C1.47569 12.0702 0.928456 12.885 0.554609 13.7824C0.180762 14.6798 -0.0123504 15.6421 -0.0136651 16.6143C-0.0149798 17.5864 0.175529 18.5493 0.546948 19.4477C0.918366 20.3461 1.46339 21.1624 2.15081 21.8498C2.83822 22.5372 3.65451 23.0822 4.55291 23.4537C5.45132 23.8251 6.41417 24.0156 7.38632 24.0143C8.35847 24.013 9.32081 23.8198 10.2182 23.446C11.1156 23.0721 11.9304 22.5249 12.616 21.8356L21.835 12.6166C22.5213 11.9305 23.0657 11.1158 23.4372 10.2192C23.8087 9.32263 23.9998 8.36164 23.9998 7.39114C23.9998 6.42064 23.8087 5.45964 23.4372 4.56304C23.0657 3.66644 22.5213 2.8518 21.835 2.16564ZM20.421 11.2006L11.2 20.4216C10.7034 20.9391 10.1086 21.3522 9.45031 21.6368C8.79206 21.9214 8.08363 22.0718 7.36651 22.0792C6.6494 22.0866 5.93803 21.9508 5.27406 21.6797C4.6101 21.4087 4.0069 21.0079 3.4998 20.5008C2.9927 19.9937 2.59189 19.3905 2.32086 18.7265C2.04983 18.0626 1.91402 17.3512 1.92139 16.6341C1.92876 15.917 2.07917 15.2085 2.36379 14.5503C2.64842 13.892 3.06154 13.2972 3.57896 12.8006L12.8 3.57964C13.2965 3.06222 13.8914 2.6491 14.5496 2.36447C15.2079 2.07984 15.9163 1.92944 16.6334 1.92207C17.3505 1.91469 18.0619 2.0505 18.7259 2.32154C19.3898 2.59257 19.993 2.99337 20.5001 3.50048C21.0072 4.00758 21.408 4.61078 21.6791 5.27474C21.9501 5.9387 22.0859 6.65008 22.0785 7.36719C22.0712 8.0843 21.9208 8.79274 21.6361 9.45099C21.3515 10.1092 20.9384 10.7041 20.421 11.2006ZM19.707 8.29164C19.8944 8.47917 19.9997 8.73347 19.9997 8.99864C19.9997 9.2638 19.8944 9.51811 19.707 9.70564L16.707 12.7056C16.5184 12.8878 16.2658 12.9886 16.0036 12.9863C15.7414 12.984 15.4906 12.8789 15.3051 12.6935C15.1197 12.508 15.0146 12.2572 15.0123 11.995C15.01 11.7328 15.1108 11.4802 15.293 11.2916L16.086 10.4986L13.5 7.91464L12.707 8.70764C12.5184 8.8898 12.2658 8.99059 12.0036 8.98831C11.7414 8.98603 11.4906 8.88087 11.3051 8.69546C11.1197 8.51005 11.0146 8.25924 11.0123 7.99704C11.01 7.73484 11.1108 7.48224 11.293 7.29364L14.293 4.29364C14.3852 4.19813 14.4956 4.12195 14.6176 4.06954C14.7396 4.01713 14.8708 3.98954 15.0036 3.98839C15.1363 3.98723 15.268 4.01254 15.3909 4.06282C15.5138 4.1131 15.6255 4.18735 15.7194 4.28124C15.8132 4.37514 15.8875 4.48679 15.9378 4.60968C15.9881 4.73258 16.0134 4.86426 16.0122 4.99704C16.0111 5.12982 15.9835 5.26104 15.9311 5.38304C15.8787 5.50505 15.8025 5.61539 15.707 5.70764L14.914 6.50064L17.5 9.08664L18.293 8.29364C18.4805 8.10617 18.7348 8.00085 19 8.00085C19.2651 8.00085 19.5194 8.10617 19.707 8.29364V8.29164ZM12.707 15.2916C12.8944 15.4792 12.9997 15.7335 12.9997 15.9986C12.9997 16.2638 12.8944 16.5181 12.707 16.7056L9.70696 19.7056C9.51836 19.8878 9.26576 19.9886 9.00356 19.9863C8.74136 19.984 8.49055 19.8789 8.30514 19.6935C8.11974 19.508 8.01457 19.2572 8.01229 18.995C8.01001 18.7328 8.1108 18.4802 8.29296 18.2916L9.08596 17.4986L6.49996 14.9146L5.70696 15.7076C5.51836 15.8898 5.26576 15.9906 5.00356 15.9883C4.74136 15.986 4.49055 15.8809 4.30514 15.6955C4.11973 15.51 4.01457 15.2592 4.01229 14.997C4.01001 14.7348 4.1108 14.4822 4.29296 14.2936L7.29296 11.2936C7.48156 11.1115 7.73417 11.0107 7.99636 11.013C8.25856 11.0152 8.50937 11.1204 8.69478 11.3058C8.88019 11.4912 8.98536 11.742 8.98764 12.0042C8.98991 12.2664 8.88912 12.519 8.70696 12.7076L7.91396 13.5006L10.5 16.0866L11.293 15.2936C11.4805 15.1062 11.7348 15.0009 12 15.0009C12.2651 15.0009 12.5194 15.1062 12.707 15.2936V15.2916Z" fill="#374957"/>
</g>
<defs>
<clipPath id="clip0_74_8764">
<rect width="24" height="24" fill="white"/>
</clipPath>
</defs>
</svg>
