<svg width="24" height="24" viewBox="0 0 24 24" fill="none" xmlns="http://www.w3.org/2000/svg">
<g clip-path="url(#clip0_74_8846)">
<path d="M19 23C19 23.2652 18.8946 23.5196 18.7071 23.7071C18.5196 23.8946 18.2652 24 18 24H1C0.734784 24 0.48043 23.8946 0.292893 23.7071C0.105357 23.5196 0 23.2652 0 23C0 22.7348 0.105357 22.4804 0.292893 22.2929C0.48043 22.1054 0.734784 22 1 22H18C18.2652 22 18.5196 22.1054 18.7071 22.2929C18.8946 22.4804 19 22.7348 19 23ZM24 8C24 10.774 21.815 14 19 14H17.388L17.088 15.821C16.8966 16.9907 16.2945 18.054 15.3899 18.8198C14.4853 19.5857 13.3373 20.0041 12.152 20H6.852C5.6674 20.0032 4.52039 19.5843 3.6166 18.8185C2.7128 18.0527 2.11133 16.9901 1.92 15.821L0.056 4.657C-0.0393862 4.08415 -0.00889222 3.4974 0.145363 2.93752C0.299618 2.37765 0.573934 1.85807 0.949249 1.41491C1.32456 0.971744 1.79188 0.615618 2.31871 0.371278C2.84554 0.126937 3.41926 0.000243407 4 2.35046e-07H15C15.525 -0.0020017 16.0453 0.10022 16.5305 0.300741C17.0158 0.501262 17.4564 0.796094 17.8269 1.16815C18.1974 1.54021 18.4903 1.9821 18.6888 2.4682C18.8872 2.95431 18.9872 3.47496 18.983 4H19C22.131 4 24 5.5 24 8ZM16.972 4.329C17.0198 4.04254 17.0046 3.74911 16.9275 3.46911C16.8504 3.18911 16.7133 2.92926 16.5256 2.70762C16.3379 2.48598 16.1042 2.30787 15.8408 2.18567C15.5773 2.06347 15.2904 2.00011 15 2H4C3.70968 2.00013 3.42287 2.06347 3.1595 2.18561C2.89612 2.30775 2.66249 2.48577 2.47484 2.70729C2.2872 2.92882 2.15002 3.18854 2.07286 3.46842C1.9957 3.74829 1.98039 4.04161 2.028 4.328L3.889 15.493C4.00399 16.1943 4.36492 16.8317 4.90712 17.2911C5.44932 17.7504 6.13736 18.0018 6.848 18H12.148C12.8586 18.0018 13.5467 17.7504 14.0889 17.2911C14.6311 16.8317 14.992 16.1943 15.107 15.493L16.972 4.329ZM22 8C22 7.5 22 6 19 6H18.721L17.721 12H19C20.545 12 22 9.746 22 8Z" fill="#374957"/>
</g>
<defs>
<clipPath id="clip0_74_8846">
<rect width="24" height="24" fill="white"/>
</clipPath>
</defs>
</svg>
