<svg width="24" height="24" viewBox="0 0 24 24" fill="none" xmlns="http://www.w3.org/2000/svg">
<g clip-path="url(#clip0_74_8799)">
<path d="M23.0001 2.99969H13.0001C12.7349 2.99969 12.4805 3.10505 12.293 3.29259C12.1054 3.48012 12.0001 3.73448 12.0001 3.99969V7.26969L9.60007 3.10969C9.42493 2.80427 9.17228 2.55049 8.86763 2.374C8.56298 2.19751 8.21714 2.10457 7.86507 2.10457C7.51299 2.10457 7.16716 2.19751 6.86251 2.374C6.55786 2.55049 6.3052 2.80427 6.13007 3.10969L0.130068 13.4997C0.0423 13.6517 -0.00390625 13.8241 -0.00390625 13.9997C-0.00390625 14.1752 0.0423 14.3477 0.130068 14.4997C0.218173 14.6523 0.345037 14.7789 0.497814 14.8667C0.650592 14.9545 0.823858 15.0004 1.00007 14.9997H5.29007C5.09591 15.6485 4.9982 16.3224 5.00007 16.9997C5.00007 18.8562 5.73757 20.6367 7.05032 21.9494C8.36308 23.2622 10.1436 23.9997 12.0001 23.9997C13.8566 23.9997 15.6371 23.2622 16.9498 21.9494C18.2626 20.6367 19.0001 18.8562 19.0001 16.9997C19.0019 16.3224 18.9042 15.6485 18.7101 14.9997H23.0001C23.2653 14.9997 23.5196 14.8943 23.7072 14.7068C23.8947 14.5192 24.0001 14.2649 24.0001 13.9997V3.99969C24.0001 3.73448 23.8947 3.48012 23.7072 3.29259C23.5196 3.10505 23.2653 2.99969 23.0001 2.99969ZM2.73007 12.9997L7.86007 4.10969L11.2901 9.99968C10.29 10.111 9.32568 10.4366 8.46283 10.9543C7.59998 11.472 6.85889 12.1696 6.29007 12.9997H2.73007ZM12.0001 21.9997C11.0112 21.9997 10.0445 21.7064 9.22222 21.157C8.39997 20.6076 7.75911 19.8267 7.38067 18.9131C7.00223 17.9995 6.90322 16.9941 7.09614 16.0242C7.28907 15.0543 7.76527 14.1634 8.46454 13.4641C9.1638 12.7649 10.0547 12.2887 11.0246 12.0958C11.9945 11.9028 12.9999 12.0018 13.9135 12.3803C14.8271 12.7587 15.608 13.3996 16.1574 14.2218C16.7068 15.0441 17.0001 16.0108 17.0001 16.9997C17.0001 18.3258 16.4733 19.5975 15.5356 20.5352C14.5979 21.4729 13.3262 21.9997 12.0001 21.9997ZM22.0001 12.9997H17.7401C16.8319 11.7031 15.515 10.7489 14.0001 10.2897V4.99969H22.0001V12.9997Z" fill="#374957"/>
</g>
<defs>
<clipPath id="clip0_74_8799">
<rect width="24" height="24" fill="white"/>
</clipPath>
</defs>
</svg>
