<svg width="24" height="24" viewBox="0 0 24 24" fill="none" xmlns="http://www.w3.org/2000/svg">
<g clip-path="url(#clip0_74_8831)">
<path d="M6.5 -7.62939e-06C5.57174 -7.62939e-06 4.6815 0.368741 4.02513 1.02512C3.36875 1.6815 3 2.57173 3 3.49999V20.5C3 21.4282 3.36875 22.3185 4.02513 22.9749C4.6815 23.6312 5.57174 24 6.5 24C7.42826 24 8.3185 23.6312 8.97487 22.9749C9.63125 22.3185 10 21.4282 10 20.5V3.49999C10 2.57173 9.63125 1.6815 8.97487 1.02512C8.3185 0.368741 7.42826 -7.62939e-06 6.5 -7.62939e-06ZM8 20.5C8 20.8978 7.84196 21.2793 7.56066 21.5607C7.27936 21.842 6.89782 22 6.5 22C6.10218 22 5.72064 21.842 5.43934 21.5607C5.15804 21.2793 5 20.8978 5 20.5V3.49999C5 3.10217 5.15804 2.72064 5.43934 2.43933C5.72064 2.15803 6.10218 1.99999 6.5 1.99999C6.89782 1.99999 7.27936 2.15803 7.56066 2.43933C7.84196 2.72064 8 3.10217 8 3.49999V20.5Z" fill="#374957"/>
<path d="M17.5002 -7.62939e-06C16.572 -7.62939e-06 15.6817 0.368741 15.0254 1.02512C14.369 1.6815 14.0002 2.57173 14.0002 3.49999V20.5C14.0002 21.4282 14.369 22.3185 15.0254 22.9749C15.6817 23.6312 16.572 24 17.5002 24C18.4285 24 19.3187 23.6312 19.9751 22.9749C20.6315 22.3185 21.0002 21.4282 21.0002 20.5V3.49999C21.0002 2.57173 20.6315 1.6815 19.9751 1.02512C19.3187 0.368741 18.4285 -7.62939e-06 17.5002 -7.62939e-06ZM19.0002 20.5C19.0002 20.8978 18.8422 21.2793 18.5609 21.5607C18.2796 21.842 17.8981 22 17.5002 22C17.1024 22 16.7209 21.842 16.4396 21.5607C16.1583 21.2793 16.0002 20.8978 16.0002 20.5V3.49999C16.0002 3.10217 16.1583 2.72064 16.4396 2.43933C16.7209 2.15803 17.1024 1.99999 17.5002 1.99999C17.8981 1.99999 18.2796 2.15803 18.5609 2.43933C18.8422 2.72064 19.0002 3.10217 19.0002 3.49999V20.5Z" fill="#374957"/>
</g>
<defs>
<clipPath id="clip0_74_8831">
<rect width="24" height="24" fill="white"/>
</clipPath>
</defs>
</svg>
