<svg width="24" height="24" viewBox="0 0 24 24" fill="none" xmlns="http://www.w3.org/2000/svg">
<g clip-path="url(#clip0_74_9146)">
<path d="M6.00002 6.20999C6.18738 6.39624 6.44084 6.50078 6.70502 6.50078C6.96921 6.50078 7.22266 6.39624 7.41002 6.20999L11 2.57999V23C11 23.2652 11.1054 23.5196 11.2929 23.7071C11.4805 23.8947 11.7348 24 12 24C12.2652 24 12.5196 23.8947 12.7071 23.7071C12.8947 23.5196 13 23.2652 13 23V2.58999L16.62 6.20999C16.713 6.30372 16.8236 6.37811 16.9454 6.42888C17.0673 6.47965 17.198 6.50579 17.33 6.50579C17.462 6.50579 17.5927 6.47965 17.7146 6.42888C17.8365 6.37811 17.9471 6.30372 18.04 6.20999C18.2263 6.02263 18.3308 5.76918 18.3308 5.50499C18.3308 5.24081 18.2263 4.98735 18.04 4.79999L14.13 0.879986C13.5675 0.318183 12.805 0.00262451 12.01 0.00262451C11.215 0.00262451 10.4525 0.318183 9.89002 0.879986L6.00002 4.79999C5.81377 4.98735 5.70923 5.24081 5.70923 5.50499C5.70923 5.76918 5.81377 6.02263 6.00002 6.20999Z" fill="#374957"/>
</g>
<defs>
<clipPath id="clip0_74_9146">
<rect width="24" height="24" fill="white"/>
</clipPath>
</defs>
</svg>
