<svg width="24" height="24" viewBox="0 0 24 24" fill="none" xmlns="http://www.w3.org/2000/svg">
<g clip-path="url(#clip0_74_8951)">
<path d="M24 11.1004C24.0085 10.3529 23.7417 9.62841 23.2504 9.065C22.7591 8.50159 22.0777 8.13866 21.336 8.04539C21.636 7.50039 22.072 6.23239 21.99 3.04539C21.984 2.72447 21.9043 2.40921 21.7571 2.12398C21.6099 1.83875 21.3991 1.59118 21.141 1.40039C20.8959 1.2179 20.6123 1.094 20.3119 1.03818C20.0115 0.982361 19.7023 0.996117 19.408 1.07839C17.9191 1.49556 16.5245 2.19528 15.3 3.13939C14.811 2.32752 14.2685 1.54913 13.676 0.809392C13.4689 0.56758 13.2119 0.373461 12.9227 0.240367C12.6335 0.107274 12.3189 0.0383606 12.0005 0.0383606C11.6821 0.0383606 11.3675 0.107274 11.0783 0.240367C10.7891 0.373461 10.5321 0.56758 10.325 0.809392C9.73476 1.54771 9.19423 2.32442 8.70698 3.13439C7.47611 2.19304 6.07767 1.49399 4.58598 1.07439C4.29244 0.992195 3.98389 0.978848 3.68435 1.03539C3.38481 1.09194 3.10236 1.21684 2.85898 1.40039C2.60109 1.59071 2.3904 1.83777 2.24319 2.12248C2.09597 2.40719 2.01619 2.72193 2.00998 3.04239C1.92798 6.23039 2.36698 7.49739 2.66198 8.04239C1.92022 8.13638 1.23897 8.5 0.74805 9.06395C0.257129 9.6279 -0.00914035 10.3528 -1.72393e-05 11.1004C-1.72393e-05 15.3904 6.38698 18.2854 9.47798 19.4354C9.01329 19.8528 8.61176 20.3355 8.28598 20.8684C8.10007 21.1794 8.00089 21.5345 7.99878 21.8968C7.99667 22.2591 8.0917 22.6153 8.27398 22.9284C8.45983 23.2535 8.7282 23.5239 9.05198 23.7121C9.37575 23.9003 9.74347 23.9998 10.118 24.0004H13.882C14.2569 23.9994 14.6249 23.8993 14.9487 23.7104C15.2725 23.5214 15.5406 23.2503 15.726 22.9244C15.9082 22.6115 16.0033 22.2555 16.0014 21.8934C15.9995 21.5313 15.9006 21.1763 15.715 20.8654C15.5268 20.5573 15.3098 20.2676 15.067 20.0004H16C16.5304 20.0004 17.0391 20.2111 17.4142 20.5862C17.7893 20.9613 18 21.47 18 22.0004C18 22.2656 18.1053 22.52 18.2929 22.7075C18.4804 22.895 18.7348 23.0004 19 23.0004C19.2652 23.0004 19.5196 22.895 19.7071 22.7075C19.8946 22.52 20 22.2656 20 22.0004C19.9974 21.173 19.7379 20.3669 19.2572 19.6935C18.7766 19.0201 18.0986 18.5127 17.317 18.2414C20.415 16.7404 24 14.3104 24 11.1004ZM16.372 4.88439C17.3992 3.98669 18.6221 3.34153 19.943 3.00039C19.943 3.00039 19.989 3.01939 19.991 3.09339C20.054 5.52739 19.777 6.81339 19.521 7.17639C19.3745 7.39151 19.1852 7.57412 18.965 7.7128C18.7448 7.85148 18.4983 7.94325 18.241 7.98239C17.9958 8.01701 17.7462 8.00041 17.5078 7.93362C17.2694 7.86684 17.0475 7.75133 16.856 7.59439C16.6412 7.45248 16.4575 7.26839 16.316 7.0533C16.1745 6.83821 16.0782 6.59661 16.0329 6.34317C15.9877 6.08973 15.9944 5.82973 16.0527 5.57896C16.1109 5.3282 16.2196 5.09189 16.372 4.88439ZM11.892 2.05239C11.9049 2.03596 11.9214 2.02268 11.9402 2.01355C11.959 2.00441 11.9796 1.99967 12.0005 1.99967C12.0214 1.99967 12.042 2.00441 12.0608 2.01355C12.0796 2.02268 12.0961 2.03596 12.109 2.05239C12.8711 2.96209 13.5186 3.9619 14.037 5.02939C14.0576 5.06431 14.0807 5.09773 14.106 5.12939C13.9932 5.61943 13.9799 6.12713 14.067 6.62239C13.9011 7.01952 13.6243 7.36044 13.2697 7.60438C12.9151 7.84833 12.4978 7.98496 12.0676 7.99793C11.6374 8.01091 11.2126 7.89968 10.844 7.67755C10.4753 7.45542 10.1785 7.1318 9.98898 6.74539C9.967 6.71346 9.9433 6.68275 9.91798 6.65339C10.0119 6.1602 10.0058 5.65317 9.89998 5.16239C9.90524 5.15475 9.90991 5.14673 9.91398 5.13839C10.4329 4.02623 11.0982 2.98838 11.892 2.05239ZM4.00898 3.09239C4.00856 3.07526 4.01172 3.05822 4.01826 3.04238C4.02481 3.02653 4.03459 3.01223 4.04698 3.00039C5.37669 3.34007 6.60916 3.98438 7.64698 4.88239C7.79475 5.09406 7.89852 5.33323 7.95217 5.58574C8.00581 5.83825 8.00822 6.09896 7.95926 6.35241C7.91031 6.60587 7.81097 6.84693 7.66715 7.06129C7.52333 7.27566 7.33795 7.45898 7.12198 7.60039C6.93262 7.75649 6.71286 7.8715 6.47667 7.93812C6.24047 8.00474 5.99301 8.02152 5.74998 7.98739C5.49378 7.94861 5.24842 7.85703 5.02945 7.71846C4.81049 7.57989 4.6227 7.39734 4.47798 7.18239C4.22198 6.81439 3.94598 5.52739 4.00898 3.09239ZM13.882 22.0004H10.118C10.056 22.0004 10.018 21.9544 10.006 21.8844C10.5077 21.1254 11.1799 20.4943 11.969 20.0414C12.7887 20.4954 13.4826 21.1463 13.988 21.9354C13.9776 21.9546 13.9623 21.9707 13.9437 21.9821C13.9251 21.9936 13.9038 21.9999 13.882 22.0004ZM14.676 17.2094C15.3089 16.2901 15.7544 15.255 15.987 14.1634C16.0302 13.9016 15.9677 13.6334 15.8132 13.4177C15.6586 13.2021 15.4248 13.0566 15.163 13.0134C14.9012 12.9702 14.633 13.0327 14.4173 13.1872C14.2017 13.3418 14.0562 13.5756 14.013 13.8374C13.6321 15.1862 12.948 16.4302 12.013 17.4744C11.0886 16.3958 10.3956 15.1388 9.97698 13.7814C9.94823 13.6532 9.8945 13.532 9.81888 13.4246C9.74326 13.3172 9.64723 13.2257 9.53626 13.1554C9.4253 13.0851 9.30157 13.0374 9.17215 13.0149C9.04273 12.9924 8.91015 12.9956 8.78198 13.0244C8.65381 13.0532 8.53256 13.1069 8.42515 13.1825C8.31775 13.2581 8.22629 13.3541 8.15599 13.4651C8.0857 13.5761 8.03795 13.6998 8.01547 13.8292C7.99299 13.9586 7.99622 14.0912 8.02498 14.2194C8.30549 15.2933 8.76492 16.3122 9.38398 17.2334C6.29998 15.9654 1.99998 13.6404 1.99998 11.1004C1.99551 10.9562 2.0203 10.8127 2.07286 10.6784C2.12542 10.5441 2.20466 10.4219 2.30579 10.319C2.40692 10.2162 2.52784 10.135 2.66125 10.0802C2.79466 10.0255 2.93778 9.9983 3.08198 10.0004H20.918C21.0622 9.9983 21.2053 10.0255 21.3387 10.0802C21.4721 10.135 21.5931 10.2162 21.6942 10.319C21.7953 10.4219 21.8745 10.5441 21.9271 10.6784C21.9797 10.8127 22.0045 10.9562 22 11.1004C22 13.6234 17.755 15.9354 14.676 17.2094Z" fill="#374957"/>
</g>
<defs>
<clipPath id="clip0_74_8951">
<rect width="24" height="24" fill="white"/>
</clipPath>
</defs>
</svg>
