<svg width="24" height="24" viewBox="0 0 24 24" fill="none" xmlns="http://www.w3.org/2000/svg">
<g clip-path="url(#clip0_74_8894)">
<path d="M20.4572 4.55509L12.4862 0.126087C12.3376 0.0434268 12.1703 4.57764e-05 12.0002 4.57764e-05C11.8302 4.57764e-05 11.6629 0.0434268 11.5142 0.126087L3.54324 4.55509C3.07565 4.81488 2.68602 5.19497 2.41472 5.65598C2.14342 6.117 2.00032 6.64217 2.00024 7.17709V19.0001C2.00183 20.3257 2.52913 21.5965 3.46646 22.5339C4.4038 23.4712 5.67465 23.9985 7.00024 24.0001H17.0002C18.3258 23.9985 19.5967 23.4712 20.534 22.5339C21.4714 21.5965 21.9987 20.3257 22.0002 19.0001V7.17709C22.0002 6.64217 21.8571 6.117 21.5858 5.65598C21.3145 5.19497 20.9248 4.81488 20.4572 4.55509ZM20.0002 19.0001C20.0002 19.7957 19.6842 20.5588 19.1216 21.1214C18.559 21.684 17.7959 22.0001 17.0002 22.0001H7.00024C6.20459 22.0001 5.44153 21.684 4.87892 21.1214C4.31631 20.5588 4.00024 19.7957 4.00024 19.0001V7.17709C3.9998 6.99821 4.04735 6.82248 4.13793 6.66823C4.22851 6.51398 4.35881 6.38684 4.51524 6.30009L12.0002 2.14409L19.4862 6.30009C19.6425 6.38697 19.7726 6.51416 19.863 6.6684C19.9534 6.82265 20.0008 6.99831 20.0002 7.17709V19.0001Z" fill="#374957"/>
<path d="M12 8.50031C12.8284 8.50031 13.5 7.82873 13.5 7.00031C13.5 6.17188 12.8284 5.50031 12 5.50031C11.1716 5.50031 10.5 6.17188 10.5 7.00031C10.5 7.82873 11.1716 8.50031 12 8.50031Z" fill="#374957"/>
</g>
<defs>
<clipPath id="clip0_74_8894">
<rect width="24" height="24" fill="white"/>
</clipPath>
</defs>
</svg>
