<svg width="24" height="24" viewBox="0 0 24 24" fill="none" xmlns="http://www.w3.org/2000/svg">
<g clip-path="url(#clip0_74_9201)">
<path d="M23.4211 16.5821L20.1301 13.2911C20.0384 13.1934 19.928 13.1152 19.8054 13.061C19.6829 13.0069 19.5507 12.9779 19.4167 12.9758C19.2827 12.9737 19.1497 12.9986 19.0255 13.0489C18.9013 13.0993 18.7885 13.174 18.6938 13.2688C18.5991 13.3636 18.5244 13.4765 18.4741 13.6007C18.4239 13.7249 18.3991 13.8579 18.4013 13.9919C18.4035 14.1259 18.4325 14.2581 18.4868 14.3806C18.5411 14.5031 18.6194 14.6135 18.7171 14.7051L21.0071 16.9991C19.7623 17.002 18.5294 16.7557 17.3812 16.2748C16.2329 15.7939 15.1925 15.0882 14.3211 14.1991C14.2244 14.11 14.1107 14.0413 13.9868 13.9969C13.863 13.9526 13.7315 13.9336 13.6002 13.9411C13.4689 13.9485 13.3404 13.9823 13.2224 14.0404C13.1043 14.0984 12.9992 14.1796 12.9131 14.2791L12.9001 14.2991C12.732 14.4947 12.6459 14.7477 12.6599 15.0052C12.6739 15.2627 12.7868 15.5049 12.9751 15.6811C14.0249 16.7428 15.2768 17.5834 16.6568 18.1533C18.0369 18.7232 19.5171 19.0108 21.0101 18.9991L18.7171 21.2921C18.6126 21.382 18.5279 21.4925 18.4681 21.6167C18.4083 21.7409 18.3749 21.8761 18.3699 22.0138C18.3649 22.1515 18.3884 22.2888 18.4389 22.417C18.4894 22.5452 18.566 22.6616 18.6636 22.7589C18.7613 22.8561 18.878 22.9321 19.0064 22.9821C19.1348 23.0321 19.2722 23.055 19.4099 23.0494C19.5476 23.0438 19.6827 23.0098 19.8066 22.9495C19.9306 22.8892 20.0407 22.804 20.1301 22.6991L23.4211 19.4081C23.7954 19.0332 24.0057 18.525 24.0057 17.9951C24.0057 17.4653 23.7954 16.9571 23.4211 16.5821Z" fill="#374957"/>
<path d="M21.0071 6.99956L18.7171 9.28956C18.6976 9.31588 18.6796 9.34326 18.6631 9.37156C18.5017 9.56831 18.4221 9.81955 18.4408 10.0733C18.4594 10.3271 18.5749 10.564 18.7633 10.7351C18.9516 10.9061 19.1986 10.9983 19.453 10.9924C19.7074 10.9865 19.9498 10.8831 20.1301 10.7036L21.8361 8.99956L23.4221 7.41456C23.6902 7.14432 23.8757 6.80316 23.9566 6.43116C24.0376 6.05917 24.0107 5.6718 23.8791 5.31456C23.7819 5.04111 23.6255 4.79251 23.4211 4.58656L20.1301 1.29956C20.0388 1.20037 19.9284 1.12067 19.8055 1.06523C19.6826 1.0098 19.5498 0.979783 19.415 0.976991C19.2802 0.974198 19.1463 0.998686 19.0212 1.04898C18.8961 1.09928 18.7825 1.17435 18.6872 1.26967C18.5919 1.36499 18.5168 1.47861 18.4665 1.60368C18.4162 1.72876 18.3917 1.86271 18.3945 1.99749C18.3973 2.13227 18.4273 2.26509 18.4827 2.38798C18.5382 2.51086 18.6179 2.62127 18.7171 2.71256L21.0101 5.00456C16.0771 5.01656 13.3731 7.67856 10.9211 10.4786C8.66909 7.93656 6.0001 5.39956 1.4871 5.04556L1.0061 4.99956C0.740886 4.99956 0.486533 5.10492 0.298996 5.29246C0.11146 5.47999 0.00610352 5.73435 0.00610352 5.99956C0.0112237 6.26318 0.118224 6.51457 0.304662 6.701C0.4911 6.88744 0.742489 6.99444 1.0061 6.99956C1.0781 6.99956 1.2931 7.03256 1.2931 7.03256C5.1891 7.32756 7.4251 9.52156 9.60009 11.9996C7.4381 14.4656 5.2171 16.6996 1.3531 16.9596L0.953102 16.9806C0.689875 16.997 0.443961 17.1173 0.269459 17.3151C0.0949567 17.5129 0.00616009 17.7718 0.0226035 18.0351C0.0390469 18.2983 0.159383 18.5442 0.35714 18.7187C0.554897 18.8932 0.813875 18.982 1.0771 18.9656C1.2331 18.9586 1.4871 18.9526 1.6121 18.9426C6.6321 18.5556 9.35509 15.3426 11.7831 12.5336C14.2351 9.69956 16.5511 7.01756 21.0071 6.99956Z" fill="#374957"/>
</g>
<defs>
<clipPath id="clip0_74_9201">
<rect width="24" height="24" fill="white"/>
</clipPath>
</defs>
</svg>
