<svg width="24" height="24" viewBox="0 0 24 24" fill="none" xmlns="http://www.w3.org/2000/svg">
<g clip-path="url(#clip0_74_8784)">
<path d="M19 1.9994H16.461C15.7695 1.21121 14.8807 0.621343 13.8858 0.29041C12.8909 -0.040522 11.8258 -0.100582 10.8 0.116403C9.55068 0.371174 8.42128 1.03348 7.589 1.9994H5C3.67441 2.00099 2.40356 2.52829 1.46622 3.46562C0.528882 4.40296 0.00158786 5.67381 0 6.9994L0 18.9994C0.00158786 20.325 0.528882 21.5958 1.46622 22.5332C2.40356 23.4705 3.67441 23.9978 5 23.9994H19C20.3256 23.9978 21.5964 23.4705 22.5338 22.5332C23.4711 21.5958 23.9984 20.325 24 18.9994V6.9994C23.9984 5.67381 23.4711 4.40296 22.5338 3.46562C21.5964 2.52829 20.3256 2.00099 19 1.9994ZM12 1.9994C13.0609 1.9994 14.0783 2.42083 14.8284 3.17098C15.5786 3.92112 16 4.93854 16 5.9994C16 6.26462 15.8946 6.51897 15.7071 6.70651C15.5196 6.89405 15.2652 6.9994 15 6.9994H12.868L13.832 5.5544C13.9792 5.33374 14.0327 5.06365 13.9808 4.80353C13.9288 4.54342 13.7757 4.3146 13.555 4.1674C13.3343 4.02021 13.0642 3.9667 12.8041 4.01865C12.544 4.07059 12.3152 4.22374 12.168 4.4444L10.465 6.9994H9C8.73478 6.9994 8.48043 6.89405 8.29289 6.70651C8.10536 6.51897 8 6.26462 8 5.9994C8 4.93854 8.42143 3.92112 9.17157 3.17098C9.92172 2.42083 10.9391 1.9994 12 1.9994ZM22 18.9994C22 19.7951 21.6839 20.5581 21.1213 21.1207C20.5587 21.6833 19.7956 21.9994 19 21.9994H5C4.20435 21.9994 3.44129 21.6833 2.87868 21.1207C2.31607 20.5581 2 19.7951 2 18.9994V6.9994C2 6.20375 2.31607 5.44069 2.87868 4.87808C3.44129 4.31547 4.20435 3.9994 5 3.9994H6.393C6.1339 4.70919 6.0009 5.45881 6 6.2144C6.00079 6.95279 6.29447 7.6607 6.81658 8.18282C7.3387 8.70494 8.04662 8.99861 8.785 8.9994H15.215C15.932 9.006 16.6235 8.7335 17.1432 8.23952C17.6629 7.74554 17.9702 7.06881 18 6.3524C18.01 5.55484 17.8939 4.76071 17.656 3.9994H19C19.7956 3.9994 20.5587 4.31547 21.1213 4.87808C21.6839 5.44069 22 6.20375 22 6.9994V18.9994Z" fill="#374957"/>
</g>
<defs>
<clipPath id="clip0_74_8784">
<rect width="24" height="24" fill="white"/>
</clipPath>
</defs>
</svg>
