<svg width="24" height="24" viewBox="0 0 24 24" fill="none" xmlns="http://www.w3.org/2000/svg">
<g clip-path="url(#clip0_74_8870)">
<path d="M8.17381 22.4536C10.2777 24.5118 13.6381 24.5202 15.7523 22.4726L19.7366 18.7907C24.0529 14.5319 24.0994 7.58059 19.8407 3.26439C15.582 -1.05182 8.63065 -1.09841 4.31445 3.16032C4.27952 3.19478 4.24484 3.22946 4.21038 3.26439C-0.0768045 7.55228 -0.076242 14.5038 4.21165 18.791C4.22055 18.7999 4.22941 18.8087 4.23837 18.8176L8.17381 22.4536ZM5.6217 4.67565C9.12199 1.15965 14.8099 1.1469 18.3259 4.6472C21.8419 8.1475 21.8546 13.8354 18.3543 17.3514L14.3769 21.0263C13.0187 22.3045 10.8978 22.2967 9.54916 21.0084L5.6217 17.3793C2.11366 13.8713 2.11366 8.18373 5.6216 4.6757C5.62165 4.6757 5.62165 4.6757 5.6217 4.67565ZM6.98309 11.0275C6.98309 10.4762 7.42995 10.0294 7.9812 10.0294H15.9659C16.5171 10.0294 16.964 10.4762 16.964 11.0275C16.964 11.5787 16.5171 12.0256 15.9659 12.0256H7.9812C7.42995 12.0256 6.98309 11.5787 6.98309 11.0275Z" fill="#374957"/>
</g>
<defs>
<clipPath id="clip0_74_8870">
<rect width="24" height="24" fill="white"/>
</clipPath>
</defs>
</svg>
