<svg width="24" height="24" viewBox="0 0 24 24" fill="none" xmlns="http://www.w3.org/2000/svg">
<g clip-path="url(#clip0_74_8886)">
<path d="M21.1549 19.7413C22.9915 17.5802 23.9999 14.8365 23.9999 12.0003C23.9999 9.16423 22.9915 6.4205 21.1549 4.25935L22.0149 3.39935C22.2024 3.21171 22.3077 2.95727 22.3076 2.69199C22.3075 2.42672 22.2021 2.17236 22.0144 1.98485C21.8268 1.79734 21.5724 1.69205 21.3071 1.69215C21.0418 1.69224 20.7874 1.79771 20.5999 1.98535L19.7399 2.84535C17.5788 1.00878 14.8351 0.000411987 11.9989 0.000411987C9.16282 0.000411987 6.41909 1.00878 4.25794 2.84535L3.39794 1.98535C3.20921 1.80332 2.95653 1.7027 2.69433 1.70516C2.43214 1.70762 2.1814 1.81297 1.99612 1.99851C1.81084 2.18405 1.70585 2.43494 1.70376 2.69714C1.70166 2.95934 1.80264 3.21188 1.98494 3.40035L2.84494 4.26035C1.00836 6.4215 0 9.16523 0 12.0013C0 14.8375 1.00836 17.5812 2.84494 19.7423L1.98494 20.6023C1.88949 20.6947 1.81339 20.8051 1.76107 20.9271C1.70875 21.0491 1.68126 21.1804 1.6802 21.3132C1.67914 21.4459 1.70454 21.5776 1.7549 21.7005C1.80527 21.8233 1.8796 21.9349 1.97356 22.0287C2.06752 22.1226 2.17922 22.1967 2.30215 22.2469C2.42508 22.2971 2.55678 22.3223 2.68956 22.3211C2.82233 22.3198 2.95353 22.2922 3.0755 22.2397C3.19747 22.1872 3.30776 22.1109 3.39994 22.0153L4.25994 21.1553C6.42109 22.9919 9.16482 24.0003 12.0009 24.0003C14.8371 24.0003 17.5808 22.9919 19.7419 21.1553L20.6019 22.0153C20.7907 22.1974 21.0433 22.298 21.3055 22.2955C21.5677 22.2931 21.8185 22.1877 22.0038 22.0022C22.189 21.8166 22.294 21.5658 22.2961 21.3036C22.2982 21.0414 22.1972 20.7888 22.0149 20.6003L21.1549 19.7413ZM21.9999 12.0003C22.0018 14.3068 21.2022 16.5423 19.7379 18.3243L16.1669 14.7533C16.7101 13.9379 16.9999 12.9801 16.9999 12.0003C16.9999 11.0206 16.7101 10.0628 16.1669 9.24735L19.7379 5.67635C21.2022 7.45842 22.0018 9.69388 21.9999 12.0003ZM8.99994 12.0003C8.99994 11.407 9.17588 10.827 9.50553 10.3336C9.83517 9.84029 10.3037 9.45577 10.8519 9.22871C11.4001 9.00165 12.0033 8.94224 12.5852 9.05799C13.1672 9.17375 13.7017 9.45947 14.1213 9.87903C14.5408 10.2986 14.8265 10.8331 14.9423 11.4151C15.058 11.997 14.9986 12.6002 14.7716 13.1484C14.5445 13.6966 14.16 14.1651 13.6666 14.4948C13.1733 14.8244 12.5933 15.0003 11.9999 15.0003C11.2043 15.0003 10.4412 14.6843 9.87862 14.1217C9.31601 13.5591 8.99994 12.796 8.99994 12.0003ZM11.9999 2.00035C14.3064 1.99851 16.5419 2.7981 18.3239 4.26235L14.7529 7.83335C13.9375 7.29021 12.9797 7.0004 11.9999 7.0004C11.0202 7.0004 10.0623 7.29021 9.24694 7.83335L5.67594 4.26235C7.45801 2.7981 9.69347 1.99851 11.9999 2.00035ZM1.99994 12.0003C1.9981 9.69388 2.79769 7.45842 4.26194 5.67635L7.83294 9.24735C7.2898 10.0628 6.99999 11.0206 6.99999 12.0003C6.99999 12.9801 7.2898 13.9379 7.83294 14.7533L4.26194 18.3243C2.79769 16.5423 1.9981 14.3068 1.99994 12.0003ZM11.9999 22.0003C9.69347 22.0022 7.45801 21.2026 5.67594 19.7383L9.24694 16.1673C10.0623 16.7105 11.0202 17.0003 11.9999 17.0003C12.9797 17.0003 13.9375 16.7105 14.7529 16.1673L18.3239 19.7383C16.5419 21.2026 14.3064 22.0022 11.9999 22.0003Z" fill="#374957"/>
</g>
<defs>
<clipPath id="clip0_74_8886">
<rect width="24" height="24" fill="white"/>
</clipPath>
</defs>
</svg>
