<svg width="24" height="24" viewBox="0 0 24 24" fill="none" xmlns="http://www.w3.org/2000/svg">
<g clip-path="url(#clip0_74_8888)">
<path d="M19 3.02199C19 3.01399 19 3.00799 19 2.99999V0.999992C19 0.734776 18.8946 0.480422 18.7071 0.292886C18.5196 0.105349 18.2652 -7.62939e-06 18 -7.62939e-06C17.7348 -7.62939e-06 17.4804 0.105349 17.2929 0.292886C17.1054 0.480422 17 0.734776 17 0.999992V2.09999C16.6709 2.03316 16.3358 1.99966 16 1.99999H15V0.999992C15 0.734776 14.8946 0.480422 14.7071 0.292886C14.5196 0.105349 14.2652 -7.62939e-06 14 -7.62939e-06C13.7348 -7.62939e-06 13.4804 0.105349 13.2929 0.292886C13.1054 0.480422 13 0.734776 13 0.999992V1.99999H11V0.999992C11 0.734776 10.8946 0.480422 10.7071 0.292886C10.5196 0.105349 10.2652 -7.62939e-06 10 -7.62939e-06C9.73478 -7.62939e-06 9.48043 0.105349 9.29289 0.292886C9.10536 0.480422 9 0.734776 9 0.999992V1.99999H8C7.66415 1.99966 7.32913 2.03316 7 2.09999V0.999992C7 0.734776 6.89464 0.480422 6.70711 0.292886C6.51957 0.105349 6.26522 -7.62939e-06 6 -7.62939e-06C5.73478 -7.62939e-06 5.48043 0.105349 5.29289 0.292886C5.10536 0.480422 5 0.734776 5 0.999992V2.99999V3.02199C4.38078 3.48437 3.8777 4.08453 3.53057 4.77498C3.18343 5.46542 3.00178 6.2272 3 6.99999V19C3.00159 20.3256 3.52888 21.5964 4.46622 22.5338C5.40356 23.4711 6.67441 23.9984 8 24H16C17.3256 23.9984 18.5964 23.4711 19.5338 22.5338C20.4711 21.5964 20.9984 20.3256 21 19V6.99999C20.9982 6.2272 20.8166 5.46542 20.4694 4.77498C20.1223 4.08453 19.6192 3.48437 19 3.02199ZM19 19C19 19.7956 18.6839 20.5587 18.1213 21.1213C17.5587 21.6839 16.7956 22 16 22H8C7.20435 22 6.44129 21.6839 5.87868 21.1213C5.31607 20.5587 5 19.7956 5 19V6.99999C5 6.20434 5.31607 5.44128 5.87868 4.87867C6.44129 4.31606 7.20435 3.99999 8 3.99999H16C16.7956 3.99999 17.5587 4.31606 18.1213 4.87867C18.6839 5.44128 19 6.20434 19 6.99999V19ZM17 7.99999C17 8.26521 16.8946 8.51956 16.7071 8.7071C16.5196 8.89464 16.2652 8.99999 16 8.99999H8C7.73478 8.99999 7.48043 8.89464 7.29289 8.7071C7.10536 8.51956 7 8.26521 7 7.99999C7 7.73478 7.10536 7.48042 7.29289 7.29289C7.48043 7.10535 7.73478 6.99999 8 6.99999H16C16.2652 6.99999 16.5196 7.10535 16.7071 7.29289C16.8946 7.48042 17 7.73478 17 7.99999ZM17 12C17 12.2652 16.8946 12.5196 16.7071 12.7071C16.5196 12.8946 16.2652 13 16 13H8C7.73478 13 7.48043 12.8946 7.29289 12.7071C7.10536 12.5196 7 12.2652 7 12C7 11.7348 7.10536 11.4804 7.29289 11.2929C7.48043 11.1053 7.73478 11 8 11H16C16.2652 11 16.5196 11.1053 16.7071 11.2929C16.8946 11.4804 17 11.7348 17 12ZM13 16C13 16.2652 12.8946 16.5196 12.7071 16.7071C12.5196 16.8946 12.2652 17 12 17H8C7.73478 17 7.48043 16.8946 7.29289 16.7071C7.10536 16.5196 7 16.2652 7 16C7 15.7348 7.10536 15.4804 7.29289 15.2929C7.48043 15.1053 7.73478 15 8 15H12C12.2652 15 12.5196 15.1053 12.7071 15.2929C12.8946 15.4804 13 15.7348 13 16Z" fill="#374957"/>
</g>
<defs>
<clipPath id="clip0_74_8888">
<rect width="24" height="24" fill="white"/>
</clipPath>
</defs>
</svg>
