<svg width="24" height="24" viewBox="0 0 24 24" fill="none" xmlns="http://www.w3.org/2000/svg">
<g clip-path="url(#clip0_74_9141)">
<path d="M9 10.0001C9 9.80228 9.05865 9.60894 9.16853 9.44449C9.27841 9.28004 9.43459 9.15187 9.61732 9.07618C9.80004 9.00049 10.0011 8.98069 10.1951 9.01928C10.3891 9.05786 10.5673 9.1531 10.7071 9.29295C10.847 9.43281 10.9422 9.61099 10.9808 9.80497C11.0194 9.99895 10.9996 10.2 10.9239 10.3827C10.8482 10.5655 10.72 10.7216 10.5556 10.8315C10.3911 10.9414 10.1978 11.0001 10 11.0001C9.73478 11.0001 9.48043 10.8947 9.29289 10.7072C9.10536 10.5196 9 10.2653 9 10.0001ZM14 11.0001C14.1978 11.0001 14.3911 10.9414 14.5556 10.8315C14.72 10.7216 14.8482 10.5655 14.9239 10.3827C14.9996 10.2 15.0194 9.99895 14.9808 9.80497C14.9422 9.61099 14.847 9.43281 14.7071 9.29295C14.5673 9.1531 14.3891 9.05786 14.1951 9.01928C14.0011 8.98069 13.8 9.00049 13.6173 9.07618C13.4346 9.15187 13.2784 9.28004 13.1685 9.44449C13.0586 9.60894 13 9.80228 13 10.0001C13 10.2653 13.1054 10.5196 13.2929 10.7072C13.4804 10.8947 13.7348 11.0001 14 11.0001ZM10 13.0001C9.80222 13.0001 9.60888 13.0587 9.44443 13.1686C9.27998 13.2785 9.15181 13.4347 9.07612 13.6174C9.00043 13.8001 8.98063 14.0012 9.01921 14.1952C9.0578 14.3891 9.15304 14.5673 9.29289 14.7072C9.43275 14.847 9.61093 14.9423 9.80491 14.9808C9.99889 15.0194 10.2 14.9996 10.3827 14.9239C10.5654 14.8483 10.7216 14.7201 10.8315 14.5556C10.9414 14.3912 11 14.1978 11 14.0001C11 13.7348 10.8946 13.4805 10.7071 13.293C10.5196 13.1054 10.2652 13.0001 10 13.0001ZM14 15.0001C14.1978 15.0001 14.3911 14.9414 14.5556 14.8315C14.72 14.7217 14.8482 14.5655 14.9239 14.3827C14.9996 14.2 15.0194 13.999 14.9808 13.805C14.9422 13.611 14.847 13.4328 14.7071 13.293C14.5673 13.1531 14.3891 13.0579 14.1951 13.0193C14.0011 12.9807 13.8 13.0005 13.6173 13.0762C13.4346 13.1519 13.2784 13.28 13.1685 13.4445C13.0586 13.6089 13 13.8023 13 14.0001C13 14.2653 13.1054 14.5196 13.2929 14.7072C13.4804 14.8947 13.7348 15.0001 14 15.0001ZM24 10.0001V14.0001C23.9984 15.3257 23.4711 16.5965 22.5338 17.5338C21.5964 18.4712 20.3256 18.9985 19 19.0001H5C3.67441 18.9985 2.40356 18.4712 1.46622 17.5338C0.528882 16.5965 0.00158786 15.3257 0 14.0001L0 10.0001C0.00158786 8.67447 0.528882 7.40362 1.46622 6.46628C2.40356 5.52894 3.67441 5.00165 5 5.00006H19C20.3256 5.00165 21.5964 5.52894 22.5338 6.46628C23.4711 7.40362 23.9984 8.67447 24 10.0001ZM7 7.00006V17.0001H17V7.00006H7ZM5 17.0001V7.00006C4.20435 7.00006 3.44129 7.31613 2.87868 7.87874C2.31607 8.44135 2 9.20441 2 10.0001V14.0001C2 14.7957 2.31607 15.5588 2.87868 16.1214C3.44129 16.684 4.20435 17.0001 5 17.0001ZM22 10.0001C22 9.20441 21.6839 8.44135 21.1213 7.87874C20.5587 7.31613 19.7956 7.00006 19 7.00006V17.0001C19.7956 17.0001 20.5587 16.684 21.1213 16.1214C21.6839 15.5588 22 14.7957 22 14.0001V10.0001Z" fill="#374957"/>
</g>
<defs>
<clipPath id="clip0_74_9141">
<rect width="24" height="24" fill="white"/>
</clipPath>
</defs>
</svg>
