<svg width="24" height="24" viewBox="0 0 24 24" fill="none" xmlns="http://www.w3.org/2000/svg">
<g clip-path="url(#clip0_74_8788)">
<path d="M23 18.9996V16.9996C22.9964 14.257 21.9692 11.6144 20.1196 9.58926C18.27 7.56412 15.7311 6.30223 13 6.05064V4.72264C13.3813 4.5025 13.6793 4.16271 13.8478 3.75595C14.0162 3.3492 14.0458 2.89821 13.9319 2.47295C13.8179 2.04768 13.5668 1.6719 13.2175 1.40388C12.8682 1.13586 12.4403 0.990585 12 0.990585C11.5597 0.990585 11.1318 1.13586 10.7825 1.40388C10.4332 1.6719 10.1821 2.04768 10.0681 2.47295C9.9542 2.89821 9.98376 3.3492 10.1522 3.75595C10.3207 4.16271 10.6187 4.5025 11 4.72264V6.05064C8.26889 6.30223 5.73002 7.56412 3.88041 9.58926C2.0308 11.6144 1.00363 14.257 1 16.9996V18.9996C0.734784 18.9996 0.48043 19.105 0.292893 19.2925C0.105357 19.4801 0 19.7344 0 19.9996C0 20.2649 0.105357 20.5192 0.292893 20.7067C0.48043 20.8943 0.734784 20.9996 1 20.9996H23C23.2652 20.9996 23.5196 20.8943 23.7071 20.7067C23.8946 20.5192 24 20.2649 24 19.9996C24 19.7344 23.8946 19.4801 23.7071 19.2925C23.5196 19.105 23.2652 18.9996 23 18.9996ZM3 16.9996C3.473 5.06564 20.531 5.07464 21 16.9996V18.9996H3V16.9996Z" fill="#374957"/>
</g>
<defs>
<clipPath id="clip0_74_8788">
<rect width="24" height="24" fill="white"/>
</clipPath>
</defs>
</svg>
