<svg width="24" height="24" viewBox="0 0 24 24" fill="none" xmlns="http://www.w3.org/2000/svg">
<g clip-path="url(#clip0_74_8867)">
<path d="M11.9988 12C12.79 12 13.5633 11.7654 14.2211 11.3259C14.8789 10.8863 15.3916 10.2616 15.6944 9.53073C15.9971 8.79982 16.0763 7.99556 15.922 7.21963C15.7676 6.44371 15.3867 5.73098 14.8273 5.17157C14.2679 4.61215 13.5551 4.23119 12.7792 4.07685C12.0033 3.92251 11.199 4.00172 10.4681 4.30447C9.7372 4.60722 9.11248 5.11992 8.67296 5.77771C8.23343 6.43551 7.99884 7.20887 7.99884 7.99999C7.99884 9.06086 8.42026 10.0783 9.17041 10.8284C9.92055 11.5786 10.938 12 11.9988 12ZM11.9988 5.99999C12.3944 5.99999 12.7811 6.11729 13.11 6.33705C13.4389 6.55682 13.6952 6.86917 13.8466 7.23463C13.998 7.60008 14.0376 8.00221 13.9604 8.39017C13.8832 8.77814 13.6928 9.1345 13.413 9.41421C13.1333 9.69391 12.777 9.88439 12.389 9.96156C12.0011 10.0387 11.5989 9.99913 11.2335 9.84775C10.868 9.69638 10.5557 9.44003 10.3359 9.11113C10.1161 8.78223 9.99884 8.39555 9.99884 7.99999C9.99884 7.46956 10.2095 6.96085 10.5846 6.58578C10.9597 6.21071 11.4684 5.99999 11.9988 5.99999ZM20.6588 9.15699L19.9398 8.91799C20.0692 7.79792 19.9604 6.66314 19.6204 5.58808C19.2805 4.51302 18.7172 3.52196 17.9673 2.67988C17.2175 1.83781 16.2982 1.16375 15.2696 0.701906C14.241 0.24006 13.1264 0.000859852 11.9988 -7.62939e-06C10.8566 0.00043334 9.72771 0.245686 8.68825 0.719227C7.64879 1.19277 6.7229 1.8836 5.97296 2.74517C5.22302 3.60674 4.66645 4.61904 4.34075 5.71386C4.01505 6.80868 3.92778 7.9606 4.08484 9.09199C3.12787 9.27043 2.24296 9.72191 1.53684 10.392C1.04801 10.8567 0.659405 11.4166 0.394913 12.037C0.130422 12.6575 -0.00436608 13.3255 -0.001165 14V18.075C0.0009366 19.1563 0.352627 20.208 1.00143 21.073C1.65022 21.9381 2.56135 22.5702 3.59884 22.875L6.46884 23.775C6.9509 23.925 7.45297 24.0009 7.95784 24C8.41583 23.9994 8.87163 23.9368 9.31284 23.814L15.0928 22.104C15.6078 21.9635 16.1509 21.9635 16.6658 22.104L19.0528 22.904C19.6411 23.0472 20.2543 23.055 20.846 22.9267C21.4377 22.7985 21.9926 22.5376 22.4689 22.1637C22.9451 21.7898 23.3303 21.3127 23.5953 20.7683C23.8603 20.2239 23.9983 19.6265 23.9988 19.021V13.872C23.9966 12.8374 23.6744 11.8288 23.0764 10.9845C22.4785 10.1402 21.634 9.50154 20.6588 9.15599V9.15699ZM7.75684 3.76199C8.31309 3.20348 8.97417 2.76031 9.70212 2.45792C10.4301 2.15553 11.2106 1.99987 11.9988 1.99987C12.7871 1.99987 13.5676 2.15553 14.2956 2.45792C15.0235 2.76031 15.6846 3.20348 16.2408 3.76199C17.363 4.89114 17.9938 6.41781 17.9958 8.00973C17.9979 9.60165 17.3711 11.1299 16.2518 12.262L12.6988 15.717C12.5134 15.8988 12.264 16.0007 12.0043 16.0007C11.7446 16.0007 11.4953 15.8988 11.3098 15.717L7.75684 12.277C6.63231 11.1454 6.00114 9.61483 6.00114 8.01949C6.00114 6.42415 6.63231 4.8936 7.75684 3.76199ZM21.9988 19.021C21.9994 19.3239 21.931 19.6229 21.7986 19.8953C21.6662 20.1677 21.4734 20.4063 21.2348 20.593C21.0094 20.7742 20.7469 20.9035 20.4659 20.9718C20.1849 21.0401 19.8922 21.0456 19.6088 20.988L17.2638 20.2C16.3768 19.9452 15.4368 19.9396 14.5468 20.184L8.76284 21.892C8.20711 22.0453 7.61899 22.0352 7.06884 21.863L4.17484 20.963C3.54849 20.7819 2.99779 20.4025 2.60543 19.8817C2.21307 19.361 2.00022 18.727 1.99884 18.075V14C1.99659 13.5958 2.07704 13.1954 2.23526 12.8234C2.39347 12.4514 2.6261 12.1157 2.91884 11.837C3.37709 11.4003 3.96085 11.1183 4.58784 11.031C4.99094 12.0302 5.59122 12.9379 6.35284 13.7L9.91984 17.153C10.4773 17.6989 11.2266 18.0046 12.0068 18.0046C12.7871 18.0046 13.5363 17.6989 14.0938 17.153L17.6568 13.69C18.4546 12.889 19.0726 11.9274 19.4698 10.869L20.0068 11.047C20.5892 11.2557 21.093 11.6389 21.4495 12.1445C21.806 12.6501 21.9978 13.2534 21.9988 13.872V19.021Z" fill="#374957"/>
</g>
<defs>
<clipPath id="clip0_74_8867">
<rect width="24" height="24" fill="white"/>
</clipPath>
</defs>
</svg>
