<svg width="24" height="24" viewBox="0 0 24 24" fill="none" xmlns="http://www.w3.org/2000/svg">
<g clip-path="url(#clip0_74_8785)">
<path d="M23.1939 11.6002C22.6625 10.8907 21.9076 10.3809 21.0509 10.1532C21.4684 8.93942 21.777 7.69082 21.9729 6.42223C22.0369 5.9611 21.993 5.4914 21.8446 5.05012C21.6962 4.60884 21.4475 4.20801 21.1179 3.87921C20.7883 3.5504 20.3869 3.30258 19.9453 3.15526C19.5036 3.00794 19.0338 2.96514 18.5729 3.03023C18.4469 3.04723 18.0729 3.10223 17.5619 3.20123C17.8783 2.50069 18.0282 1.7364 17.9999 0.968232C17.9957 0.83691 17.9656 0.707702 17.9115 0.587985C17.8574 0.468267 17.7802 0.360385 17.6843 0.270498C17.5885 0.180611 17.4759 0.110479 17.353 0.0641067C17.23 0.0177344 17.0992 -0.00397025 16.9679 0.000232055C16.8365 0.00443436 16.7073 0.0344613 16.5876 0.0885984C16.4679 0.142736 16.36 0.219923 16.2701 0.315753C16.1802 0.411583 16.1101 0.524179 16.0637 0.647113C16.0174 0.770047 15.9957 0.90091 15.9999 1.03223C16.0169 1.5153 15.9178 1.99541 15.7109 2.43223C15.5662 2.04189 15.3599 1.67726 15.0999 1.35223C14.6578 0.849129 14.0967 0.464883 13.4678 0.234635C12.8389 0.00438756 12.1623 -0.0645139 11.4999 0.0342321C10.7735 0.0925331 10.0793 0.358428 9.49986 0.800232C8.8448 0.307426 8.05232 0.0312622 7.23286 0.0102321C6.19304 -0.0905475 5.15566 0.224802 4.34786 0.887232C3.93768 1.2524 3.60652 1.69759 3.3747 2.19544C3.14289 2.69329 3.01533 3.23328 2.99986 3.78223C2.97241 4.66125 3.22834 5.5258 3.72986 6.24823C3.11976 6.77133 2.64616 7.43508 2.34998 8.18216C2.05379 8.92924 1.94392 9.73719 2.02986 10.5362C1.23901 10.9769 0.622698 11.6749 0.283264 12.5142C-0.0561706 13.3535 -0.0983059 14.2837 0.163855 15.1502C0.848864 17.5337 2.12383 19.706 3.87086 21.4662C5.54686 23.1005 7.798 24.0105 10.1389 24.0002H13.8609C16.2014 24.0107 18.4523 23.1006 20.1279 21.4662C21.8755 19.7064 23.1509 17.534 23.8359 15.1502C24.0144 14.5496 24.0493 13.9154 23.9378 13.2987C23.8263 12.6821 23.5715 12.1003 23.1939 11.6002ZM18.8509 5.01023C19.0056 4.98935 19.1631 5.00453 19.311 5.05458C19.4589 5.10464 19.5933 5.18821 19.7036 5.29878C19.8138 5.40934 19.897 5.54391 19.9467 5.69196C19.9964 5.84001 20.0111 5.99753 19.9899 6.15223C19.7801 7.46542 19.4401 8.75445 18.9749 10.0002H16.4139L17.7069 8.70723C17.889 8.51863 17.9898 8.26603 17.9875 8.00383C17.9853 7.74163 17.8801 7.49082 17.6947 7.30541C17.5093 7.12001 17.2585 7.01484 16.9963 7.01256C16.7341 7.01028 16.4815 7.11108 16.2929 7.29323L13.5859 10.0002H12.0369C11.9638 9.47428 12.014 8.93855 12.1833 8.43529C12.3527 7.93203 12.6367 7.475 13.0129 7.10023C13.4399 6.66923 15.0769 5.50023 18.8509 5.01023ZM4.99986 3.84923C5.00587 3.57393 5.06794 3.30274 5.18227 3.05223C5.29661 2.80172 5.46081 2.57715 5.66486 2.39223C6.07743 2.08728 6.58997 1.94941 7.09986 2.00623C7.34614 1.99611 7.59178 2.03818 7.82065 2.12969C8.04952 2.22121 8.25645 2.36009 8.42786 2.53723C8.56279 2.688 8.72801 2.80859 8.91274 2.89113C9.09746 2.97367 9.29753 3.0163 9.49986 3.01623C9.70171 3.01524 9.90111 2.97181 10.0851 2.88877C10.2691 2.80574 10.4336 2.68494 10.5679 2.53423C10.717 2.37646 10.896 2.24988 11.0944 2.16182C11.2929 2.07375 11.5068 2.02597 11.7239 2.02123C12.0544 1.96235 12.3944 1.98634 12.7134 2.09105C13.0324 2.19576 13.3205 2.37792 13.5519 2.62123C13.8554 3.00988 14.0139 3.49227 13.9999 3.98523C13.9999 4.05023 13.9999 4.19223 13.9999 4.19223C12.6724 4.67026 11.5384 5.57064 10.7719 6.75523C10.1404 6.00771 9.30023 5.46564 8.35889 5.19841C7.41755 4.93119 6.41788 4.95097 5.48786 5.25523C5.156 4.86356 4.98201 4.36228 4.99986 3.84923ZM3.99986 10.0002C3.99986 9.20458 4.31593 8.44152 4.87854 7.87891C5.44114 7.3163 6.20421 7.00023 6.99986 7.00023C7.79551 7.00023 8.55857 7.3163 9.12118 7.87891C9.68379 8.44152 9.99986 9.20458 9.99986 10.0002H3.99986ZM21.9159 14.5892C21.3184 16.6464 20.2187 18.5227 18.7159 20.0492C17.4164 21.3117 15.6726 22.0125 13.8609 22.0002H10.1389C8.32664 22.0121 6.58232 21.3114 5.28186 20.0492C3.77894 18.5227 2.67927 16.6464 2.08186 14.5892C1.99221 14.2865 1.97482 13.9669 2.03109 13.6562C2.08736 13.3455 2.21572 13.0523 2.40585 12.8002C2.59034 12.5514 2.8307 12.3493 3.10757 12.2104C3.38444 12.0714 3.69008 11.9994 3.99986 12.0002H19.9999C20.3106 11.9985 20.6175 12.07 20.8955 12.209C21.1734 12.348 21.4148 12.5506 21.5999 12.8002C21.7886 13.053 21.9156 13.3465 21.9704 13.6572C22.0253 13.9679 22.0066 14.2871 21.9159 14.5892Z" fill="#374957"/>
</g>
<defs>
<clipPath id="clip0_74_8785">
<rect width="24" height="24" fill="white"/>
</clipPath>
</defs>
</svg>
