<svg width="24" height="24" viewBox="0 0 24 24" fill="none" xmlns="http://www.w3.org/2000/svg">
<g clip-path="url(#clip0_74_9145)">
<path d="M17.7622 24C9.63124 24.275 -5.01674 9.74498 1.78425 1.86697L2.93425 0.866975C3.51637 0.30424 4.29666 -0.00664765 5.10627 0.00158695C5.91588 0.00982154 6.68969 0.336516 7.26024 0.910975C7.29108 0.942379 7.31981 0.975785 7.34624 1.01097L9.14624 3.34998C9.69326 3.92881 9.9972 4.69555 9.99534 5.49197C9.99348 6.28839 9.68596 7.0537 9.13624 7.62998L7.97824 9.08598C8.61936 10.643 9.56166 12.0582 10.7511 13.2502C11.9405 14.4421 13.3536 15.3875 14.9092 16.032L16.3732 14.867C16.957 14.3308 17.7204 14.0328 18.5131 14.0317C19.3057 14.0306 20.07 14.3265 20.6552 14.861L22.9952 16.661C23.0302 16.6873 23.0636 16.7157 23.0952 16.746C23.6723 17.3284 23.9961 18.1151 23.9961 18.935C23.9961 19.7549 23.6723 20.5416 23.0952 21.124L22.1842 22.174C21.6064 22.7581 20.9174 23.2207 20.1579 23.5343C19.3985 23.8479 18.5839 24.0062 17.7622 24ZM5.07125 1.99997C4.92754 1.99986 4.78522 2.02807 4.65241 2.08297C4.51961 2.13788 4.39892 2.21841 4.29725 2.31997L3.14625 3.31998C-2.49975 10.108 14.7772 26.423 20.7202 20.808L21.6322 19.757C21.7406 19.6605 21.8289 19.5435 21.8919 19.4128C21.9549 19.282 21.9914 19.1401 21.9993 18.9952C22.0072 18.8503 21.9863 18.7052 21.9379 18.5684C21.8895 18.4316 21.8145 18.3057 21.7172 18.198L19.3902 16.411C19.3546 16.3848 19.3211 16.3557 19.2902 16.324C19.0816 16.1252 18.8044 16.0143 18.5162 16.0143C18.228 16.0143 17.9509 16.1252 17.7422 16.324C17.7157 16.3509 17.6876 16.3762 17.6582 16.4L15.7002 17.96C15.5643 18.0682 15.4025 18.1391 15.2309 18.1657C15.0592 18.1924 14.8836 18.1739 14.7212 18.112C12.7054 17.361 10.8745 16.1855 9.35254 14.6652C7.83063 13.1448 6.65328 11.3151 5.90024 9.29998C5.83358 9.13535 5.81197 8.95593 5.83763 8.78018C5.86329 8.60442 5.93529 8.43867 6.04624 8.29998L7.60024 6.34398C7.62336 6.31435 7.64841 6.28628 7.67524 6.25998C7.87951 6.05396 7.99412 5.77559 7.99412 5.48548C7.99412 5.19536 7.87951 4.91699 7.67524 4.71098C7.64408 4.67988 7.61533 4.64645 7.58924 4.61098L5.80625 2.28697C5.60478 2.10494 5.34277 2.00442 5.07125 2.00498V1.99997ZM22.5642 12.576C27.5542 5.23098 18.7642 -3.55003 11.4272 1.43897C11.3166 1.51285 11.2218 1.60805 11.1484 1.71902C11.075 1.82999 11.0245 1.95448 10.9999 2.08521C10.9752 2.21594 10.9768 2.35028 11.0047 2.48036C11.0326 2.61044 11.0862 2.73365 11.1623 2.84276C11.2385 2.95188 11.3356 3.04471 11.448 3.11582C11.5605 3.18692 11.686 3.23488 11.8172 3.25688C11.9484 3.27888 12.0826 3.27447 12.2121 3.24392C12.3416 3.21338 12.4637 3.1573 12.5712 3.07898C18.0452 -0.680025 24.6812 5.96298 20.9242 11.433C20.8442 11.5404 20.7866 11.6629 20.7548 11.793C20.723 11.9231 20.7177 12.0583 20.7392 12.1906C20.7607 12.3228 20.8085 12.4494 20.8798 12.5628C20.9512 12.6762 21.0446 12.7741 21.1545 12.8507C21.2644 12.9273 21.3886 12.981 21.5196 13.0087C21.6507 13.0364 21.786 13.0374 21.9175 13.0118C22.049 12.9862 22.174 12.9344 22.2851 12.8595C22.3962 12.7847 22.4911 12.6882 22.5642 12.576ZM18.7062 10.711C18.8937 10.5234 18.999 10.2691 18.999 10.004C18.999 9.73881 18.8937 9.4845 18.7062 9.29698L17.0002 7.58998V4.99998C17.0002 4.73476 16.8949 4.4804 16.7073 4.29287C16.5198 4.10533 16.2654 3.99998 16.0002 3.99998C15.735 3.99998 15.4807 4.10533 15.2931 4.29287C15.1056 4.4804 15.0002 4.73476 15.0002 4.99998V7.99998C15.0003 8.26517 15.1057 8.51948 15.2932 8.70698L17.2932 10.707C17.4808 10.8944 17.7351 10.9998 18.0002 10.9998C18.2654 10.9998 18.5197 10.8944 18.7072 10.707L18.7062 10.711Z" fill="#374957"/>
</g>
<defs>
<clipPath id="clip0_74_9145">
<rect width="24" height="24" fill="white"/>
</clipPath>
</defs>
</svg>
