<svg width="24" height="24" viewBox="0 0 24 24" fill="none" xmlns="http://www.w3.org/2000/svg">
<path d="M14.9998 16.9999C14.9998 17.2651 14.8945 17.5195 14.7069 17.707C14.5194 17.8945 14.2651 17.9999 13.9998 17.9999H9.99984C9.73462 17.9999 9.48027 17.8945 9.29273 17.707C9.10519 17.5195 8.99984 17.2651 8.99984 16.9999C8.99984 16.7347 9.10519 16.4803 9.29273 16.2928C9.48027 16.1052 9.73462 15.9999 9.99984 15.9999H13.9998C14.2651 15.9999 14.5194 16.1052 14.7069 16.2928C14.8945 16.4803 14.9998 16.7347 14.9998 16.9999ZM14.7068 7.2929C14.5193 7.10543 14.265 7.00011 13.9998 7.00011C13.7347 7.00011 13.4804 7.10543 13.2928 7.2929L11.9998 8.5859L10.7068 7.2929C10.6146 7.19739 10.5042 7.12121 10.3822 7.0688C10.2602 7.01639 10.129 6.9888 9.99624 6.98765C9.86346 6.98649 9.73178 7.0118 9.60888 7.06208C9.48599 7.11236 9.37434 7.18661 9.28044 7.2805C9.18655 7.3744 9.1123 7.48605 9.06202 7.60894C9.01173 7.73184 8.98643 7.86352 8.98759 7.9963C8.98874 8.12908 9.01633 8.2603 9.06874 8.3823C9.12114 8.5043 9.19733 8.61465 9.29284 8.7069L10.5858 9.99989L9.29284 11.2929C9.19733 11.3851 9.12114 11.4955 9.06874 11.6175C9.01633 11.7395 8.98874 11.8707 8.98759 12.0035C8.98643 12.1363 9.01173 12.2679 9.06202 12.3908C9.1123 12.5137 9.18655 12.6254 9.28044 12.7193C9.37434 12.8132 9.48599 12.8874 9.60888 12.9377C9.73178 12.988 9.86346 13.0133 9.99624 13.0121C10.129 13.011 10.2602 12.9834 10.3822 12.931C10.5042 12.8786 10.6146 12.8024 10.7068 12.7069L11.9998 11.4139L13.2928 12.7069C13.4814 12.889 13.734 12.9898 13.9962 12.9876C14.2584 12.9853 14.5092 12.8801 14.6947 12.6947C14.8801 12.5093 14.9852 12.2585 14.9875 11.9963C14.9898 11.7341 14.889 11.4815 14.7068 11.2929L13.4138 9.99989L14.7068 8.7069C14.8943 8.51937 14.9996 8.26506 14.9996 7.9999C14.9996 7.73473 14.8943 7.48043 14.7068 7.2929ZM21.9998 15.9999H17.9998C17.7346 15.9999 17.4803 16.1052 17.2927 16.2928C17.1052 16.4803 16.9998 16.7347 16.9998 16.9999C16.9998 17.2651 17.1052 17.5195 17.2927 17.707C17.4803 17.8945 17.7346 17.9999 17.9998 17.9999H21.9998C22.2651 17.9999 22.5194 17.8945 22.7069 17.707C22.8945 17.5195 22.9998 17.2651 22.9998 16.9999C22.9998 16.7347 22.8945 16.4803 22.7069 16.2928C22.5194 16.1052 22.2651 15.9999 21.9998 15.9999ZM21.4138 9.99989L22.7068 8.7069C22.8023 8.61465 22.8785 8.5043 22.9309 8.3823C22.9833 8.2603 23.0109 8.12908 23.0121 7.9963C23.0132 7.86352 22.9879 7.73184 22.9377 7.60894C22.8874 7.48605 22.8131 7.3744 22.7192 7.2805C22.6253 7.18661 22.5137 7.11236 22.3908 7.06208C22.2679 7.0118 22.1362 6.98649 22.0034 6.98765C21.8707 6.9888 21.7394 7.01639 21.6174 7.0688C21.4954 7.12121 21.3851 7.19739 21.2928 7.2929L19.9998 8.5859L18.7068 7.2929C18.6146 7.19739 18.5042 7.12121 18.3822 7.0688C18.2602 7.01639 18.129 6.9888 17.9962 6.98765C17.8635 6.98649 17.7318 7.0118 17.6089 7.06208C17.486 7.11236 17.3743 7.18661 17.2804 7.2805C17.1866 7.3744 17.1123 7.48605 17.062 7.60894C17.0117 7.73184 16.9864 7.86352 16.9876 7.9963C16.9887 8.12908 17.0163 8.2603 17.0687 8.3823C17.1211 8.5043 17.1973 8.61465 17.2928 8.7069L18.5858 9.99989L17.2928 11.2929C17.1973 11.3851 17.1211 11.4955 17.0687 11.6175C17.0163 11.7395 16.9887 11.8707 16.9876 12.0035C16.9864 12.1363 17.0117 12.2679 17.062 12.3908C17.1123 12.5137 17.1866 12.6254 17.2804 12.7193C17.3743 12.8132 17.486 12.8874 17.6089 12.9377C17.7318 12.988 17.8635 13.0133 17.9962 13.0121C18.129 13.011 18.2602 12.9834 18.3822 12.931C18.5042 12.8786 18.6146 12.8024 18.7068 12.7069L19.9998 11.4139L21.2928 12.7069C21.4814 12.889 21.734 12.9898 21.9962 12.9876C22.2584 12.9853 22.5092 12.8801 22.6947 12.6947C22.8801 12.5093 22.9852 12.2585 22.9875 11.9963C22.9898 11.7341 22.889 11.4815 22.7068 11.2929L21.4138 9.99989ZM5.99984 15.9999H1.99984C1.73462 15.9999 1.48027 16.1052 1.29273 16.2928C1.10519 16.4803 0.999837 16.7347 0.999837 16.9999C0.999837 17.2651 1.10519 17.5195 1.29273 17.707C1.48027 17.8945 1.73462 17.9999 1.99984 17.9999H5.99984C6.26505 17.9999 6.51941 17.8945 6.70694 17.707C6.89448 17.5195 6.99984 17.2651 6.99984 16.9999C6.99984 16.7347 6.89448 16.4803 6.70694 16.2928C6.51941 16.1052 6.26505 15.9999 5.99984 15.9999ZM6.70684 7.2929C6.51931 7.10543 6.265 7.00011 5.99984 7.00011C5.73467 7.00011 5.48036 7.10543 5.29284 7.2929L3.99984 8.5859L2.70684 7.2929C2.61459 7.19739 2.50425 7.12121 2.38224 7.0688C2.26024 7.01639 2.12902 6.9888 1.99624 6.98765C1.86346 6.98649 1.73178 7.0118 1.60888 7.06208C1.48599 7.11236 1.37433 7.18661 1.28044 7.2805C1.18655 7.3744 1.1123 7.48605 1.06202 7.60894C1.01173 7.73184 0.986433 7.86352 0.987587 7.9963C0.98874 8.12908 1.01633 8.2603 1.06874 8.3823C1.12114 8.5043 1.19733 8.61465 1.29284 8.7069L2.58584 9.99989L1.29284 11.2929C1.19733 11.3851 1.12114 11.4955 1.06874 11.6175C1.01633 11.7395 0.98874 11.8707 0.987587 12.0035C0.986433 12.1363 1.01173 12.2679 1.06202 12.3908C1.1123 12.5137 1.18655 12.6254 1.28044 12.7193C1.37433 12.8132 1.48599 12.8874 1.60888 12.9377C1.73178 12.988 1.86346 13.0133 1.99624 13.0121C2.12902 13.011 2.26024 12.9834 2.38224 12.931C2.50425 12.8786 2.61459 12.8024 2.70684 12.7069L3.99984 11.4139L5.29284 12.7069C5.38508 12.8024 5.49543 12.8786 5.61743 12.931C5.73944 12.9834 5.87066 13.011 6.00344 13.0121C6.13621 13.0133 6.26789 12.988 6.39079 12.9377C6.51369 12.8874 6.62534 12.8132 6.71923 12.7193C6.81312 12.6254 6.88738 12.5137 6.93766 12.3908C6.98794 12.2679 7.01324 12.1363 7.01209 12.0035C7.01093 11.8707 6.98335 11.7395 6.93094 11.6175C6.87853 11.4955 6.80235 11.3851 6.70684 11.2929L5.41384 9.99989L6.70684 8.7069C6.89431 8.51937 6.99962 8.26506 6.99962 7.9999C6.99962 7.73473 6.89431 7.48043 6.70684 7.2929Z" fill="#374957"/>
</svg>
