<svg width="24" height="24" viewBox="0 0 24 24" fill="none" xmlns="http://www.w3.org/2000/svg">
<g clip-path="url(#clip0_74_8865)">
<path d="M22.0001 5.99999H19.0001C18.7348 5.99999 18.4805 6.10535 18.293 6.29289C18.1054 6.48042 18.0001 6.73478 18.0001 6.99999C18.0001 7.26521 18.1054 7.51956 18.293 7.7071C18.4805 7.89464 18.7348 7.99999 19.0001 7.99999H20.5861L17.1861 11.4C16.234 10.6841 15.1138 10.225 13.9331 10.067C13.7747 8.88699 13.3157 7.76751 12.6001 6.81599L16.0001 3.41599V4.99999C16.0001 5.26521 16.1054 5.51956 16.293 5.7071C16.4805 5.89464 16.7348 5.99999 17.0001 5.99999C17.2653 5.99999 17.5196 5.89464 17.7072 5.7071C17.8947 5.51956 18.0001 5.26521 18.0001 4.99999V1.99999C18.0001 1.46956 17.7894 0.960852 17.4143 0.585779C17.0392 0.210706 16.5305 -7.62939e-06 16.0001 -7.62939e-06L13.0001 -7.62939e-06C12.7348 -7.62939e-06 12.4805 0.105349 12.293 0.292886C12.1054 0.480422 12.0001 0.734776 12.0001 0.999992C12.0001 1.26521 12.1054 1.51956 12.293 1.7071C12.4805 1.89464 12.7348 1.99999 13.0001 1.99999H14.5861L11.1861 5.39999C10.3306 4.76012 9.33981 4.32477 8.28988 4.12735C7.23995 3.92993 6.15874 3.9757 5.12925 4.26114C4.09975 4.54658 3.14935 5.06409 2.35097 5.77397C1.55259 6.48385 0.927479 7.36722 0.523604 8.35626C0.119729 9.34531 -0.0521676 10.4137 0.0211082 11.4796C0.0943839 12.5454 0.410884 13.5802 0.946315 14.5047C1.48175 15.4292 2.22187 16.2187 3.10989 16.8126C3.9979 17.4066 5.01019 17.7891 6.06906 17.931C6.20696 18.9939 6.58707 20.0109 7.18011 20.9036C7.77315 21.7964 8.56328 22.5411 9.48957 23.0802C10.4159 23.6194 11.4536 23.9386 12.5228 24.0133C13.5919 24.0881 14.664 23.9163 15.6563 23.5113C16.6486 23.1062 17.5346 22.4787 18.2461 21.6772C18.9576 20.8756 19.4755 19.9213 19.7599 18.888C20.0443 17.8546 20.0877 16.7698 19.8866 15.717C19.6855 14.6643 19.2453 13.6718 18.6001 12.816L22.0001 9.41599V11C22.0001 11.2652 22.1054 11.5196 22.293 11.7071C22.4805 11.8946 22.7348 12 23.0001 12C23.2653 12 23.5196 11.8946 23.7072 11.7071C23.8947 11.5196 24.0001 11.2652 24.0001 11V7.99999C24.0001 7.46956 23.7894 6.96085 23.4143 6.58578C23.0392 6.21071 22.5305 5.99999 22.0001 5.99999ZM2.00006 11C2.00006 10.0111 2.29331 9.04439 2.84271 8.22214C3.39212 7.3999 4.17301 6.75903 5.08665 6.3806C6.00028 6.00216 7.00561 5.90314 7.97551 6.09607C8.94542 6.28899 9.83633 6.7652 10.5356 7.46446C11.2349 8.16372 11.7111 9.05464 11.904 10.0245C12.0969 10.9944 11.9979 11.9998 11.6195 12.9134C11.241 13.827 10.6002 14.6079 9.77791 15.1573C8.95567 15.7067 7.98897 16 7.00006 16C5.67447 15.9984 4.40362 15.4711 3.46628 14.5338C2.52894 13.5964 2.00165 12.3256 2.00006 11ZM13.0001 22C11.8327 21.9978 10.7029 21.5873 9.80653 20.8396C8.91011 20.0918 8.30358 19.054 8.09206 17.906C9.55027 17.6734 10.8977 16.9859 11.9418 15.9417C12.986 14.8976 13.6734 13.5502 13.9061 12.092C15.1324 12.317 16.2303 12.9925 16.9839 13.9857C17.7376 14.979 18.0925 16.2182 17.979 17.4598C17.8654 18.7015 17.2916 19.8558 16.3703 20.6959C15.4491 21.536 14.2469 22.0012 13.0001 22Z" fill="#374957"/>
</g>
<defs>
<clipPath id="clip0_74_8865">
<rect width="24" height="24" fill="white"/>
</clipPath>
</defs>
</svg>
