<svg width="24" height="24" viewBox="0 0 24 24" fill="none" xmlns="http://www.w3.org/2000/svg">
<g clip-path="url(#clip0_74_8772)">
<path d="M10.9999 22.9994C10.9999 22.8016 11.0585 22.6083 11.1684 22.4438C11.2783 22.2794 11.4345 22.1512 11.6172 22.0755C11.7999 21.9998 12.001 21.98 12.195 22.0186C12.389 22.0572 12.5671 22.1524 12.707 22.2923C12.8469 22.4321 12.9421 22.6103 12.9807 22.8043C13.0193 22.9983 12.9995 23.1993 12.9238 23.3821C12.8481 23.5648 12.7199 23.721 12.5555 23.8309C12.391 23.9407 12.1977 23.9994 11.9999 23.9994C11.7347 23.9994 11.4803 23.894 11.2928 23.7065C11.1052 23.519 10.9999 23.2646 10.9999 22.9994ZM15.5349 20.8774C15.7224 20.6899 15.8277 20.4356 15.8277 20.1704C15.8277 19.9052 15.7224 19.6509 15.5349 19.4634C14.5973 18.526 13.3257 17.9995 11.9999 17.9995C10.6741 17.9995 9.40253 18.526 8.46489 19.4634C8.28273 19.652 8.18194 19.9046 8.18422 20.1668C8.18649 20.429 8.29166 20.6798 8.47707 20.8652C8.66248 21.0506 8.91329 21.1558 9.17549 21.1581C9.43769 21.1603 9.69029 21.0595 9.87889 20.8774C10.4506 20.3324 11.2101 20.0284 11.9999 20.0284C12.7897 20.0284 13.5492 20.3324 14.1209 20.8774C14.3084 21.0649 14.5627 21.1702 14.8279 21.1702C15.0931 21.1702 15.3474 21.0649 15.5349 20.8774ZM18.3639 18.0494C18.5514 17.8619 18.6567 17.6076 18.6567 17.3424C18.6567 17.0772 18.5514 16.8229 18.3639 16.6354C16.6748 14.95 14.386 14.0034 11.9999 14.0034C9.61373 14.0034 7.32502 14.95 5.63589 16.6354C5.45373 16.824 5.35294 17.0766 5.35522 17.3388C5.35749 17.601 5.46266 17.8518 5.64807 18.0372C5.83348 18.2226 6.08429 18.3278 6.34649 18.3301C6.60869 18.3323 6.86129 18.2315 7.04989 18.0494C8.36409 16.7392 10.1441 16.0034 11.9999 16.0034C13.8556 16.0034 15.6357 16.7392 16.9499 18.0494C17.1374 18.2369 17.3917 18.3422 17.6569 18.3422C17.9221 18.3422 18.1764 18.2369 18.3639 18.0494ZM5.98689 22.1604C6.00804 22.0308 6.00345 21.8983 5.97338 21.7704C5.94332 21.6426 5.88837 21.5219 5.81166 21.4153C5.73496 21.3087 5.63801 21.2183 5.52635 21.1491C5.41469 21.08 5.29051 21.0335 5.16089 21.0124C4.40525 20.8929 3.7031 20.5486 3.14589 20.0244C2.58868 19.5002 2.20224 18.8203 2.03689 18.0734C1.92929 17.3591 2.04706 16.6291 2.37381 15.9849C2.70055 15.3408 3.22002 14.8145 3.85989 14.4794C4.32051 14.2266 4.66318 13.8028 4.81381 13.2994C4.96444 12.796 4.91095 12.2536 4.66489 11.7894C4.27605 11.0489 4.04634 10.2352 3.9905 9.40066C3.93465 8.56611 4.05391 7.7291 4.34062 6.94337C4.62733 6.15763 5.07515 5.44051 5.65534 4.83805C6.23554 4.23559 6.93529 3.76109 7.70967 3.445C8.48406 3.12891 9.31598 2.97823 10.152 3.00261C10.9881 3.027 11.8098 3.22592 12.5645 3.5866C13.3191 3.94729 13.99 4.46177 14.5341 5.09702C15.0782 5.73228 15.4835 6.47428 15.7239 7.27539C15.8719 7.7581 16.1355 8.19735 16.4919 8.55497C16.8483 8.91259 17.2867 9.17774 17.7689 9.32739C19.0753 9.72508 20.2059 10.5585 20.9723 11.6887C21.7388 12.8189 22.0947 14.1776 21.9809 15.5384C21.8915 16.5603 21.5273 17.539 20.927 18.3708C20.3267 19.2026 19.5126 19.8566 18.5709 20.2634C18.3377 20.381 18.1597 20.5851 18.0751 20.8321C17.9904 21.0792 18.0058 21.3496 18.1178 21.5854C18.2299 21.8213 18.4298 22.004 18.6748 22.0945C18.9198 22.1849 19.1904 22.1759 19.4289 22.0694C20.6917 21.516 21.7812 20.631 22.5817 19.5085C23.3823 18.3859 23.864 17.0676 23.9759 15.6934C24.1269 13.8791 23.6514 12.0678 22.6288 10.5616C21.6061 9.05542 20.098 7.94531 18.3559 7.41639C18.1843 7.36308 18.0286 7.26817 17.9027 7.1401C17.7767 7.01204 17.6844 6.85479 17.6339 6.68239C17.1045 4.98247 16.0232 3.50773 14.5611 2.49168C13.099 1.47563 11.3398 0.976338 9.56198 1.07287C7.78415 1.1694 6.08933 1.85623 4.74588 3.02461C3.40242 4.19299 2.48712 5.77614 2.14489 7.52339C1.7953 9.29128 2.07029 11.1257 2.92289 12.7134C1.9179 13.2389 1.10175 14.0646 0.588062 15.0757C0.0743713 16.0868 -0.111302 17.2328 0.0568893 18.3544C0.285373 19.5225 0.866154 20.5926 1.72109 21.4207C2.57602 22.2488 3.66409 22.7952 4.83889 22.9864C4.96851 23.0075 5.10102 23.0029 5.22886 22.9729C5.3567 22.9428 5.47737 22.8879 5.58397 22.8112C5.69057 22.7345 5.78102 22.6375 5.85016 22.5259C5.91929 22.4142 5.96575 22.29 5.98689 22.1604Z" fill="#374957"/>
</g>
<defs>
<clipPath id="clip0_74_8772">
<rect width="24" height="24" fill="white"/>
</clipPath>
</defs>
</svg>
