<svg width="24" height="24" viewBox="0 0 24 24" fill="none" xmlns="http://www.w3.org/2000/svg">
<g clip-path="url(#clip0_74_8992)">
<path d="M20.0002 12C19.3867 11.9999 18.7814 12.1411 18.2313 12.4127C17.6812 12.6843 17.2011 13.0789 16.8282 13.566L16.7582 13.536C17.0332 12.6841 17.0744 11.7739 16.8775 10.9005C16.6806 10.0272 16.2529 9.22268 15.6389 8.5711C15.0249 7.91953 14.2473 7.44475 13.3871 7.19637C12.527 6.94798 11.616 6.93509 10.7492 7.15905L10.6582 6.98705C11.3845 6.34077 11.8503 5.45178 11.9682 4.48669C12.086 3.5216 11.8479 2.54664 11.2984 1.74455C10.7489 0.942455 9.92579 0.368275 8.98328 0.129617C8.04076 -0.10904 7.04356 0.00420544 6.17856 0.448132C5.31356 0.892058 4.64013 1.63619 4.28449 2.54108C3.92885 3.44596 3.91541 4.44948 4.24668 5.36357C4.57795 6.27766 5.2312 7.03957 6.08399 7.50651C6.93679 7.97345 7.9306 8.11337 8.87917 7.90005L8.95217 8.03705C7.95223 8.80437 7.27956 9.92156 7.06922 11.1643C6.85888 12.4071 7.12643 13.6834 7.81817 14.737L5.93317 16.5C5.08114 16.0293 4.08668 15.8854 3.13616 16.0953C2.18564 16.3053 1.34429 16.8546 0.769768 17.6404C0.195248 18.4262 -0.0730081 19.3945 0.0152689 20.364C0.103546 21.3334 0.542297 22.2373 1.2493 22.9064C1.95631 23.5755 2.88305 23.9639 3.85585 23.9987C4.82866 24.0334 5.78077 23.7123 6.53376 23.0954C7.28675 22.4785 7.78894 21.6082 7.94623 20.6475C8.10351 19.6869 7.9051 18.7019 7.38817 17.877L9.22617 16.159C10.2357 16.8338 11.4564 17.1175 12.66 16.9572C13.8636 16.7969 14.9675 16.2035 15.7652 15.288L16.0442 15.407C15.9231 16.2145 16.0521 17.0397 16.4137 17.7717C16.7753 18.5037 17.3523 19.1076 18.0672 19.5021C18.782 19.8966 19.6004 20.0629 20.4126 19.9787C21.2247 19.8945 21.9916 19.5638 22.6103 19.031C23.2289 18.4981 23.6697 17.7888 23.8735 16.9981C24.0772 16.2075 24.0341 15.3734 23.7499 14.608C23.4658 13.8425 22.9542 13.1824 22.2839 12.7162C21.6136 12.25 20.8167 12.0001 20.0002 12ZM6.00017 4.00005C6.00017 3.60448 6.11747 3.2178 6.33723 2.88891C6.55699 2.56001 6.86935 2.30366 7.2348 2.15229C7.60026 2.00091 8.00239 1.9613 8.39035 2.03848C8.77831 2.11565 9.13468 2.30613 9.41438 2.58583C9.69409 2.86554 9.88457 3.2219 9.96174 3.60987C10.0389 3.99783 9.99931 4.39996 9.84793 4.76541C9.69656 5.13087 9.44021 5.44322 9.11131 5.66298C8.78241 5.88275 8.39573 6.00005 8.00017 6.00005C7.46974 6.00005 6.96103 5.78933 6.58596 5.41426C6.21088 5.03919 6.00017 4.53048 6.00017 4.00005ZM4.00017 22C3.60461 22 3.21793 21.8827 2.88903 21.663C2.56013 21.4432 2.30379 21.1309 2.15241 20.7654C2.00104 20.4 1.96143 19.9978 2.0386 19.6099C2.11577 19.2219 2.30625 18.8655 2.58596 18.5858C2.86566 18.3061 3.22203 18.1156 3.60999 18.0385C3.99795 17.9613 4.40009 18.0009 4.76554 18.1523C5.13099 18.3037 5.44335 18.56 5.66311 18.8889C5.88287 19.2178 6.00017 19.6045 6.00017 20C6.00017 20.5305 5.78946 21.0392 5.41438 21.4143C5.03931 21.7893 4.5306 22 4.00017 22ZM12.0002 15C11.3509 14.9988 10.7195 14.7869 10.2009 14.3962C9.68227 14.0055 9.30442 13.4571 9.12408 12.8333C8.94373 12.2095 8.97063 11.5441 9.20073 10.9369C9.43084 10.3297 9.85172 9.81361 10.4002 9.46605L10.8072 9.24905C11.2161 9.07115 11.6596 8.98668 12.1053 9.00177C12.551 9.01685 12.9878 9.13113 13.3838 9.33627C13.7798 9.54141 14.125 9.83225 14.3945 10.1876C14.6639 10.543 14.8507 10.954 14.9413 11.3907C15.0319 11.8274 15.024 12.2788 14.9181 12.712C14.8123 13.1452 14.6112 13.5494 14.3295 13.8951C14.0478 14.2409 13.6925 14.5194 13.2896 14.7106C12.8866 14.9017 12.4461 15.0006 12.0002 15ZM20.0002 18C19.6046 18 19.2179 17.8827 18.889 17.663C18.5601 17.4432 18.3038 17.1309 18.1524 16.7654C18.001 16.4 17.9614 15.9978 18.0386 15.6099C18.1158 15.2219 18.3063 14.8655 18.586 14.5858C18.8657 14.3061 19.222 14.1156 19.61 14.0385C19.998 13.9613 20.4001 14.0009 20.7655 14.1523C21.131 14.3037 21.4433 14.56 21.6631 14.8889C21.8829 15.2178 22.0002 15.6045 22.0002 16C22.0002 16.5305 21.7895 17.0392 21.4144 17.4143C21.0393 17.7893 20.5306 18 20.0002 18Z" fill="#374957"/>
</g>
<defs>
<clipPath id="clip0_74_8992">
<rect width="24" height="24" fill="white"/>
</clipPath>
</defs>
</svg>
