<svg width="24" height="24" viewBox="0 0 24 24" fill="none" xmlns="http://www.w3.org/2000/svg">
<g clip-path="url(#clip0_74_9161)">
<path d="M17.9942 2.28607C16.7736 1.19561 15.2787 0.458655 13.6705 0.154503C12.0623 -0.14965 10.4015 -0.00947863 8.86703 0.559931C7.33253 1.12934 5.98235 2.10643 4.9618 3.38604C3.94126 4.66566 3.28898 6.19935 3.07517 7.82207C2.88315 9.24492 3.03672 10.6931 3.52289 12.044C4.00906 13.3949 4.81351 14.6089 5.86817 15.5831C6.52037 16.155 7.04665 16.8562 7.41366 17.6422C7.78066 18.4282 7.98038 19.2818 8.00017 20.1491V20.3101C8.00123 21.2884 8.39034 22.2263 9.08212 22.9181C9.7739 23.6099 10.7118 23.999 11.6902 24.0001H12.3102C13.2885 23.999 14.2264 23.6099 14.9182 22.9181C15.61 22.2263 15.9991 21.2884 16.0002 20.3101V19.7611C16.0151 18.9945 16.1955 18.2403 16.529 17.5499C16.8624 16.8595 17.3411 16.2493 17.9322 15.7611C18.8908 14.9215 19.66 13.8878 20.189 12.7286C20.7179 11.5693 20.9945 10.3108 21.0003 9.03654C21.0062 7.76229 20.7412 6.50134 20.223 5.33723C19.7047 4.17311 18.945 3.13241 17.9942 2.28407V2.28607ZM12.3102 22.0001H11.6902C11.2421 21.9995 10.8126 21.8213 10.4957 21.5045C10.1789 21.1877 10.0007 20.7581 10.0002 20.3101C10.0002 20.3101 9.99317 20.0501 9.99217 20.0001H14.0002V20.3101C13.9996 20.7581 13.8214 21.1877 13.5046 21.5045C13.1878 21.8213 12.7582 21.9995 12.3102 22.0001ZM16.6102 14.2591C15.4716 15.2466 14.6493 16.5478 14.2462 18.0001H13.0002V10.8161C13.5831 10.61 14.0881 10.2288 14.4461 9.72477C14.8041 9.2207 14.9976 8.61833 15.0002 8.00007C15.0002 7.73486 14.8948 7.4805 14.7073 7.29296C14.5197 7.10543 14.2654 7.00007 14.0002 7.00007C13.735 7.00007 13.4806 7.10543 13.2931 7.29296C13.1055 7.4805 13.0002 7.73486 13.0002 8.00007C13.0002 8.26529 12.8948 8.51964 12.7073 8.70718C12.5197 8.89471 12.2654 9.00007 12.0002 9.00007C11.735 9.00007 11.4806 8.89471 11.2931 8.70718C11.1055 8.51964 11.0002 8.26529 11.0002 8.00007C11.0002 7.73486 10.8948 7.4805 10.7073 7.29296C10.5197 7.10543 10.2654 7.00007 10.0002 7.00007C9.73496 7.00007 9.4806 7.10543 9.29307 7.29296C9.10553 7.4805 9.00017 7.73486 9.00017 8.00007C9.00274 8.61833 9.19626 9.2207 9.55426 9.72477C9.91226 10.2288 10.4173 10.61 11.0002 10.8161V18.0001H9.67817C9.22716 16.5093 8.38129 15.1683 7.23017 14.1191C6.25313 13.2087 5.5569 12.0378 5.22364 10.7446C4.89039 9.45134 4.93402 8.08979 5.34938 6.82057C5.76475 5.55134 6.53451 4.42742 7.56784 3.58143C8.60117 2.73545 9.85493 2.2027 11.1812 2.04607C11.4561 2.01538 11.7325 2.00002 12.0092 2.00007C13.7267 1.99497 15.3848 2.6287 16.6612 3.77807C17.4009 4.43767 17.9919 5.24696 18.3951 6.1523C18.7983 7.05763 19.0045 8.03834 19 9.02939C18.9954 10.0204 18.7803 10.9992 18.3688 11.9008C17.9573 12.8024 17.3589 13.6063 16.6132 14.2591H16.6102Z" fill="#374957"/>
</g>
<defs>
<clipPath id="clip0_74_9161">
<rect width="24" height="24" fill="white"/>
</clipPath>
</defs>
</svg>
