<svg width="24" height="24" viewBox="0 0 24 24" fill="none" xmlns="http://www.w3.org/2000/svg">
<g clip-path="url(#clip0_74_8781)">
<path d="M23.7198 22.3003L17.7594 16.3399C21.2558 12.0636 20.6237 5.76256 16.3474 2.26616C12.0711 -1.23025 5.77015 -0.598187 2.27369 3.67808C-1.22276 7.95434 -0.590602 14.2554 3.68566 17.7518C7.36901 20.7635 12.6641 20.7635 16.3474 17.7518L22.3078 23.7122C22.7045 24.0953 23.3367 24.0844 23.7198 23.6877C24.0935 23.3007 24.0935 22.6872 23.7198 22.3003ZM2.04401 10.025C2.04401 5.61303 5.62057 2.03647 10.0325 2.03647C14.4444 2.03647 18.021 5.61303 18.021 10.025C18.021 14.4369 14.4444 18.0134 10.0325 18.0134C5.62263 18.0085 2.04898 14.4348 2.04401 10.025ZM12.0296 6.03069C11.2837 6.03406 10.5679 6.32605 10.0325 6.84552C9.49713 6.32609 8.7814 6.03406 8.03543 6.03069C6.32763 6.08984 4.98869 7.51803 5.03974 9.22606C5.03974 11.2232 7.07782 13.2832 8.78833 14.6582C9.51644 15.2381 10.5486 15.2381 11.2767 14.6582C12.9873 13.2832 15.0253 11.2232 15.0253 9.22606C15.0763 7.51803 13.7374 6.08984 12.0296 6.03069ZM10.0385 13.1005C8.18716 11.6127 7.0368 10.1248 7.0368 9.22611C6.98698 8.62114 7.4313 8.08789 8.03538 8.02784C8.63941 8.08789 9.08379 8.62114 9.03396 9.22611C9.03396 9.77759 9.48101 10.2247 10.0325 10.2247C10.584 10.2247 11.0311 9.77764 11.0311 9.22611C10.9813 8.62114 11.4256 8.08789 12.0297 8.02784C12.6337 8.08789 13.0781 8.62114 13.0283 9.22611C13.0282 10.1248 11.8779 11.6127 10.0385 13.1005Z" fill="#374957"/>
</g>
<defs>
<clipPath id="clip0_74_8781">
<rect width="24" height="24" fill="white"/>
</clipPath>
</defs>
</svg>
