<svg width="24" height="24" viewBox="0 0 24 24" fill="none" xmlns="http://www.w3.org/2000/svg">
<g clip-path="url(#clip0_74_8827)">
<path d="M23.1 0.899675C22.5163 0.343698 21.7411 0.0335808 20.935 0.0335808C20.1289 0.0335808 19.3537 0.343698 18.77 0.899675L7.56302 12.0997C7.21437 12.0326 6.86008 11.9991 6.50502 11.9997C5.78323 11.9976 5.06819 12.1387 4.40132 12.4149C3.73445 12.6911 3.129 13.0969 2.62002 13.6087C1.26802 14.9617 0.314022 18.5917 0.0310225 20.5627C-0.0317577 20.989 -0.00192951 21.4239 0.118477 21.8378C0.238883 22.2516 0.44704 22.6346 0.728777 22.9608C1.01051 23.2869 1.35922 23.5485 1.75115 23.7278C2.14308 23.9071 2.56904 23.9998 3.00002 23.9996C3.14691 23.9997 3.29361 23.9894 3.43902 23.9686C5.41002 23.6856 9.03902 22.7316 10.393 21.3797C11.0288 20.742 11.4981 19.9579 11.7597 19.0964C12.0212 18.2348 12.067 17.3221 11.893 16.4387L23.1 5.22967C23.6727 4.65467 23.9942 3.8762 23.9942 3.06467C23.9942 2.25314 23.6727 1.47467 23.1 0.899675ZM8.97702 19.9657C8.25202 20.6907 5.47702 21.6546 3.15302 21.9886C2.99771 22.0111 2.83931 21.9972 2.69026 21.9481C2.54121 21.899 2.40558 21.816 2.29402 21.7056C2.18286 21.5947 2.0994 21.4591 2.0504 21.3098C2.00141 21.1606 1.98826 21.0019 2.01202 20.8467C2.34502 18.5237 3.31202 15.7467 4.03402 15.0227C4.70027 14.4226 5.57139 14.1011 6.46772 14.1245C7.36404 14.1479 8.2172 14.5145 8.85122 15.1485C9.48523 15.7825 9.85174 16.6356 9.87515 17.532C9.89856 18.4283 9.57708 19.2994 8.97702 19.9657ZM21.688 3.81567L11.067 14.4377C10.6724 13.8401 10.1624 13.3275 9.56702 12.9297L20.184 2.31167C20.3861 2.11875 20.6547 2.0111 20.934 2.0111C21.2134 2.0111 21.482 2.11875 21.684 2.31167C21.7832 2.41006 21.862 2.52706 21.9159 2.65596C21.9698 2.78486 21.9978 2.92313 21.9981 3.06284C21.9985 3.20256 21.9713 3.34097 21.9181 3.47016C21.8649 3.59934 21.7867 3.71675 21.688 3.81567Z" fill="#374957"/>
</g>
<defs>
<clipPath id="clip0_74_8827">
<rect width="24" height="24" fill="white"/>
</clipPath>
</defs>
</svg>
