<svg width="24" height="24" viewBox="0 0 24 24" fill="none" xmlns="http://www.w3.org/2000/svg">
<g clip-path="url(#clip0_74_8945)">
<path d="M10 9.9997C9.20435 9.9997 8.44129 10.3158 7.87868 10.8784C7.31607 11.441 7 12.204 7 12.9997C7 13.7953 7.31607 14.5584 7.87868 15.121C8.44129 15.6836 9.20435 15.9997 10 15.9997H14C14.7956 15.9997 15.5587 15.6836 16.1213 15.121C16.6839 14.5584 17 13.7953 17 12.9997C17 12.204 16.6839 11.441 16.1213 10.8784C15.5587 10.3158 14.7956 9.9997 14 9.9997H10ZM15 12.9997C15 13.2649 14.8946 13.5193 14.7071 13.7068C14.5196 13.8943 14.2652 13.9997 14 13.9997H10C9.73478 13.9997 9.48043 13.8943 9.29289 13.7068C9.10536 13.5193 9 13.2649 9 12.9997C9 12.7345 9.10536 12.4801 9.29289 12.2926C9.48043 12.1051 9.73478 11.9997 10 11.9997H14C14.2652 11.9997 14.5196 12.1051 14.7071 12.2926C14.8946 12.4801 15 12.7345 15 12.9997ZM17 18.9997C17 19.2649 16.8946 19.5193 16.7071 19.7068C16.5196 19.8943 16.2652 19.9997 16 19.9997H8C7.73478 19.9997 7.48043 19.8943 7.29289 19.7068C7.10536 19.5193 7 19.2649 7 18.9997C7 18.7345 7.10536 18.4801 7.29289 18.2926C7.48043 18.1051 7.73478 17.9997 8 17.9997H16C16.2652 17.9997 16.5196 18.1051 16.7071 18.2926C16.8946 18.4801 17 18.7345 17 18.9997ZM19.536 3.1207L17.878 1.46469C17.4149 0.998946 16.864 0.629657 16.2572 0.378193C15.6504 0.126729 14.9998 -0.00191841 14.343 -0.000305453H8C6.67441 0.0012824 5.40356 0.528577 4.46622 1.46591C3.52888 2.40325 3.00159 3.6741 3 4.99969V18.9997C3.00159 20.3253 3.52888 21.5961 4.46622 22.5335C5.40356 23.4708 6.67441 23.9981 8 23.9997H16C17.3256 23.9981 18.5964 23.4708 19.5338 22.5335C20.4711 21.5961 20.9984 20.3253 21 18.9997V6.6567C21.0019 5.99978 20.8735 5.34902 20.6222 4.74206C20.3709 4.13511 20.0017 3.58403 19.536 3.1207ZM18.122 4.53469C18.2627 4.67712 18.3893 4.83285 18.5 4.99969H16V2.49969C16.1671 2.60922 16.3226 2.73555 16.464 2.87669L18.122 4.53469ZM19 18.9997C19 19.7953 18.6839 20.5584 18.1213 21.121C17.5587 21.6836 16.7956 21.9997 16 21.9997H8C7.20435 21.9997 6.44129 21.6836 5.87868 21.121C5.31607 20.5584 5 19.7953 5 18.9997V4.99969C5 4.20405 5.31607 3.44098 5.87868 2.87837C6.44129 2.31577 7.20435 1.99969 8 1.99969H14V4.99969C14 5.53013 14.2107 6.03884 14.5858 6.41391C14.9609 6.78898 15.4696 6.9997 16 6.9997H19V18.9997Z" fill="#374957"/>
</g>
<defs>
<clipPath id="clip0_74_8945">
<rect width="24" height="24" fill="white"/>
</clipPath>
</defs>
</svg>
