<svg width="24" height="24" viewBox="0 0 24 24" fill="none" xmlns="http://www.w3.org/2000/svg">
<g clip-path="url(#clip0_74_9021)">
<path d="M17.954 10.6631C18.6096 9.60392 18.9702 8.38871 18.9982 7.14336C19.0263 5.89801 18.7208 4.66781 18.1135 3.58021C17.5062 2.4926 16.6192 1.58716 15.5443 0.95768C14.4693 0.3282 13.2457 -0.00241883 12 7.50398e-05H5C4.46957 7.50398e-05 3.96086 0.210789 3.58579 0.585862C3.21071 0.960934 3 1.46964 3 2.00008V22.0001C3 22.5305 3.21071 23.0392 3.58579 23.4143C3.96086 23.7894 4.46957 24.0001 5 24.0001H15C16.5934 24.0018 18.1397 23.4593 19.3828 22.4625C20.6259 21.4657 21.4914 20.0742 21.8359 18.5185C22.1805 16.9628 21.9835 15.3361 21.2776 13.9075C20.5717 12.479 19.3991 11.3344 17.954 10.6631ZM7 4.00007H12C12.7956 4.00007 13.5587 4.31615 14.1213 4.87875C14.6839 5.44136 15 6.20443 15 7.00007C15 7.79572 14.6839 8.55879 14.1213 9.1214C13.5587 9.684 12.7956 10.0001 12 10.0001H7V4.00007ZM15 20.0001H7V14.0001H15C15.7956 14.0001 16.5587 14.3161 17.1213 14.8788C17.6839 15.4414 18 16.2044 18 17.0001C18 17.7957 17.6839 18.5588 17.1213 19.1214C16.5587 19.684 15.7956 20.0001 15 20.0001Z" fill="#374957"/>
</g>
<defs>
<clipPath id="clip0_74_9021">
<rect width="24" height="24" fill="white"/>
</clipPath>
</defs>
</svg>
