<svg width="24" height="24" viewBox="0 0 24 24" fill="none" xmlns="http://www.w3.org/2000/svg">
<g clip-path="url(#clip0_74_8840)">
<path d="M2.88588 6.83626C3.04916 6.83678 3.21008 6.79732 3.35459 6.72132C3.49909 6.64532 3.62279 6.53509 3.71488 6.40026C4.4583 5.29982 5.41315 4.35822 6.52388 3.63026C6.63367 3.55803 6.72815 3.46489 6.80194 3.35615C6.87573 3.2474 6.92737 3.12519 6.95393 2.99649C6.98049 2.86779 6.98144 2.73512 6.95672 2.60605C6.932 2.47698 6.88211 2.35404 6.80988 2.24426C6.73765 2.13447 6.64451 2.03999 6.53577 1.9662C6.42703 1.89241 6.30482 1.84077 6.17611 1.81421C6.04741 1.78765 5.91474 1.7867 5.78567 1.81142C5.6566 1.83613 5.53367 1.88603 5.42388 1.95826C4.09383 2.83009 2.95034 3.9576 2.05988 5.27526C1.95806 5.4255 1.89906 5.60061 1.88918 5.78184C1.8793 5.96306 1.91893 6.14355 2.00381 6.30397C2.0887 6.46438 2.21564 6.59867 2.37102 6.69244C2.52641 6.78621 2.70439 6.83593 2.88588 6.83626Z" fill="#374957"/>
<path d="M2 11.9998C1.99982 11.3387 2.06446 10.6792 2.193 10.0308C2.22083 9.9012 2.22263 9.76739 2.19829 9.63712C2.17395 9.50685 2.12397 9.38272 2.05123 9.27194C1.9785 9.16116 1.88448 9.06594 1.77462 8.99182C1.66477 8.9177 1.54127 8.86615 1.41132 8.84017C1.28137 8.81419 1.14755 8.81431 1.01764 8.8405C0.887732 8.86669 0.764326 8.91845 0.654595 8.99276C0.544864 9.06706 0.450996 9.16244 0.378449 9.27334C0.305902 9.38424 0.256122 9.50846 0.232002 9.63877C-0.0779852 11.1995 -0.0779852 12.806 0.232002 14.3668C0.278108 14.5926 0.400839 14.7956 0.579422 14.9414C0.758005 15.0872 0.981472 15.1668 1.212 15.1668C1.27913 15.167 1.34612 15.1607 1.412 15.1478C1.67205 15.0957 1.90074 14.9424 2.04777 14.7216C2.19479 14.5009 2.24812 14.2308 2.196 13.9708C2.06625 13.3218 2.0006 12.6616 2 11.9998Z" fill="#374957"/>
<path d="M6.52809 20.3722C5.41713 19.6458 4.4619 18.7056 3.71809 17.6062C3.64435 17.4975 3.54992 17.4043 3.44018 17.3321C3.33045 17.2598 3.20756 17.2099 3.07853 17.1852C2.81795 17.1352 2.54818 17.1908 2.32859 17.3397C2.10899 17.4886 1.95754 17.7187 1.90756 17.9793C1.85758 18.2398 1.91317 18.5096 2.06209 18.7292C2.95436 20.0468 4.09995 21.1737 5.43209 22.0442C5.65381 22.1901 5.92439 22.2419 6.18432 22.1883C6.44424 22.1346 6.67222 21.9799 6.81809 21.7582C6.96395 21.5365 7.01577 21.2659 6.96214 21.006C6.9085 20.746 6.75381 20.5181 6.53209 20.3722H6.52809Z" fill="#374957"/>
<path d="M11.9999 -7.62939e-06C11.2717 0.0012329 10.5451 0.0681709 9.82892 0.199992C9.58311 0.244499 9.36286 0.379394 9.21151 0.578132C9.06017 0.776869 8.98868 1.02506 9.01113 1.27385C9.03357 1.52264 9.14833 1.75403 9.3328 1.92247C9.51727 2.09091 9.75811 2.1842 10.0079 2.18399C10.0686 2.18354 10.1291 2.17819 10.1889 2.16799C10.7863 2.05728 11.3924 2.00105 11.9999 1.99999V22C11.3925 22.0003 10.7864 21.9454 10.1889 21.836C9.92794 21.7883 9.65869 21.8461 9.4404 21.9969C9.22211 22.1477 9.07265 22.379 9.02492 22.64C8.97718 22.901 9.03506 23.1702 9.18584 23.3885C9.33662 23.6068 9.56794 23.7563 9.82892 23.804C11.5596 24.1206 13.3386 24.053 15.0403 23.6062C16.742 23.1593 18.3247 22.344 19.6765 21.218C21.0284 20.092 22.1163 18.6827 22.8634 17.0898C23.6105 15.4969 23.9985 13.7594 23.9999 12C23.9965 8.81845 22.7311 5.7682 20.4814 3.51851C18.2317 1.26882 15.1815 0.00343345 11.9999 -7.62939e-06V-7.62939e-06Z" fill="#374957"/>
</g>
<defs>
<clipPath id="clip0_74_8840">
<rect width="24" height="24" fill="white"/>
</clipPath>
</defs>
</svg>
