<svg width="24" height="24" viewBox="0 0 24 24" fill="none" xmlns="http://www.w3.org/2000/svg">
<g clip-path="url(#clip0_74_9205)">
<path d="M18.4003 7.37877C18.2194 7.32717 18.0543 7.23116 17.92 7.09947C17.7857 6.96778 17.6865 6.8046 17.6313 6.62477C17.3251 5.58681 16.8115 4.62178 16.1215 3.78806C15.4315 2.95434 14.5796 2.26928 13.6172 1.77433C12.6549 1.27937 11.6021 0.984812 10.5226 0.908477C9.4431 0.832143 8.35935 0.975619 7.33691 1.33022C6.31447 1.68483 5.3746 2.24319 4.57418 2.97151C3.77377 3.69984 3.12944 4.58299 2.68019 5.56752C2.23095 6.55205 1.98612 7.6175 1.96053 8.69938C1.93494 9.78127 2.12912 10.8571 2.53132 11.8618C2.62371 12.0732 2.64361 12.3092 2.5879 12.5332C2.53219 12.7571 2.40401 12.9563 2.22332 13.0998C1.42705 13.6908 0.805363 14.486 0.424069 15.4014C0.0427744 16.3168 -0.0839466 17.3183 0.0573177 18.2998C0.277771 19.6266 0.966642 20.8305 1.9989 21.6929C3.03116 22.5552 4.33838 23.0189 5.68332 22.9998H11.0003C11.2655 22.9998 11.5199 22.8944 11.7074 22.7069C11.895 22.5193 12.0003 22.265 12.0003 21.9998C12.0003 21.7345 11.895 21.4802 11.7074 21.2927C11.5199 21.1051 11.2655 20.9998 11.0003 20.9998H5.68332C4.8196 21.0207 3.97695 20.7316 3.30808 20.1847C2.63921 19.6378 2.18839 18.8694 2.03732 18.0188C1.94151 17.3935 2.01916 16.7539 2.26179 16.1697C2.50442 15.5856 2.90273 15.0792 3.41332 14.7058C3.94964 14.3049 4.3376 13.7373 4.51625 13.092C4.69491 12.4467 4.65413 11.7604 4.40032 11.1408C3.89847 9.81547 3.87267 8.35698 4.32732 7.01477C4.69052 5.96334 5.3409 5.03464 6.2048 4.33387C7.0687 3.6331 8.11159 3.18827 9.21532 3.04977C9.47134 3.01681 9.72919 3.00011 9.98732 2.99977C11.2804 2.9955 12.54 3.4102 13.5777 4.18176C14.6153 4.95332 15.3751 6.04024 15.7433 7.27977C15.887 7.75214 16.146 8.18134 16.4969 8.52872C16.8478 8.87611 17.2795 9.13077 17.7533 9.26977C18.9128 9.61269 19.9399 10.3016 20.697 11.2444C21.4542 12.1871 21.9052 13.3387 21.9898 14.5448C22.0745 15.751 21.7886 16.9543 21.1705 17.9935C20.5524 19.0327 19.6316 19.8583 18.5313 20.3598C18.3685 20.4431 18.2324 20.5706 18.1385 20.7276C18.0446 20.8846 17.9967 21.0649 18.0003 21.2478C17.9984 21.4132 18.038 21.5765 18.1156 21.7227C18.1932 21.8689 18.3063 21.9932 18.4445 22.0843C18.5826 22.1754 18.7415 22.2303 18.9064 22.244C19.0713 22.2577 19.237 22.2298 19.3883 22.1628C23.5223 20.1758 25.7683 14.9488 22.2683 9.89877C21.3046 8.64168 19.9396 7.75238 18.4003 7.37877Z" fill="#374957"/>
<path d="M18.7072 16.707C18.8946 16.5194 19 16.2651 19 16C19 15.7348 18.8946 15.4805 18.7072 15.293L17.1212 13.707C16.5586 13.1446 15.7957 12.8286 15.0002 12.8286C14.2047 12.8286 13.4417 13.1446 12.8792 13.707L11.2932 15.293C11.111 15.4816 11.0102 15.7342 11.0125 15.9964C11.0148 16.2586 11.1199 16.5094 11.3053 16.6948C11.4908 16.8802 11.7416 16.9854 12.0038 16.9876C12.266 16.9899 12.5186 16.8891 12.7072 16.707L14.0002 15.414V23C14.0002 23.2652 14.1055 23.5195 14.2931 23.7071C14.4806 23.8946 14.7349 24 15.0002 24C15.2654 24 15.5197 23.8946 15.7073 23.7071C15.8948 23.5195 16.0002 23.2652 16.0002 23V15.414L17.2932 16.707C17.4807 16.8944 17.735 16.9998 18.0002 16.9998C18.2653 16.9998 18.5196 16.8944 18.7072 16.707Z" fill="#374957"/>
</g>
<defs>
<clipPath id="clip0_74_9205">
<rect width="24" height="24" fill="white"/>
</clipPath>
</defs>
</svg>
