<svg width="24" height="24" viewBox="0 0 24 24" fill="none" xmlns="http://www.w3.org/2000/svg">
<g clip-path="url(#clip0_74_9096)">
<path d="M14.9802 7.02297V3.02297C14.9802 2.75775 15.0855 2.5034 15.2731 2.31586C15.4606 2.12833 15.715 2.02297 15.9802 2.02297C16.2454 2.02297 16.4998 2.12833 16.6873 2.31586C16.8748 2.5034 16.9802 2.75775 16.9802 3.02297V5.63397C17.6102 4.99997 21.6812 0.907969 22.2732 0.315969C22.3654 0.220459 22.4758 0.144277 22.5978 0.091868C22.7198 0.039459 22.851 0.0118727 22.9838 0.0107189C23.1166 0.00956509 23.2482 0.0348668 23.3711 0.0851477C23.494 0.135429 23.6057 0.209682 23.6996 0.303574C23.7935 0.397467 23.8677 0.509119 23.918 0.632015C23.9683 0.754912 23.9936 0.886591 23.9924 1.01937C23.9913 1.15215 23.9637 1.28337 23.9113 1.40537C23.8589 1.52738 23.7827 1.63772 23.6872 1.72997C23.0952 2.32197 19.0452 6.39497 18.4192 7.02297H20.9802C21.2454 7.02297 21.4998 7.12833 21.6873 7.31586C21.8748 7.5034 21.9802 7.75775 21.9802 8.02297C21.9802 8.28819 21.8748 8.54254 21.6873 8.73008C21.4998 8.91761 21.2454 9.02297 20.9802 9.02297H16.9802C16.4497 9.02297 15.941 8.81226 15.566 8.43718C15.1909 8.06211 14.9802 7.5534 14.9802 7.02297ZM23.0752 16.762C23.6547 17.3431 23.9801 18.1303 23.9801 18.951C23.9801 19.7717 23.6547 20.5589 23.0752 21.14L22.1632 22.19C13.9722 30.028 -5.95582 10.106 1.76318 1.88997L2.91318 0.889969C3.49482 0.326515 4.27491 0.0147082 5.08468 0.0220068C5.89445 0.0293054 6.66879 0.355123 7.24018 0.928969C7.27118 0.958969 9.12318 3.36697 9.12318 3.36697C9.6711 3.94551 9.97597 4.71235 9.97485 5.50917C9.97374 6.30599 9.66672 7.07197 9.11718 7.64897L7.95918 9.10497C8.60017 10.662 9.54244 12.0771 10.7319 13.2689C11.9213 14.4607 13.3345 15.4058 14.8902 16.05L16.3552 14.885C16.931 14.334 17.697 14.0259 18.494 14.0248C19.291 14.0237 20.0578 14.3296 20.6352 14.879C20.6352 14.879 23.0442 16.732 23.0752 16.762ZM21.7002 18.216C21.7002 18.216 19.3072 16.374 19.2762 16.344C19.0702 16.1397 18.7918 16.0251 18.5017 16.0251C18.2116 16.0251 17.9332 16.1397 17.7272 16.344C17.7002 16.37 15.6832 17.978 15.6832 17.978C15.5473 18.0862 15.3855 18.1571 15.2138 18.1837C15.0422 18.2104 14.8665 18.1919 14.7042 18.13C12.6876 17.3797 10.8559 16.2046 9.33327 14.6844C7.81064 13.1642 6.63265 11.3344 5.87918 9.31897C5.81238 9.15442 5.7906 8.97506 5.81609 8.79931C5.84157 8.62356 5.9134 8.45776 6.02418 8.31897C6.02418 8.31897 7.63218 6.30497 7.65918 6.27897C7.86345 6.07296 7.97806 5.79459 7.97806 5.50447C7.97806 5.21435 7.86345 4.93598 7.65918 4.72997C7.62918 4.69997 5.78718 2.30497 5.78718 2.30497C5.57808 2.11748 5.30519 2.01706 5.02443 2.02432C4.74367 2.03157 4.47633 2.14593 4.27718 2.34397L3.12718 3.34397C-2.51482 10.127 14.7572 26.441 20.7002 20.827L21.6122 19.776C21.8272 19.5787 21.9567 19.3052 21.9731 19.0138C21.9896 18.7225 21.8916 18.4362 21.7002 18.216Z" fill="#374957"/>
</g>
<defs>
<clipPath id="clip0_74_9096">
<rect width="24" height="24" fill="white"/>
</clipPath>
</defs>
</svg>
