<svg width="24" height="24" viewBox="0 0 24 24" fill="none" xmlns="http://www.w3.org/2000/svg">
<path d="M19.783 12.0791C19.619 11.4931 19.434 10.8731 19.228 10.2061C18.618 8.52428 18.2058 6.77718 18 5.00006C18 4.73484 18.1053 4.48049 18.2929 4.29295C18.4804 4.10542 18.7348 4.00006 19 4.00006C19.2652 4.00006 19.5196 4.10542 19.7071 4.29295C19.8946 4.48049 20 4.73484 20 5.00006C20 5.26528 20.1053 5.51963 20.2929 5.70717C20.4804 5.8947 20.7348 6.00006 21 6.00006C21.2652 6.00006 21.5196 5.8947 21.7071 5.70717C21.8946 5.51963 22 5.26528 22 5.00006C22 4.20441 21.6839 3.44135 21.1213 2.87874C20.5587 2.31613 19.7956 2.00006 19 2.00006C18.2043 2.00006 17.4413 2.31613 16.8787 2.87874C16.3161 3.44135 16 4.20441 16 5.00006C16.0248 5.76366 16.1317 6.52237 16.319 7.26306L11.519 11.0001L5.97099 7.00006H8.99999C9.26521 7.00006 9.51956 6.8947 9.7071 6.70717C9.89464 6.51963 9.99999 6.26528 9.99999 6.00006C9.99999 5.73484 9.89464 5.48049 9.7071 5.29295C9.51956 5.10542 9.26521 5.00006 8.99999 5.00006H5.97099C5.55556 4.99994 5.15073 5.13121 4.81442 5.37511C4.47812 5.619 4.22757 5.96302 4.09864 6.35794C3.9697 6.75286 3.96897 7.17844 4.09656 7.57379C4.22415 7.96915 4.47352 8.31402 4.80899 8.55906L9.87999 12.2711L8.44199 13.3901C7.54878 12.5491 6.3753 12.0695 5.14876 12.044C3.92222 12.0186 2.72986 12.4492 1.80256 13.2524C0.875252 14.0556 0.278961 15.1743 0.129136 16.3919C-0.0206882 17.6096 0.286611 18.8395 0.991537 19.8435C1.69646 20.8476 2.74887 21.5544 3.94499 21.8271C5.14111 22.0997 6.39586 21.9189 7.4663 21.3195C8.53673 20.7202 9.34671 19.745 9.7394 18.5827C10.1321 17.4204 10.0796 16.1538 9.59199 15.0281L16.881 9.35906C17.022 9.83506 17.608 11.7431 17.737 12.1821C16.5417 12.4941 15.5045 13.2382 14.8258 14.2704C14.1471 15.3026 13.8751 16.5497 14.0623 17.7708C14.2495 18.9919 14.8826 20.1003 15.8393 20.8818C16.7961 21.6633 18.0085 22.0624 19.2424 22.0021C20.4763 21.9418 21.644 21.4263 22.52 20.5552C23.396 19.6842 23.918 18.5193 23.9852 17.2858C24.0524 16.0523 23.6601 14.8376 22.8839 13.8765C22.1078 12.9154 21.003 12.2761 19.783 12.0821V12.0791ZM4.99999 20.0001C4.40665 20.0001 3.82663 19.8241 3.33328 19.4945C2.83993 19.1648 2.45542 18.6963 2.22835 18.1481C2.00129 17.5999 1.94188 16.9967 2.05764 16.4148C2.17339 15.8328 2.45911 15.2983 2.87867 14.8787C3.29823 14.4592 3.83278 14.1735 4.41472 14.0577C4.99666 13.9419 5.59986 14.0014 6.14804 14.2284C6.69622 14.4555 7.16476 14.84 7.4944 15.3334C7.82404 15.8267 7.99999 16.4067 7.99999 17.0001C7.99999 17.7957 7.68392 18.5588 7.12131 19.1214C6.5587 19.684 5.79564 20.0001 4.99999 20.0001ZM19 20.0001C18.4066 20.0001 17.8266 19.8241 17.3333 19.4945C16.8399 19.1648 16.4554 18.6963 16.2284 18.1481C16.0013 17.5999 15.9419 16.9967 16.0576 16.4148C16.1734 15.8328 16.4591 15.2983 16.8787 14.8787C17.2982 14.4592 17.8328 14.1735 18.4147 14.0577C18.9967 13.9419 19.5999 14.0014 20.148 14.2284C20.6962 14.4555 21.1648 14.84 21.4944 15.3334C21.824 15.8267 22 16.4067 22 17.0001C22 17.7957 21.6839 18.5588 21.1213 19.1214C20.5587 19.684 19.7956 20.0001 19 20.0001Z" fill="#374957"/>
</svg>
