<svg width="24" height="24" viewBox="0 0 24 24" fill="none" xmlns="http://www.w3.org/2000/svg">
<g clip-path="url(#clip0_74_8750)">
<path d="M20.485 3.51587C18.8072 1.8396 16.67 0.698397 14.3437 0.236514C12.0174 -0.225369 9.60639 0.0128065 7.41542 0.920933C5.22446 1.82906 3.35191 3.36637 2.03449 5.33853C0.717069 7.31069 0.013916 9.62916 0.013916 12.0009C0.013916 14.3726 0.717069 16.6911 2.03449 18.6632C3.35191 20.6354 5.22446 22.1727 7.41542 23.0808C9.60639 23.9889 12.0174 24.2271 14.3437 23.7652C16.67 23.3033 18.8072 22.1621 20.485 20.4859C22.7321 18.2338 23.9941 15.1823 23.9941 12.0009C23.9941 8.81947 22.7321 5.76797 20.485 3.51587ZM21.934 10.9329C20.7348 11.0783 19.5183 10.9491 18.3764 10.555C17.2346 10.1608 16.1973 9.51212 15.3432 8.65791C14.4891 7.8037 13.8405 6.76639 13.4465 5.6245C13.0525 4.4826 12.9234 3.26603 13.069 2.06687C15.3387 2.3055 17.4577 3.3163 19.0714 4.93018C20.6851 6.54405 21.6956 8.66312 21.934 10.9329ZM2.06599 13.0689C3.26516 12.9234 4.48172 13.0526 5.62357 13.4468C6.76543 13.8409 7.80266 14.4896 8.65677 15.3438C9.51089 16.198 10.1595 17.2353 10.5535 18.3772C10.9475 19.5191 11.0766 20.7357 10.931 21.9349C8.66126 21.6962 6.54231 20.6854 4.92862 19.0716C3.31493 17.4577 2.30437 15.3386 2.06599 13.0689ZM19.071 19.0689C17.4281 20.7154 15.2601 21.7341 12.944 21.9479C13.0875 20.4811 12.9041 19.0008 12.407 17.6135C11.9098 16.2261 11.1114 14.9662 10.069 13.9244C9.02663 12.8827 7.76628 12.0849 6.37866 11.5885C4.99103 11.0922 3.51064 10.9096 2.04399 11.0539C2.2615 8.73816 3.28108 6.57117 4.92657 4.92733C6.57205 3.28349 8.74006 2.26607 11.056 2.05087C10.9215 3.43743 11.0786 4.83678 11.5172 6.15899C11.9558 7.4812 12.6662 8.69701 13.6028 9.72828C14.5393 10.7596 15.6812 11.5835 16.9552 12.1471C18.2291 12.7107 19.6069 13.0015 21 13.0009C21.317 13.0009 21.635 12.9849 21.953 12.9549C21.7358 15.2678 20.7162 17.4318 19.071 19.0719V19.0689Z" fill="#374957"/>
</g>
<defs>
<clipPath id="clip0_74_8750">
<rect width="24" height="24" fill="white"/>
</clipPath>
</defs>
</svg>
