<svg width="24" height="24" viewBox="0 0 24 24" fill="none" xmlns="http://www.w3.org/2000/svg">
<g clip-path="url(#clip0_74_8912)">
<path d="M0.880046 14.09L4.75005 18C4.84301 18.0938 4.95361 18.1681 5.07547 18.2189C5.19733 18.2697 5.32803 18.2958 5.46005 18.2958C5.59206 18.2958 5.72276 18.2697 5.84462 18.2189C5.96648 18.1681 6.07708 18.0938 6.17005 18C6.26377 17.9071 6.33817 17.7965 6.38894 17.6746C6.43971 17.5527 6.46584 17.422 6.46584 17.29C6.46584 17.158 6.43971 17.0273 6.38894 16.9054C6.33817 16.7836 6.26377 16.673 6.17005 16.58L2.61005 13H23C23.2653 13 23.5196 12.8947 23.7072 12.7071C23.8947 12.5196 24 12.2652 24 12C24 11.7348 23.8947 11.4805 23.7072 11.2929C23.5196 11.1054 23.2653 11 23 11H2.55005L6.17005 7.38002C6.34734 7.19405 6.44624 6.94696 6.44624 6.69002C6.44624 6.43308 6.34734 6.186 6.17005 6.00002C6.07708 5.90629 5.96648 5.8319 5.84462 5.78113C5.72276 5.73036 5.59206 5.70422 5.46005 5.70422C5.32803 5.70422 5.19733 5.73036 5.07547 5.78113C4.95361 5.8319 4.84301 5.90629 4.75005 6.00002L0.880046 9.85002C0.318244 10.4125 0.00268555 11.175 0.00268555 11.97C0.00268555 12.765 0.318244 13.5275 0.880046 14.09Z" fill="#374957"/>
</g>
<defs>
<clipPath id="clip0_74_8912">
<rect width="24" height="24" fill="white"/>
</clipPath>
</defs>
</svg>
