<svg width="24" height="24" viewBox="0 0 24 24" fill="none" xmlns="http://www.w3.org/2000/svg">
<g clip-path="url(#clip0_74_9074)">
<path d="M11.6919 22.9998C11.2978 23.0008 10.9074 22.9236 10.5434 22.7728C10.1793 22.6219 9.84877 22.4003 9.57092 22.1208L6.18392 18.6998C6.07722 18.6104 5.99037 18.4997 5.92892 18.3748C5.86747 18.2499 5.83277 18.1135 5.82705 17.9744C5.82133 17.8354 5.8447 17.6966 5.89569 17.5671C5.94667 17.4375 6.02414 17.3201 6.12313 17.2222C6.22211 17.1243 6.34045 17.0482 6.47055 16.9987C6.60065 16.9492 6.73965 16.9274 6.87866 16.9347C7.01767 16.942 7.15363 16.9783 7.27783 17.0411C7.40202 17.104 7.51173 17.1921 7.59992 17.2998L10.9839 20.7138C11.1744 20.8945 11.4269 20.9952 11.6894 20.9952C11.9519 20.9952 12.2045 20.8945 12.3949 20.7138L17.8089 15.2998C17.9964 15.1122 18.2508 15.0067 18.5161 15.0066C18.7813 15.0065 19.0358 15.1118 19.2234 15.2993C19.4111 15.4868 19.5165 15.7412 19.5166 16.0064C19.5167 16.2717 19.4114 16.5262 19.2239 16.7138L13.8089 22.1278C13.5311 22.4057 13.201 22.6259 12.8376 22.7755C12.4743 22.9252 12.0849 23.0014 11.6919 22.9998ZM6.99992 21.9998C6.99992 21.7346 6.89456 21.4802 6.70702 21.2927C6.51949 21.1052 6.26513 20.9998 5.99992 20.9998H5.68292C4.82888 20.9834 4.00512 20.6805 3.34391 20.1397C2.6827 19.5989 2.2224 18.8516 2.03692 18.0178C1.92826 17.3012 2.04683 16.5686 2.37596 15.9229C2.70509 15.2772 3.22824 14.7509 3.87192 14.4178C4.33041 14.164 4.67055 13.7399 4.81876 13.2372C4.96698 12.7346 4.91135 12.1938 4.66392 11.7318C4.27563 10.9912 4.04641 10.1777 3.99097 9.34338C3.93554 8.50905 4.0551 7.67234 4.342 6.88693C4.6289 6.10152 5.0768 5.38474 5.65696 4.78259C6.23712 4.18043 6.93675 3.70619 7.71094 3.39028C8.48514 3.07437 9.31682 2.92377 10.1526 2.94814C10.9885 2.97251 11.81 3.17131 12.5644 3.53179C13.3189 3.89227 13.9897 4.40647 14.5338 5.04141C15.0779 5.67635 15.4833 6.418 15.7239 7.21879C15.8717 7.70158 16.1351 8.14096 16.4913 8.49875C16.8476 8.85654 17.2858 9.12191 17.7679 9.2718C19.0746 9.66914 20.2055 10.5024 20.9722 11.6327C21.7389 12.7629 22.0949 14.1218 21.9809 15.4828C21.8658 16.6648 21.3933 17.7838 20.6263 18.6906C19.8594 19.5974 18.8344 20.249 17.6879 20.5588C17.439 20.644 17.2338 20.8238 17.1165 21.0593C16.9993 21.2948 16.9796 21.567 17.0617 21.8169C17.1438 22.0668 17.321 22.2744 17.555 22.3945C17.7891 22.5146 18.061 22.5377 18.3119 22.4588C19.9506 21.9912 21.3929 21.0035 22.4213 19.6446C23.4498 18.2858 24.0086 16.6295 24.0136 14.9253C24.0185 13.2212 23.4694 11.5617 22.4489 10.1969C21.4284 8.83205 19.9919 7.83597 18.3559 7.3588C18.1843 7.30532 18.0286 7.21022 17.9026 7.08199C17.7766 6.95375 17.6843 6.79634 17.6339 6.6238C17.1048 4.92342 16.0234 3.4482 14.5611 2.43183C13.0988 1.41546 11.3392 0.916055 9.56103 1.01271C7.78284 1.10937 6.08774 1.79657 4.74423 2.96545C3.40073 4.13434 2.48564 5.71808 2.14392 7.4658C1.79247 9.2328 2.07577 11.0671 2.94392 12.6458C1.93168 13.1677 1.10866 13.994 0.590751 15.0083C0.0728397 16.0226 -0.113869 17.1738 0.0569165 18.2998C0.317568 19.6076 1.01773 20.7869 2.04113 21.6419C3.06454 22.4968 4.3496 22.976 5.68292 22.9998H5.99992C6.26513 22.9998 6.51949 22.8944 6.70702 22.7069C6.89456 22.5194 6.99992 22.265 6.99992 21.9998Z" fill="#374957"/>
</g>
<defs>
<clipPath id="clip0_74_9074">
<rect width="24" height="24" fill="white"/>
</clipPath>
</defs>
</svg>
