<svg width="24" height="24" viewBox="0 0 24 24" fill="none" xmlns="http://www.w3.org/2000/svg">
<g clip-path="url(#clip0_74_8757)">
<path d="M21.77 8.94835C21.6068 8.89001 21.4577 8.79806 21.3323 8.67845C21.2069 8.55884 21.108 8.41423 21.042 8.25398C20.976 8.09374 20.9444 7.92143 20.9492 7.7482C20.954 7.57497 20.9952 7.40468 21.07 7.24835C21.3569 6.64441 21.45 5.96644 21.3363 5.30751C21.2226 4.64858 20.9078 4.04098 20.435 3.56811C19.9623 3.09524 19.3548 2.78027 18.6959 2.66644C18.0369 2.55261 17.359 2.6455 16.755 2.93235C16.5986 3.00698 16.4283 3.04798 16.2551 3.05272C16.082 3.05746 15.9097 3.02583 15.7495 2.95986C15.5893 2.8939 15.4447 2.79507 15.3251 2.66976C15.2054 2.54444 15.1134 2.39543 15.055 2.23235C14.8301 1.60343 14.4164 1.05938 13.8704 0.67472C13.3244 0.290057 12.6728 0.0835876 12.005 0.0835876C11.3371 0.0835876 10.6855 0.290057 10.1395 0.67472C9.5935 1.05938 9.17976 1.60343 8.95495 2.23235C8.89661 2.39553 8.80466 2.54464 8.68505 2.67004C8.56544 2.79544 8.42083 2.89433 8.26059 2.96032C8.10034 3.0263 7.92803 3.05791 7.7548 3.05309C7.58157 3.04827 7.41128 3.00714 7.25495 2.93235C6.65063 2.64322 5.97152 2.54859 5.31117 2.6615C4.65083 2.77441 4.04174 3.0893 3.56781 3.56279C3.09388 4.03628 2.77843 4.64508 2.66491 5.30532C2.55139 5.96556 2.64538 6.64476 2.93395 7.24935C3.0089 7.40565 3.05016 7.57596 3.05506 7.74924C3.05995 7.92251 3.02838 8.09488 2.96238 8.25517C2.89638 8.41546 2.79742 8.56009 2.67194 8.67967C2.54645 8.79926 2.39723 8.89114 2.23395 8.94935C1.60548 9.17461 1.06194 9.58852 0.677669 10.1345C0.293397 10.6804 0.0871582 11.3317 0.0871582 11.9993C0.0871582 12.667 0.293397 13.3183 0.677669 13.8642C1.06194 14.4102 1.60548 14.8241 2.23395 15.0494C2.39757 15.1072 2.54721 15.1988 2.67315 15.3181C2.79909 15.4375 2.89853 15.5821 2.96501 15.7424C3.03148 15.9027 3.06352 16.0751 3.05903 16.2486C3.05454 16.4221 3.01363 16.5927 2.93895 16.7494C2.65179 17.3529 2.55845 18.0306 2.67173 18.6893C2.78502 19.348 3.09938 19.9555 3.57168 20.4285C4.04398 20.9015 4.65107 21.2167 5.30964 21.3309C5.96821 21.4451 6.64599 21.3527 7.24995 21.0664C7.40628 20.9916 7.57657 20.9504 7.7498 20.9456C7.92303 20.9408 8.09534 20.9724 8.25559 21.0384C8.41583 21.1044 8.56044 21.2033 8.68005 21.3287C8.79966 21.4541 8.89161 21.6032 8.94995 21.7664C9.17476 22.3953 9.5885 22.9393 10.1345 23.324C10.6805 23.7086 11.3321 23.9151 12 23.9151C12.6678 23.9151 13.3194 23.7086 13.8654 23.324C14.4114 22.9393 14.8251 22.3953 15.05 21.7664C15.1083 21.6032 15.2002 21.4541 15.3199 21.3287C15.4395 21.2033 15.5841 21.1044 15.7443 21.0384C15.9046 20.9724 16.0769 20.9408 16.2501 20.9456C16.4233 20.9504 16.5936 20.9916 16.75 21.0664C17.3539 21.3533 18.0319 21.4464 18.6908 21.3327C19.3497 21.219 19.9573 20.9042 20.4302 20.4314C20.9031 19.9587 21.218 19.3512 21.3319 18.6923C21.4457 18.0333 21.3528 17.3554 21.066 16.7514C20.9913 16.595 20.9503 16.4247 20.9456 16.2515C20.9408 16.0784 20.9725 15.9061 21.0384 15.7459C21.1044 15.5857 21.2032 15.4411 21.3285 15.3215C21.4539 15.2018 21.6029 15.1098 21.766 15.0514C22.3949 14.8265 22.9389 14.4128 23.3236 13.8668C23.7082 13.3208 23.9147 12.6692 23.9147 12.0014C23.9147 11.3335 23.7082 10.6819 23.3236 10.1359C22.9389 9.5899 22.3949 9.17616 21.766 8.95135L21.77 8.94835ZM21.1 13.1674C20.673 13.3192 20.2827 13.559 19.9542 13.8711C19.6257 14.1833 19.3664 14.5609 19.193 14.9795C19.0195 15.3982 18.9359 15.8485 18.9474 16.3015C18.959 16.7545 19.0654 17.2001 19.26 17.6094C19.37 17.8405 19.4058 18.1001 19.3623 18.3524C19.3188 18.6047 19.1982 18.8374 19.0171 19.0184C18.836 19.1994 18.6033 19.3198 18.351 19.3632C18.0986 19.4065 17.8391 19.3706 17.608 19.2604C17.1987 19.0659 16.7533 18.9594 16.3004 18.9479C15.8474 18.9363 15.3971 19.02 14.9785 19.1934C14.56 19.3668 14.1825 19.6262 13.8704 19.9547C13.5583 20.2831 13.3187 20.6734 13.167 21.1004C13.0815 21.3416 12.9235 21.5504 12.7145 21.6981C12.5055 21.8458 12.2559 21.9251 12 21.9251C11.744 21.9251 11.4944 21.8458 11.2854 21.6981C11.0764 21.5504 10.9184 21.3416 10.833 21.1004C10.681 20.6735 10.4411 20.2833 10.129 19.9549C9.81679 19.6265 9.43921 19.3672 9.0206 19.1938C8.602 19.0204 8.15167 18.9367 7.69872 18.9482C7.24577 18.9597 6.80025 19.066 6.39095 19.2604C6.15982 19.3701 5.90038 19.4056 5.64828 19.3619C5.39617 19.3183 5.16375 19.1977 4.98294 19.0167C4.80213 18.8356 4.6818 18.6031 4.63847 18.3509C4.59514 18.0987 4.63094 17.8393 4.74095 17.6084C4.93543 17.1991 5.04184 16.7536 5.0533 16.3006C5.06476 15.8476 4.98103 15.3973 4.80751 14.9787C4.63398 14.5601 4.37454 14.1826 4.04595 13.8706C3.71736 13.5586 3.32695 13.319 2.89995 13.1674C2.65917 13.0815 2.45085 12.9232 2.30354 12.7143C2.15624 12.5054 2.07716 12.256 2.07716 12.0003C2.07716 11.7447 2.15624 11.4953 2.30354 11.2864C2.45085 11.0775 2.65917 10.9192 2.89995 10.8334C3.32709 10.6818 3.71763 10.4422 4.04628 10.13C4.37494 9.81794 4.6344 9.4403 4.80785 9.02157C4.9813 8.60283 5.06489 8.15234 5.05319 7.69925C5.04149 7.24616 4.93478 6.80058 4.73995 6.39135C4.63008 6.16028 4.59444 5.90087 4.63792 5.64873C4.6814 5.3966 4.80187 5.16411 4.98279 4.98319C5.16371 4.80227 5.3962 4.6818 5.64834 4.63832C5.90047 4.59484 6.15989 4.63048 6.39095 4.74035C6.80023 4.93485 7.24577 5.04132 7.69876 5.05286C8.15176 5.06439 8.60214 4.98075 9.02079 4.80734C9.43944 4.63392 9.81704 4.37459 10.1292 4.0461C10.4413 3.71762 10.6811 3.32729 10.833 2.90035C10.9184 2.65912 11.0764 2.45028 11.2854 2.30258C11.4944 2.15488 11.744 2.07557 12 2.07557C12.2559 2.07557 12.5055 2.15488 12.7145 2.30258C12.9235 2.45028 13.0815 2.65912 13.167 2.90035C13.3188 3.32729 13.5586 3.71762 13.8707 4.0461C14.1829 4.37459 14.5605 4.63392 14.9791 4.80734C15.3978 4.98075 15.8481 5.06439 16.3011 5.05286C16.7541 5.04132 17.1997 4.93485 17.609 4.74035C17.8401 4.63027 18.0997 4.59452 18.352 4.638C18.6044 4.68148 18.837 4.80206 19.018 4.98316C19.199 5.16426 19.3194 5.39699 19.3628 5.64933C19.4061 5.90168 19.3702 6.16125 19.26 6.39235C19.0655 6.80155 18.959 7.24702 18.9475 7.69995C18.9359 8.15288 19.0196 8.60319 19.193 9.02176C19.3664 9.44033 19.6258 9.81785 19.9543 10.1299C20.2827 10.442 20.673 10.6816 21.1 10.8334C21.3412 10.9188 21.55 11.0768 21.6977 11.2858C21.8454 11.4948 21.9247 11.7444 21.9247 12.0003C21.9247 12.2563 21.8454 12.5059 21.6977 12.7149C21.55 12.9239 21.3412 13.0819 21.1 13.1674Z" fill="#374957"/>
</g>
<defs>
<clipPath id="clip0_74_8757">
<rect width="24" height="24" fill="white"/>
</clipPath>
</defs>
</svg>
