<svg width="24" height="24" viewBox="0 0 24 24" fill="none" xmlns="http://www.w3.org/2000/svg">
<g clip-path="url(#clip0_74_8825)">
<path d="M19.9811 7.02267V1.02267C19.9811 0.757449 20.0864 0.503095 20.274 0.315558C20.4615 0.128022 20.7158 0.022665 20.9811 0.022665C21.2463 0.022665 21.5006 0.128022 21.6882 0.315558C21.8757 0.503095 21.9811 0.757449 21.9811 1.02267V7.02267C21.9811 7.28788 21.8757 7.54224 21.6882 7.72977C21.5006 7.91731 21.2463 8.02267 20.9811 8.02267C20.7158 8.02267 20.4615 7.91731 20.274 7.72977C20.0864 7.54224 19.9811 7.28788 19.9811 7.02267ZM16.9811 8.02267C17.2463 8.02267 17.5006 7.91731 17.6882 7.72977C17.8757 7.54224 17.9811 7.28788 17.9811 7.02267V1.02267C17.9811 0.757449 17.8757 0.503095 17.6882 0.315558C17.5006 0.128022 17.2463 0.022665 16.9811 0.022665C16.7158 0.022665 16.4615 0.128022 16.274 0.315558C16.0864 0.503095 15.9811 0.757449 15.9811 1.02267V7.02267C15.9811 7.28788 16.0864 7.54224 16.274 7.72977C16.4615 7.91731 16.7158 8.02267 16.9811 8.02267ZM23.0761 21.1387L22.1641 22.1887C13.9741 30.0287 -5.95594 10.1047 1.76406 1.88867L2.91406 0.888665C3.49589 0.324929 4.27639 0.0131246 5.08648 0.0207988C5.89658 0.028473 6.67103 0.355008 7.24206 0.929665C7.27307 0.959665 9.12406 3.36667 9.12406 3.36667C9.67387 3.94399 9.98012 4.71093 9.97919 5.50817C9.97826 6.3054 9.67022 7.07163 9.11907 7.64767L7.95906 9.09967C8.5999 10.6572 9.54221 12.0727 10.7318 13.2649C11.9215 14.4571 13.3349 15.4025 14.8911 16.0467L16.3551 14.8817C16.9309 14.33 17.6972 14.0214 18.4947 14.0201C19.2921 14.0188 20.0594 14.3248 20.6371 14.8747C20.6371 14.8747 23.0441 16.7277 23.0751 16.7587C23.6553 17.3397 23.9813 18.1273 23.9815 18.9485C23.9817 19.7696 23.6561 20.5573 23.0761 21.1387ZM21.7001 18.2157C21.7001 18.2157 19.3001 16.3737 19.2751 16.3437C19.0665 16.1443 18.7891 16.0331 18.5006 16.0331C18.2121 16.0331 17.9346 16.1443 17.7261 16.3437C17.7001 16.3707 15.6821 17.9787 15.6821 17.9787C15.546 18.0867 15.3842 18.1574 15.2126 18.1839C15.0409 18.2104 14.8653 18.1917 14.7031 18.1297C12.6865 17.3796 10.8548 16.2044 9.33247 14.684C7.81012 13.1635 6.63268 11.3333 5.88006 9.31767C5.81435 9.1537 5.79324 8.97525 5.81889 8.80048C5.84453 8.6257 5.91602 8.46084 6.02606 8.32267C6.02606 8.32267 7.63306 6.30567 7.66106 6.27867C7.86564 6.07261 7.98044 5.79403 7.98044 5.50367C7.98044 5.21331 7.86564 4.93472 7.66106 4.72867C7.62906 4.69967 5.78806 2.30567 5.78806 2.30567C5.57909 2.11804 5.30627 2.01745 5.02551 2.02452C4.74476 2.03158 4.47734 2.14577 4.27806 2.34367L3.12706 3.34867C-2.51293 10.1277 14.7581 26.4417 20.7001 20.8257L21.6121 19.7757C21.8266 19.5781 21.9558 19.3047 21.9722 19.0135C21.9887 18.7223 21.891 18.4361 21.7001 18.2157Z" fill="#374957"/>
</g>
<defs>
<clipPath id="clip0_74_8825">
<rect width="24" height="24" fill="white"/>
</clipPath>
</defs>
</svg>
