<svg width="24" height="24" viewBox="0 0 24 24" fill="none" xmlns="http://www.w3.org/2000/svg">
<g clip-path="url(#clip0_74_9207)">
<path d="M13.0001 2.99999V0.999992C13.0001 0.734776 12.8948 0.480422 12.7072 0.292886C12.5197 0.105349 12.2653 -7.62939e-06 12.0001 -7.62939e-06C11.7349 -7.62939e-06 11.4806 0.105349 11.293 0.292886C11.1055 0.480422 11.0001 0.734776 11.0001 0.999992V2.99999C9.14426 3.00211 7.36501 3.74029 6.05271 5.05258C4.74042 6.36488 4.00224 8.14413 4.00012 9.99999V16C4.00012 18.1217 4.84298 20.1566 6.34327 21.6568C7.84356 23.1571 9.87839 24 12.0001 24C14.1219 24 16.1567 23.1571 17.657 21.6568C19.1573 20.1566 20.0001 18.1217 20.0001 16V9.99999C19.998 8.14413 19.2598 6.36488 17.9475 5.05258C16.6352 3.74029 14.856 3.00211 13.0001 2.99999ZM18.0001 16C18.0001 17.5913 17.368 19.1174 16.2428 20.2426C15.1175 21.3679 13.5914 22 12.0001 22C10.4088 22 8.8827 21.3679 7.75748 20.2426C6.63226 19.1174 6.00012 17.5913 6.00012 16V9.99999C6.00171 8.6744 6.529 7.40355 7.46634 6.46621C8.40368 5.52887 9.67453 5.00158 11.0001 4.99999H13.0001C14.3257 5.00158 15.5966 5.52887 16.5339 6.46621C17.4712 7.40355 17.9985 8.6744 18.0001 9.99999V16Z" fill="#374957"/>
<path d="M12.0001 7.00031C11.7349 7.00031 11.4806 7.10566 11.293 7.2932C11.1055 7.48073 11.0001 7.73509 11.0001 8.0003V10.0003C11.0001 10.2655 11.1055 10.5199 11.293 10.7074C11.4806 10.8949 11.7349 11.0003 12.0001 11.0003C12.2653 11.0003 12.5197 10.8949 12.7072 10.7074C12.8948 10.5199 13.0001 10.2655 13.0001 10.0003V8.0003C13.0001 7.73509 12.8948 7.48073 12.7072 7.2932C12.5197 7.10566 12.2653 7.00031 12.0001 7.00031Z" fill="#374957"/>
</g>
<defs>
<clipPath id="clip0_74_9207">
<rect width="24" height="24" fill="white"/>
</clipPath>
</defs>
</svg>
