<svg width="24" height="24" viewBox="0 0 24 24" fill="none" xmlns="http://www.w3.org/2000/svg">
<g clip-path="url(#clip0_74_9112)">
<path d="M23.4132 18.2399L15.5932 2.27491C15.2641 1.60265 14.7529 1.03624 14.1178 0.640068C13.4827 0.243899 12.7492 0.0338745 12.0007 0.0338745C11.2522 0.0338745 10.5187 0.243899 9.88362 0.640068C9.24854 1.03624 8.73736 1.60265 8.40821 2.27491L0.587209 18.2399C0.288405 18.8497 0.149781 19.5256 0.184401 20.2038C0.21902 20.882 0.425743 21.5403 0.78509 22.1165C1.14444 22.6928 1.64458 23.168 2.23838 23.4975C2.83219 23.827 3.50011 23.9999 4.17921 23.9999H19.8202C20.4994 24.0001 21.1674 23.8273 21.7614 23.4979C22.3553 23.1684 22.8556 22.6932 23.2151 22.1169C23.5745 21.5407 23.7813 20.8824 23.816 20.2041C23.8507 19.5258 23.7121 18.8498 23.4132 18.2399ZM19.6002 14.9999H4.40021L6.85021 9.99991H17.1502L19.6002 14.9999ZM10.2002 3.15491C10.3648 2.81892 10.6204 2.53584 10.9379 2.33785C11.2554 2.13986 11.622 2.0349 11.9962 2.0349C12.3704 2.0349 12.737 2.13986 13.0545 2.33785C13.372 2.53584 13.6276 2.81892 13.7922 3.15491L16.1692 7.99991H7.83021L10.2002 3.15491ZM21.5142 21.0549C21.3369 21.3459 21.087 21.5858 20.7889 21.7509C20.4908 21.9161 20.1549 22.0009 19.8142 21.9969H4.17921C3.83932 21.9976 3.50487 21.9116 3.20742 21.7472C2.90997 21.5827 2.65935 21.3451 2.47921 21.0569C2.29906 20.7687 2.19535 20.4393 2.17785 20.0999C2.16036 19.7604 2.22966 19.4221 2.37921 19.1169L3.42121 16.9999H20.5782L21.6162 19.1199C21.7694 19.4237 21.8409 19.7621 21.8237 20.1019C21.8065 20.4417 21.7013 20.7711 21.5182 21.0579L21.5142 21.0549Z" fill="#374957"/>
</g>
<defs>
<clipPath id="clip0_74_9112">
<rect width="24" height="24" fill="white"/>
</clipPath>
</defs>
</svg>
