<svg width="24" height="24" viewBox="0 0 24 24" fill="none" xmlns="http://www.w3.org/2000/svg">
<g clip-path="url(#clip0_74_8834)">
<path d="M21.0001 17.9998C20.2245 18.0007 19.4796 18.3034 18.9231 18.8438L15.9631 17.3628C15.9831 17.2427 15.9954 17.1215 16.0001 16.9998C15.9954 16.8782 15.9831 16.7569 15.9631 16.6368L18.9231 15.1558C19.4216 15.6333 20.0696 15.9238 20.7576 15.9783C21.4456 16.0328 22.1314 15.848 22.6988 15.455C23.2662 15.0621 23.6804 14.4851 23.8713 13.8219C24.0622 13.1587 24.0181 12.4498 23.7465 11.8154C23.4749 11.1809 22.9924 10.6597 22.3807 10.3401C21.769 10.0205 21.0656 9.92198 20.3897 10.0613C19.7137 10.2007 19.1066 10.5692 18.6712 11.1047C18.2358 11.6402 17.9987 12.3097 18.0001 12.9998C18.0048 13.1215 18.0172 13.2427 18.0371 13.3628L15.0771 14.8438C14.6537 14.4342 14.1191 14.1583 13.5399 14.0505C12.9607 13.9427 12.3626 14.0078 11.8202 14.2378C11.2778 14.4677 10.8151 14.8522 10.4898 15.3434C10.1645 15.8346 9.99106 16.4107 9.99106 16.9998C9.99106 17.589 10.1645 18.1651 10.4898 18.6563C10.8151 19.1475 11.2778 19.532 11.8202 19.7619C12.3626 19.9919 12.9607 20.057 13.5399 19.9492C14.1191 19.8414 14.6537 19.5655 15.0771 19.1558L18.0371 20.6368C18.0172 20.757 18.0048 20.8782 18.0001 20.9998C18.0001 21.5932 18.1761 22.1732 18.5057 22.6666C18.8354 23.1599 19.3039 23.5444 19.8521 23.7715C20.4003 23.9985 21.0035 24.058 21.5854 23.9422C22.1673 23.8264 22.7019 23.5407 23.1214 23.1212C23.541 22.7016 23.8267 22.1671 23.9425 21.5851C24.0582 21.0032 23.9988 20.4 23.7718 19.8518C23.5447 19.3036 23.1602 18.8351 22.6668 18.5054C22.1735 18.1758 21.5935 17.9998 21.0001 17.9998ZM21.0001 11.9998C21.1979 11.9998 21.3912 12.0585 21.5557 12.1684C21.7201 12.2783 21.8483 12.4344 21.924 12.6172C21.9997 12.7999 22.0195 13.001 21.9809 13.1949C21.9423 13.3889 21.8471 13.5671 21.7072 13.707C21.5674 13.8468 21.3892 13.942 21.1952 13.9806C21.0012 14.0192 20.8002 13.9994 20.6174 13.9237C20.4347 13.848 20.2785 13.7199 20.1687 13.5554C20.0588 13.391 20.0001 13.1976 20.0001 12.9998C20.0001 12.7346 20.1055 12.4803 20.293 12.2927C20.4806 12.1052 20.7349 11.9998 21.0001 11.9998ZM13.0001 17.9998C12.8023 17.9998 12.609 17.9412 12.4446 17.8313C12.2801 17.7214 12.1519 17.5653 12.0762 17.3825C12.0006 17.1998 11.9808 16.9987 12.0193 16.8048C12.0579 16.6108 12.1532 16.4326 12.293 16.2927C12.4329 16.1529 12.6111 16.0576 12.805 16.0191C12.999 15.9805 13.2001 16.0003 13.3828 16.076C13.5655 16.1517 13.7217 16.2798 13.8316 16.4443C13.9415 16.6087 14.0001 16.8021 14.0001 16.9998C14.0001 17.2651 13.8948 17.5194 13.7072 17.707C13.5197 17.8945 13.2653 17.9998 13.0001 17.9998ZM21.0001 21.9998C20.8023 21.9998 20.609 21.9412 20.4446 21.8313C20.2801 21.7214 20.1519 21.5653 20.0762 21.3825C20.0006 21.1998 19.9808 20.9987 20.0193 20.8048C20.0579 20.6108 20.1532 20.4326 20.293 20.2927C20.4329 20.1529 20.6111 20.0576 20.805 20.0191C20.999 19.9805 21.2001 20.0003 21.3828 20.076C21.5655 20.1517 21.7217 20.2798 21.8316 20.4443C21.9415 20.6087 22.0001 20.8021 22.0001 20.9998C22.0001 21.2651 21.8948 21.5194 21.7072 21.707C21.5197 21.8945 21.2653 21.9998 21.0001 21.9998ZM12.0001 21.9998C12.0001 22.2651 11.8948 22.5194 11.7072 22.707C11.5197 22.8945 11.2653 22.9998 11.0001 22.9998H5.67913C4.3464 22.9755 3.06208 22.4961 2.03943 21.6411C1.01677 20.7862 0.317289 19.6072 0.0571282 18.2998C-0.113163 17.1745 0.0735742 16.0242 0.591076 15.0105C1.10858 13.9968 1.93081 13.1709 2.94213 12.6488C2.07398 11.0702 1.79068 9.23585 2.14213 7.46885C2.48385 5.72113 3.39894 4.13739 4.74244 2.96851C6.08595 1.79962 7.78105 1.11242 9.55924 1.01577C11.3374 0.919107 13.097 1.41852 14.5593 2.43488C16.0216 3.45125 17.103 4.92647 17.6321 6.62685C17.6825 6.7994 17.7748 6.9568 17.9008 7.08504C18.0268 7.21328 18.1825 7.30837 18.3541 7.36185C18.4825 7.39797 18.6023 7.45941 18.7066 7.54254C18.8109 7.62568 18.8975 7.72883 18.9613 7.84592C19.0251 7.96302 19.0649 8.09169 19.0782 8.22438C19.0915 8.35706 19.0782 8.49108 19.039 8.61854C18.9998 8.746 18.9355 8.86432 18.8498 8.96656C18.7642 9.06879 18.659 9.15286 18.5404 9.21383C18.4218 9.27479 18.2922 9.31142 18.1592 9.32156C18.0263 9.33169 17.8926 9.31513 17.7661 9.27285C17.284 9.12296 16.8458 8.85759 16.4896 8.4998C16.1333 8.14201 15.8699 7.70263 15.7221 7.21985C15.4815 6.41905 15.0761 5.6774 14.532 5.04246C13.9879 4.40753 13.3171 3.89332 12.5626 3.53284C11.8082 3.17236 10.9867 2.97356 10.1509 2.94919C9.31504 2.92482 8.48335 3.07542 7.70915 3.39133C6.93496 3.70724 6.23533 4.18148 5.65517 4.78364C5.07501 5.3858 4.62711 6.10257 4.34021 6.88798C4.05331 7.67339 3.93375 8.5101 3.98918 9.34443C4.04462 10.1788 4.27384 10.9923 4.66213 11.7328C4.90956 12.1948 4.96519 12.7356 4.81697 13.2383C4.66876 13.7409 4.32862 14.165 3.87013 14.4188C3.22645 14.7519 2.7033 15.2783 2.37417 15.924C2.04504 16.5697 1.92647 17.3023 2.03513 18.0188C2.22023 18.8524 2.68019 19.5995 3.34108 20.1402C4.00197 20.6808 4.82542 20.9836 5.67913 20.9998H11.0001C11.2653 20.9998 11.5197 21.1052 11.7072 21.2927C11.8948 21.4803 12.0001 21.7346 12.0001 21.9998Z" fill="#374957"/>
</g>
<defs>
<clipPath id="clip0_74_8834">
<rect width="24" height="24" fill="white"/>
</clipPath>
</defs>
</svg>
