<svg width="24" height="24" viewBox="0 0 24 24" fill="none" xmlns="http://www.w3.org/2000/svg">
<g clip-path="url(#clip0_74_8871)">
<path d="M12.0002 -7.62939e-06C9.82131 4.17498e-05 7.69148 0.647207 5.88087 1.85941C4.07026 3.07161 2.66045 4.79424 1.83024 6.80881C1.00003 8.82338 0.786831 11.0391 1.21767 13.175C1.64852 15.3109 2.704 17.2708 4.25024 18.806L8.19324 22.447C9.20673 23.4391 10.5675 23.9963 11.9857 24C13.4039 24.0038 14.7675 23.4537 15.7862 22.467L19.7782 18.778C21.3166 17.2396 22.3641 15.2796 22.7886 13.1459C23.213 11.0121 22.9951 8.80047 22.1626 6.79052C21.3301 4.78058 19.9202 3.06264 18.1113 1.85394C16.3025 0.645238 14.1758 6.14296e-05 12.0002 -7.62939e-06V-7.62939e-06ZM18.3922 17.337L14.4082 21.018C13.7532 21.6352 12.8862 21.9774 11.9862 21.9741C11.0861 21.9707 10.2217 21.622 9.57124 21L5.63624 17.364C4.58969 16.3174 3.8174 15.0289 3.38777 13.6126C2.95814 12.1963 2.88443 10.6959 3.17318 9.24424C3.46193 7.79262 4.10422 6.43462 5.04315 5.29053C5.98209 4.14643 7.18869 3.25155 8.55608 2.68516C9.92347 2.11877 11.4094 1.89834 12.8824 2.04341C14.3553 2.18847 15.7697 2.69455 17.0003 3.51682C18.231 4.33909 19.2398 5.45216 19.9375 6.75745C20.6352 8.06273 21.0002 9.51994 21.0002 11C21.0046 12.176 20.7765 13.3413 20.3289 14.4289C19.8813 15.5164 19.2232 16.5047 18.3922 17.337ZM16.7102 7.66299L13.7102 5.58199C13.2076 5.23469 12.6112 5.04866 12.0002 5.04866C11.3893 5.04866 10.7929 5.23469 10.2902 5.58199L7.29024 7.66299C6.89215 7.93916 6.56687 8.30764 6.34222 8.73691C6.11757 9.16619 6.00023 9.64349 6.00024 10.128V13.5C6.00024 14.163 6.26364 14.7989 6.73248 15.2678C7.20132 15.7366 7.8372 16 8.50024 16H15.5002C16.1633 16 16.7992 15.7366 17.268 15.2678C17.7369 14.7989 18.0002 14.163 18.0002 13.5V10.128C18.0003 9.64349 17.8829 9.16619 17.6583 8.73691C17.4336 8.30764 17.1083 7.93916 16.7102 7.66299ZM16.0002 13.5C16.0002 13.6326 15.9476 13.7598 15.8538 13.8535C15.76 13.9473 15.6329 14 15.5002 14H14.0002V12C14.0002 11.7348 13.8949 11.4804 13.7074 11.2929C13.5198 11.1054 13.2655 11 13.0002 11H11.0002C10.735 11 10.4807 11.1054 10.2931 11.2929C10.1056 11.4804 10.0002 11.7348 10.0002 12V14H8.50024C8.36764 14 8.24046 13.9473 8.14669 13.8535C8.05292 13.7598 8.00024 13.6326 8.00024 13.5V10.128C8.00019 9.96644 8.03927 9.80727 8.11416 9.66411C8.18904 9.52096 8.2975 9.39808 8.43024 9.30599L11.4302 7.22499C11.598 7.10967 11.7967 7.04793 12.0002 7.04793C12.2038 7.04793 12.4025 7.10967 12.5702 7.22499L15.5702 9.30599C15.703 9.39808 15.8114 9.52096 15.8863 9.66411C15.9612 9.80727 16.0003 9.96644 16.0002 10.128V13.5Z" fill="#374957"/>
</g>
<defs>
<clipPath id="clip0_74_8871">
<rect width="24" height="24" fill="white"/>
</clipPath>
</defs>
</svg>
