<svg width="24" height="24" viewBox="0 0 24 24" fill="none" xmlns="http://www.w3.org/2000/svg">
<g clip-path="url(#clip0_74_8823)">
<path d="M23.6999 0.307385C23.5124 0.12022 23.2583 0.0150981 22.9934 0.0150981C22.7285 0.0150981 22.4744 0.12022 22.2869 0.307385L10.0929 12.4944C9.23111 11.4637 8.52001 10.316 7.98092 9.08539L9.13892 7.63139C9.68916 7.05581 9.99683 6.29057 9.99813 5.49429C9.99943 4.69801 9.69428 3.93176 9.14592 3.35439C9.14592 3.35439 7.29392 0.950385 7.26392 0.920385C6.69384 0.346124 5.92068 0.0192691 5.11155 0.0104742C4.30242 0.00167937 3.52234 0.311651 2.93992 0.873385L1.79092 1.87339C-2.22508 6.32139 1.15292 12.5874 5.33992 17.2444L0.299915 22.2804C0.125164 22.4703 0.0305721 22.7203 0.0359171 22.9783C0.0412622 23.2363 0.14613 23.4822 0.328596 23.6647C0.511062 23.8472 0.756999 23.952 1.01499 23.9574C1.27298 23.9627 1.52305 23.8681 1.71292 23.6934L23.6999 1.72039C23.8871 1.5329 23.9922 1.2788 23.9922 1.01389C23.9922 0.748966 23.8871 0.494872 23.6999 0.307385ZM2.00692 6.24539C1.99142 5.16273 2.40316 4.11757 3.15292 3.33639L4.30192 2.33639C4.50101 2.13864 4.76815 2.02445 5.04867 2.0172C5.32919 2.00995 5.60187 2.11019 5.81091 2.29739C5.81091 2.29739 7.65192 4.68639 7.68192 4.71639C7.88703 4.92154 8.00227 5.19978 8.00227 5.48989C8.00227 5.78 7.88703 6.05823 7.68192 6.26339C7.65592 6.28939 6.04791 8.30039 6.04791 8.30039C5.93663 8.43889 5.86426 8.60455 5.83825 8.78031C5.81224 8.95607 5.83352 9.13558 5.89992 9.30039C6.56115 10.9816 7.49575 12.542 8.66592 13.9184L6.75191 15.8334C3.80891 12.6744 2.00692 9.08739 2.00692 6.24539ZM23.0849 16.7334C23.6629 17.3143 23.9874 18.1004 23.9874 18.9199C23.9874 19.7394 23.6629 20.5255 23.0849 21.1064L22.1749 22.1544C18.2999 25.6814 13.5999 23.6184 9.19991 20.6454C9.09486 20.5666 9.00635 20.4679 8.93944 20.3549C8.87253 20.2419 8.82854 20.1168 8.80997 19.9868C8.77246 19.7243 8.84079 19.4576 8.99992 19.2454C9.15905 19.0332 9.39594 18.8929 9.65849 18.8554C9.92105 18.8179 10.1877 18.8863 10.3999 19.0454C13.9089 21.3604 17.7319 23.3874 20.7199 20.7944L21.6309 19.7454C21.8454 19.548 21.9743 19.2747 21.9901 18.9837C22.006 18.6926 21.9076 18.4069 21.7159 18.1874C21.7159 18.1874 19.3239 16.3474 19.2939 16.3174C19.0879 16.1134 18.8098 15.999 18.5199 15.999C18.23 15.999 17.9519 16.1134 17.7459 16.3174C17.7189 16.3444 15.7029 17.9504 15.7029 17.9504C15.5693 18.0573 15.4104 18.128 15.2415 18.1555C15.0726 18.183 14.8995 18.1664 14.7389 18.1074C14.0823 17.8576 13.4434 17.5633 12.8269 17.2264C12.6137 17.092 12.4591 16.882 12.3941 16.6385C12.3291 16.395 12.3584 16.1359 12.4762 15.9131C12.594 15.6903 12.7916 15.5202 13.0294 15.4368C13.2672 15.3534 13.5278 15.3629 13.7589 15.4634C14.1299 15.6634 14.5149 15.8544 14.9149 16.0244L16.3769 14.8614C16.9527 14.311 17.7182 14.0033 18.5147 14.0022C19.3112 14.0011 20.0776 14.3066 20.6549 14.8554C20.6549 14.8554 23.0539 16.7004 23.0849 16.7334Z" fill="#374957"/>
</g>
<defs>
<clipPath id="clip0_74_8823">
<rect width="24" height="24" fill="white"/>
</clipPath>
</defs>
</svg>
