<svg width="24" height="24" viewBox="0 0 24 24" fill="none" xmlns="http://www.w3.org/2000/svg">
<g clip-path="url(#clip0_74_9194)">
<path d="M21.2612 2.7389C19.5447 1.07943 17.2832 0.100954 14.8984 -0.0140432C12.5137 -0.12904 10.1685 0.62729 8.30024 2.1139C7.89487 1.4634 7.32968 0.92753 6.65854 0.557342C5.98739 0.187153 5.23264 -0.00502429 4.46618 -0.000881577C3.69973 0.00326114 2.94709 0.203586 2.27999 0.581008C1.61289 0.95843 1.05353 1.50038 0.655213 2.15522C0.256896 2.81006 0.0328849 3.55599 0.00452049 4.32193C-0.0238439 5.08787 0.144383 5.84833 0.493176 6.53083C0.841968 7.21334 1.35971 7.79518 1.99707 8.22091C2.63443 8.64664 3.37018 8.90208 4.13424 8.9629C3.81917 10.8938 4.11347 12.8749 4.97624 14.6309C5.02321 14.7209 5.04167 14.8231 5.02916 14.9238C5.01666 15.0246 4.97378 15.1191 4.90624 15.1949L2.00024 16.9449C1.26076 17.3342 0.672838 17.9598 0.330146 18.7221C-0.0125463 19.4843 -0.090298 20.3392 0.109277 21.1508C0.308853 21.9623 0.774274 22.6837 1.43139 23.2C2.08851 23.7164 2.89953 23.9979 3.73524 23.9999C3.88797 23.9999 4.04057 23.9909 4.19224 23.9729C4.74797 23.9082 5.28184 23.7185 5.75379 23.418C6.22574 23.1175 6.6235 22.7141 6.91724 22.2379L8.98524 19.1109C9.05981 19.0379 9.15535 18.9901 9.25846 18.9741C9.36157 18.9582 9.46709 18.9749 9.56024 19.0219C11.4269 19.9257 13.5349 20.2049 15.5725 19.8183C17.6102 19.4316 19.4693 18.3997 20.8752 16.8749C22.789 14.9897 23.9073 12.4426 24.0002 9.7579C24.0519 8.46236 23.8353 7.17012 23.364 5.96226C22.8926 4.75441 22.1768 3.657 21.2612 2.7389ZM2.00024 4.4999C2.00024 4.00544 2.14686 3.5221 2.42156 3.11097C2.69627 2.69985 3.08671 2.37942 3.54353 2.1902C4.00034 2.00098 4.50301 1.95147 4.98796 2.04793C5.47292 2.1444 5.91837 2.3825 6.268 2.73213C6.61764 3.08176 6.85574 3.52722 6.9522 4.01217C7.04866 4.49712 6.99916 4.99979 6.80994 5.45661C6.62072 5.91342 6.30029 6.30387 5.88916 6.57857C5.47804 6.85328 4.99469 6.9999 4.50024 6.9999C3.8372 6.9999 3.20131 6.73651 2.73247 6.26767C2.26363 5.79882 2.00024 5.16294 2.00024 4.4999ZM10.4402 17.2259C9.93927 16.9779 9.36952 16.9054 8.82241 17.02C8.2753 17.1346 7.78255 17.4297 7.42324 17.8579C7.39924 17.8869 7.37724 17.9169 7.35624 17.9479L5.22924 21.1659C5.01958 21.5087 4.69788 21.7684 4.31863 21.9012C3.93938 22.0339 3.52591 22.0315 3.14826 21.8942C2.77061 21.757 2.452 21.4935 2.24643 21.1482C2.04085 20.803 1.96094 20.3973 2.02024 19.9999C2.06308 19.72 2.17281 19.4546 2.34011 19.2262C2.50741 18.9978 2.72734 18.8132 2.98124 18.6879L6.02224 16.8569C6.0666 16.8304 6.10874 16.8003 6.14824 16.7669C6.57531 16.4069 6.86894 15.9138 6.98193 15.3668C7.09492 14.8198 7.02072 14.2506 6.77124 13.7509C6.1182 12.4329 5.87674 10.9489 6.07824 9.4919L14.5112 17.9249C13.1153 18.0881 11.7018 17.8454 10.4402 17.2259ZM19.4612 15.4609C18.6756 16.2484 17.7488 16.881 16.7292 17.3259C16.7202 17.3159 16.7172 17.3029 16.7072 17.2929L7.36024 7.9449C7.8707 7.52712 8.28245 7.00162 8.56598 6.40603C8.84951 5.81045 8.9978 5.15952 9.00024 4.4999C9.00024 4.3809 8.97424 4.2689 8.96524 4.1529C10.4458 2.78254 12.3889 2.0213 14.4062 2.0213C16.4236 2.0213 18.3667 2.78254 19.8472 4.1529C20.5693 4.87898 21.1333 5.74662 21.5039 6.70123C21.8744 7.65585 22.0434 8.67681 22.0002 9.6999C21.9219 11.8743 21.0132 13.936 19.4612 15.4609Z" fill="#374957"/>
</g>
<defs>
<clipPath id="clip0_74_9194">
<rect width="24" height="24" fill="white"/>
</clipPath>
</defs>
</svg>
