<svg width="24" height="24" viewBox="0 0 24 24" fill="none" xmlns="http://www.w3.org/2000/svg">
<g clip-path="url(#clip0_74_8940)">
<path d="M22.5629 1.43732C20.1889 -0.936679 16.6439 -0.35768 11.9999 3.13732C7.35687 -0.35768 3.81287 -0.937679 1.43687 1.43732C-0.939135 3.81231 -0.358135 7.35631 3.13687 12.0003C-0.358135 16.6433 -0.938135 20.1883 1.43687 22.5633C1.88216 23.025 2.41726 23.3907 3.00921 23.6379C3.60117 23.885 4.23744 24.0083 4.87887 24.0003C6.84987 24.0003 9.22987 22.9483 11.9999 20.8643C14.7689 22.9483 17.1489 24.0003 19.1209 24.0003C19.7623 24.0083 20.3986 23.885 20.9905 23.6379C21.5825 23.3907 22.1176 23.025 22.5629 22.5633C24.9379 20.1883 24.3629 16.6443 20.8629 12.0003C24.3579 7.35631 24.9379 3.81231 22.5629 1.43732ZM19.0849 2.02832C19.467 2.01681 19.8475 2.08352 20.2029 2.22436C20.5584 2.3652 20.8813 2.57718 21.1519 2.84732C22.8979 4.59431 21.6079 7.56031 19.5639 10.3863C18.7259 9.39831 17.7819 8.37131 16.7059 7.29431C15.6299 6.21731 14.5999 5.27331 13.6119 4.43431C15.5099 3.06132 17.4719 2.02832 19.0849 2.02832ZM18.3109 12.0003C17.2999 13.2203 16.2289 14.3613 15.2949 15.3003C14.3609 16.2393 13.2199 17.3003 11.9999 18.3113C10.7799 17.3003 9.63887 16.2293 8.70487 15.3003C7.77087 14.3713 6.69987 13.2203 5.68887 12.0003C6.69987 10.7803 7.77087 9.63831 8.70487 8.70531C9.63887 7.77231 10.7799 6.70031 11.9999 5.68831C13.2199 6.69831 14.3609 7.77131 15.2999 8.70531C16.2389 9.63931 17.2999 10.7803 18.3109 12.0003ZM2.84787 2.84832C3.11813 2.57772 3.44097 2.36535 3.79647 2.22432C4.15197 2.08329 4.53259 2.01659 4.91487 2.02832C6.52787 2.02832 8.48987 3.06132 10.3879 4.43431C9.39987 5.27331 8.37187 6.21731 7.29387 7.29431C6.21587 8.37131 5.27387 9.39431 4.43487 10.3863C2.39187 7.56031 1.09987 4.59431 2.84787 2.84832ZM2.84787 21.1483C1.10187 19.4023 2.39187 16.4353 4.43487 13.6103C5.27387 14.5983 6.21787 15.6253 7.29387 16.7023C8.36987 17.7793 9.39387 18.7253 10.3829 19.5633C7.55787 21.6093 4.59187 22.9003 2.84787 21.1523V21.1483ZM21.1479 21.1483C19.4029 22.8923 16.4379 21.6053 13.6129 19.5633C14.5989 18.7253 15.6269 17.7763 16.7019 16.7023C17.7769 15.6283 18.7219 14.6023 19.5599 13.6103C21.6079 16.4403 22.8999 19.4063 21.1519 21.1523L21.1479 21.1483Z" fill="#374957"/>
<path d="M11.9998 14.0003C13.1043 14.0003 13.9997 13.1049 13.9997 12.0003C13.9997 10.8957 13.1043 10.0003 11.9998 10.0003C10.8952 10.0003 9.99976 10.8957 9.99976 12.0003C9.99976 13.1049 10.8952 14.0003 11.9998 14.0003Z" fill="#374957"/>
</g>
<defs>
<clipPath id="clip0_74_8940">
<rect width="24" height="24" fill="white"/>
</clipPath>
</defs>
</svg>
