<svg width="24" height="24" viewBox="0 0 24 24" fill="none" xmlns="http://www.w3.org/2000/svg">
<g clip-path="url(#clip0_74_8769)">
<path d="M0 11.9992C0 11.734 0.105357 11.4797 0.292893 11.2921C0.48043 11.1046 0.734784 10.9992 1 10.9992H7C7.26522 10.9992 7.51957 11.1046 7.70711 11.2921C7.89464 11.4797 8 11.734 8 11.9992C8 12.2645 7.89464 12.5188 7.70711 12.7063C7.51957 12.8939 7.26522 12.9992 7 12.9992H1C0.734784 12.9992 0.48043 12.8939 0.292893 12.7063C0.105357 12.5188 0 12.2645 0 11.9992ZM20.886 11.1062C21.3845 10.4834 21.7263 9.75009 21.8829 8.96785C22.0395 8.18561 22.0063 7.37723 21.786 6.61049C21.5657 5.84375 21.1648 5.14099 20.6169 4.56116C20.069 3.98132 19.39 3.5413 18.637 3.27799C17.8839 3.01469 17.0787 2.93577 16.2889 3.04786C15.499 3.15995 14.7476 3.45978 14.0975 3.9222C13.4474 4.38463 12.9177 4.99617 12.5528 5.70556C12.1878 6.41494 11.9983 7.20149 12 7.99924C12 8.26446 12.1054 8.51881 12.2929 8.70635C12.4804 8.89389 12.7348 8.99924 13 8.99924C13.2652 8.99924 13.5196 8.89389 13.7071 8.70635C13.8946 8.51881 14 8.26446 14 7.99924C14 7.4059 14.1759 6.82588 14.5056 6.33253C14.8352 5.83918 15.3038 5.45467 15.8519 5.2276C16.4001 5.00054 17.0033 4.94113 17.5853 5.05689C18.1672 5.17264 18.7018 5.45836 19.1213 5.87792C19.5409 6.29748 19.8266 6.83203 19.9424 7.41397C20.0581 7.99591 19.9987 8.59911 19.7716 9.14729C19.5446 9.69547 19.1601 10.164 18.6667 10.4937C18.1734 10.8233 17.5933 10.9992 17 10.9992H11C10.7348 10.9992 10.4804 11.1046 10.2929 11.2921C10.1054 11.4797 10 11.734 10 11.9992C10 12.2645 10.1054 12.5188 10.2929 12.7063C10.4804 12.8939 10.7348 12.9992 11 12.9992H20C20.5304 12.9992 21.0391 13.21 21.4142 13.585C21.7893 13.9601 22 14.4688 22 14.9992C21.991 17.3362 18.719 17.6472 17.943 15.6662C17.8547 15.4161 17.6706 15.2114 17.4313 15.097C17.192 14.9826 16.9171 14.9679 16.667 15.0562C16.4169 15.1446 16.2121 15.3286 16.0977 15.5679C15.9833 15.8072 15.9687 16.0821 16.057 16.3322C17.615 20.4142 23.952 19.5782 24 14.9992C23.9983 14.0937 23.6893 13.2155 23.1236 12.5083C22.558 11.8011 21.7691 11.3068 20.886 11.1062ZM11 15.9992H1C0.734784 15.9992 0.48043 16.1046 0.292893 16.2921C0.105357 16.4797 0 16.734 0 16.9992C0 17.2645 0.105357 17.5188 0.292893 17.7064C0.48043 17.8939 0.734784 17.9992 1 17.9992H11C11.5304 17.9992 12.0391 18.21 12.4142 18.585C12.7893 18.9601 13 19.4688 13 19.9992C12.991 22.3362 9.719 22.6472 8.943 20.6662C8.89927 20.5424 8.83158 20.4284 8.74378 20.3307C8.65599 20.233 8.54982 20.1536 8.43134 20.097C8.31285 20.0403 8.18436 20.0076 8.05322 20.0006C7.92207 19.9936 7.79084 20.0125 7.667 20.0562C7.54316 20.1 7.42915 20.1677 7.33148 20.2555C7.2338 20.3433 7.15438 20.4494 7.09773 20.5679C7.04109 20.6864 7.00834 20.8149 7.00135 20.946C6.99436 21.0772 7.01327 21.2084 7.057 21.3322C8.615 25.4142 14.952 24.5782 15 19.9992C15 18.9384 14.5786 17.921 13.8284 17.1708C13.0783 16.4207 12.0609 15.9992 11 15.9992ZM1 7.99924H7C8.06087 7.99924 9.07828 7.57782 9.82843 6.82767C10.5786 6.07752 11 5.06011 11 3.99924C10.952 -0.581757 4.613 -1.41476 3.057 2.66624C2.96868 2.91634 2.98333 3.19128 3.09773 3.43058C3.21213 3.66987 3.4169 3.85393 3.667 3.94224C3.9171 4.03056 4.19204 4.01591 4.43133 3.90151C4.67063 3.78711 4.85468 3.58234 4.943 3.33224C5.72 1.35024 8.991 1.66224 9 3.99924C9 4.52968 8.78929 5.03838 8.41421 5.41346C8.03914 5.78853 7.53043 5.99924 7 5.99924H1C0.734784 5.99924 0.48043 6.1046 0.292893 6.29214C0.105357 6.47967 0 6.73403 0 6.99924C0 7.26446 0.105357 7.51881 0.292893 7.70635C0.48043 7.89389 0.734784 7.99924 1 7.99924Z" fill="#374957"/>
</g>
<defs>
<clipPath id="clip0_74_8769">
<rect width="24" height="24" fill="white"/>
</clipPath>
</defs>
</svg>
