<svg width="24" height="24" viewBox="0 0 24 24" fill="none" xmlns="http://www.w3.org/2000/svg">
<g clip-path="url(#clip0_74_8983)">
<path d="M8.16407 8.00012C7.58481 7.99105 7.02668 7.78109 6.58507 7.40612C5.66393 6.56134 5.10588 5.39256 5.02807 4.14512C4.78507 1.65212 6.14507 0.18112 7.61407 0.0171196C7.96802 -0.0221238 8.32625 0.010241 8.66744 0.112288C9.00862 0.214334 9.32579 0.383977 9.60007 0.61112C10.0092 0.979953 10.3415 1.42605 10.5776 1.92374C10.8138 2.42143 10.9492 2.9609 10.9761 3.51112C11.2001 5.83512 10.1281 8.00012 8.16407 8.00012ZM7.83607 2.00012C7.25907 2.06412 6.91507 2.88312 7.01907 3.94612C7.04804 4.66025 7.34261 5.33783 7.84507 5.84612C7.94026 5.93963 8.06675 5.9945 8.20007 6.00012C8.55107 5.96112 9.11607 5.05912 8.98307 3.70012C8.64107 1.83412 7.86107 2.00012 7.83607 2.00512V2.00012ZM3.16407 14.0001C2.58481 13.9911 2.02668 13.7811 1.58507 13.4061C0.663933 12.5613 0.105884 11.3926 0.0280709 10.1451C-0.214929 7.65212 1.14507 6.18112 2.61407 6.01712C2.968 5.97834 3.32612 6.01092 3.66724 6.11295C4.00836 6.21497 4.32556 6.38437 4.60007 6.61112C5.00925 6.97995 5.34146 7.42605 5.57761 7.92374C5.81376 8.42143 5.94917 8.9609 5.97607 9.51112C6.20007 11.8351 5.07707 14.0001 3.16407 14.0001ZM2.83607 8.00012C2.25907 8.06412 1.91507 8.88312 2.01907 9.94612C2.04804 10.6603 2.34261 11.3378 2.84507 11.8461C2.9412 11.9382 3.06714 11.9929 3.20007 12.0001C3.55107 11.9611 4.11607 11.0591 3.98307 9.70012C3.71807 7.87212 2.86107 8.00012 2.83607 8.00512V8.00012ZM15.8361 8.00012C14.1281 8.01212 12.8021 5.83412 13.0291 3.50812C13.056 2.9579 13.1914 2.41843 13.4275 1.92074C13.6637 1.42305 13.9959 0.976953 14.4051 0.60812C14.6791 0.382339 14.9955 0.213723 15.3358 0.112219C15.676 0.0107155 16.0331 -0.0216202 16.3861 0.0171196C17.8551 0.18112 19.2151 1.65212 18.9721 4.14512C18.8945 5.39291 18.3364 6.5621 17.4151 7.40712C16.9733 7.78173 16.4152 7.99133 15.8361 8.00012ZM15.0201 3.70012C14.8871 5.05512 15.4521 5.95712 15.8031 6.00012C15.9339 5.99497 16.0586 5.94359 16.1551 5.85512C16.6575 5.34683 16.9521 4.66925 16.9811 3.95512C17.1911 1.33412 15.2001 1.50512 15.0201 3.70012ZM20.8361 14.0001C18.9741 14.0001 17.8021 11.8341 18.0291 9.50812C18.056 8.9579 18.1914 8.41843 18.4275 7.92074C18.6637 7.42305 18.9959 6.97695 19.4051 6.60812C19.6787 6.38152 19.995 6.21217 20.3353 6.11014C20.6756 6.0081 21.0329 5.97545 21.3861 6.01412C22.8551 6.17812 24.2151 7.64912 23.9721 10.1421C23.8945 11.3899 23.3364 12.5591 22.4151 13.4041C21.9737 13.7798 21.4156 13.9905 20.8361 14.0001ZM20.0201 9.70012C19.8871 11.0551 20.4521 11.9571 20.8031 12.0001C20.9335 11.9932 21.0576 11.9421 21.1551 11.8551C21.6575 11.3468 21.9521 10.6693 21.9811 9.95512C22.0811 8.89212 21.7411 8.07312 21.1641 8.00912C21.1391 8.00012 20.1151 7.91112 20.0201 9.70012ZM16.0001 24.0001C15.1453 24.0172 14.3011 23.8081 13.5531 23.3941C13.0743 23.1419 12.5412 23.0101 12.0001 23.0101C11.4589 23.0101 10.9259 23.1419 10.4471 23.3941C7.43407 25.0831 3.92207 23.2271 4.00007 19.0001C4.00007 14.3651 8.50707 10.0001 12.0001 10.0001C15.4931 10.0001 20.0001 14.3641 20.0001 19.0001C20.0001 21.9441 18.3551 24.0001 16.0001 24.0001ZM12.0001 21.0001C12.8547 20.9833 13.6987 21.192 14.4471 21.6051C16.6841 22.8231 18.0351 21.1721 18.0001 19.0001C18.0001 15.6201 14.4791 12.0001 12.0001 12.0001C9.52107 12.0001 6.00007 15.6201 6.00007 19.0001C5.96807 21.1691 7.30807 22.8231 9.55307 21.6051C10.3014 21.192 11.1454 20.9833 12.0001 21.0001Z" fill="#374957"/>
</g>
<defs>
<clipPath id="clip0_74_8983">
<rect width="24" height="24" fill="white"/>
</clipPath>
</defs>
</svg>
