<svg width="24" height="24" viewBox="0 0 24 24" fill="none" xmlns="http://www.w3.org/2000/svg">
<path d="M20.467 17.2999C20.446 17.2699 18.91 15.4849 18.91 15.4849C19.4681 15.0737 19.8444 14.4616 19.9594 13.7781C20.0744 13.0945 19.9189 12.393 19.526 11.8219C19.501 11.7859 17.641 9.73088 17.641 9.73088C18.1063 9.49625 18.4857 9.12075 18.725 8.65788C18.9309 8.2614 19.0235 7.8158 18.9924 7.37012C18.9614 6.92445 18.8079 6.49598 18.549 6.13188C18.528 6.09988 13.886 0.845884 13.886 0.845884C13.6425 0.591075 13.3499 0.388265 13.0259 0.249703C12.7018 0.111142 12.353 0.0397034 12.0005 0.0397034C11.6481 0.0397034 11.2993 0.111142 10.9752 0.249703C10.6512 0.388265 10.3585 0.591075 10.115 0.845884C10.115 0.845884 5.47204 6.09988 5.45105 6.12988C5.19215 6.49398 5.03874 6.92245 5.00769 7.36812C4.97663 7.8138 5.06915 8.2594 5.27504 8.65588C5.51441 9.11875 5.89377 9.49425 6.35905 9.72888C6.35905 9.72888 4.50004 11.7839 4.47404 11.8199C4.08114 12.391 3.92574 13.0925 4.04069 13.7761C4.15565 14.4596 4.53196 15.0717 5.09004 15.4829C5.09004 15.4829 3.55404 17.2679 3.53304 17.2999C3.22349 17.75 3.04271 18.2761 3.0102 18.8214C2.97769 19.3667 3.09469 19.9105 3.34857 20.3942C3.60246 20.8779 3.98359 21.283 4.45085 21.566C4.91812 21.849 5.45378 21.999 6.00004 21.9999H11V22.9999C11 23.2651 11.1054 23.5195 11.2929 23.707C11.4805 23.8945 11.7348 23.9999 12 23.9999C12.2653 23.9999 12.5196 23.8945 12.7072 23.707C12.8947 23.5195 13 23.2651 13 22.9999V21.9999H18C18.5467 21.9997 19.0828 21.8502 19.5507 21.5676C20.0185 21.2849 20.4002 20.8798 20.6546 20.3959C20.9089 19.9121 21.0263 19.368 20.9939 18.8224C20.9616 18.2767 20.7808 17.7503 20.471 17.2999H20.467ZM18.882 19.4669C18.7986 19.6285 18.672 19.7639 18.5163 19.8579C18.3606 19.952 18.1819 20.0011 18 19.9999H6.00004C5.82152 20.0001 5.64619 19.9526 5.49225 19.8622C5.33831 19.7718 5.21139 19.6418 5.12464 19.4858C5.0379 19.3297 4.99451 19.1533 4.99898 18.9749C5.00345 18.7964 5.05561 18.6224 5.15004 18.4709L7.28504 15.9999H13C13.2653 15.9999 13.5196 15.8945 13.7072 15.707C13.8947 15.5195 14 15.2651 14 14.9999C14 14.7347 13.8947 14.4803 13.7072 14.2928C13.5196 14.1052 13.2653 13.9999 13 13.9999H6.67004C6.553 13.9999 6.43802 13.9691 6.33664 13.9106C6.23527 13.8521 6.15107 13.768 6.0925 13.6667C6.03393 13.5653 6.00305 13.4504 6.00297 13.3333C6.00289 13.2163 6.03361 13.1013 6.09204 12.9999L8.81404 9.99988H12C12.2653 9.99988 12.5196 9.89453 12.7072 9.70699C12.8947 9.51945 13 9.2651 13 8.99988C13 8.73467 12.8947 8.48031 12.7072 8.29278C12.5196 8.10524 12.2653 7.99988 12 7.99988H7.50004C7.40758 8.00316 7.31608 7.98008 7.23623 7.93334C7.15638 7.8866 7.09146 7.81812 7.04904 7.73588C7.01367 7.67153 6.99596 7.59895 6.99771 7.52554C6.99947 7.45212 7.02063 7.38047 7.05904 7.31788L11.611 2.16888C11.6587 2.11297 11.718 2.06807 11.7847 2.03729C11.8514 2.0065 11.9241 1.99055 11.9975 1.99055C12.071 1.99055 12.1436 2.0065 12.2104 2.03729C12.2771 2.06807 12.3364 2.11297 12.384 2.16888L16.934 7.31688C16.9727 7.37935 16.9941 7.45096 16.996 7.5244C16.998 7.59784 16.9804 7.67047 16.945 7.73488C16.9032 7.81636 16.8393 7.88443 16.7606 7.93129C16.6819 7.97815 16.5916 8.00192 16.5 7.99988H15.632C15.4396 8.00254 15.2519 8.06037 15.0913 8.1665C14.9307 8.27263 14.8039 8.42261 14.726 8.59864C14.6481 8.77467 14.6223 8.96936 14.6518 9.15959C14.6812 9.34983 14.7646 9.52763 14.892 9.67188L17.908 12.9999C17.9665 13.1013 17.9972 13.2163 17.9971 13.3333C17.997 13.4504 17.9662 13.5653 17.9076 13.6667C17.849 13.768 17.7648 13.8521 17.6634 13.9106C17.5621 13.9691 17.4471 13.9999 17.33 13.9999H17.173C16.9828 14.0028 16.7973 14.0595 16.638 14.1635C16.4787 14.2675 16.3521 14.4145 16.2729 14.5875C16.1937 14.7605 16.1651 14.9523 16.1904 15.1409C16.2157 15.3294 16.294 15.507 16.416 15.6529L18.846 18.4709C18.9403 18.6182 18.9934 18.7882 18.9997 18.963C19.006 19.1378 18.9654 19.3111 18.882 19.4649V19.4669Z" fill="#374957"/>
</svg>
