<svg width="24" height="24" viewBox="0 0 24 24" fill="none" xmlns="http://www.w3.org/2000/svg">
<g clip-path="url(#clip0_74_8715)">
<path d="M22.9999 20.9994H21.7209L20.3999 17.0504C20.201 16.4539 19.8197 15.935 19.31 15.567C18.8002 15.199 18.1877 15.0004 17.5589 14.9994H13.9999C13.4695 14.9994 12.9608 14.7887 12.5857 14.4136C12.2106 14.0385 11.9999 13.5298 11.9999 12.9994H17.9999C18.2651 12.9994 18.5195 12.894 18.707 12.7065C18.8945 12.519 18.9999 12.2646 18.9999 11.9994C18.9999 11.7342 18.8945 11.4798 18.707 11.2923C18.5195 11.1047 18.2651 10.9994 17.9999 10.9994H11.9999V7.99939C11.9939 7.95417 11.9849 7.90941 11.9729 7.86539C12.9196 7.62798 13.7468 7.05267 14.2987 6.24777C14.8507 5.44288 15.0894 4.46396 14.9698 3.49534C14.8502 2.52672 14.3805 1.63525 13.6494 0.988805C12.9182 0.342356 11.9759 -0.0144653 10.9999 -0.0144653C10.0239 -0.0144653 9.08163 0.342356 8.35045 0.988805C7.61927 1.63525 7.14966 2.52672 7.03005 3.49534C6.91045 4.46396 7.1491 5.44288 7.70107 6.24777C8.25305 7.05267 9.08025 7.62798 10.0269 7.86539C10.0149 7.90941 10.0059 7.95417 9.9999 7.99939V12.9994C10.002 14.0435 10.4122 15.0453 11.143 15.791C11.8737 16.5367 12.8671 16.9672 13.9109 16.9904C13.7281 18.0833 13.2463 19.1043 12.5187 19.9401C11.7912 20.7759 10.8464 21.3939 9.78916 21.7256C8.73188 22.0573 7.6034 22.0897 6.52881 21.8193C5.45423 21.5489 4.47552 20.9861 3.70118 20.1935C2.92685 19.4009 2.38714 18.4093 2.14189 17.3287C1.89664 16.2481 1.95543 15.1206 2.31173 14.0714C2.66804 13.0222 3.30795 12.0921 4.16052 11.3843C5.01309 10.6765 6.04502 10.2186 7.1419 10.0614C7.4046 10.0237 7.64158 9.88326 7.8007 9.67087C7.95983 9.45848 8.02806 9.19159 7.9904 8.92889C7.95274 8.66619 7.81227 8.42922 7.59988 8.27009C7.3875 8.11097 7.1206 8.04273 6.8579 8.08039C5.38187 8.29208 3.99438 8.9121 2.852 9.87046C1.70962 10.8288 0.857828 12.0874 0.392739 13.5041C-0.0723496 14.9209 -0.132221 16.4394 0.219881 17.8884C0.571984 19.3374 1.32204 20.6591 2.38542 21.7044C3.4488 22.7498 4.78317 23.4771 6.23796 23.8043C7.69274 24.1316 9.21003 24.0457 10.6186 23.5564C12.0272 23.0672 13.271 22.194 14.2097 21.0353C15.1483 19.8767 15.7445 18.4788 15.9309 16.9994H17.5589C17.7689 16.9993 17.9735 17.0654 18.1439 17.1881C18.3142 17.3109 18.4416 17.4842 18.5079 17.6834L20.0519 22.3154C20.1182 22.5144 20.2454 22.6876 20.4155 22.8103C20.5857 22.9331 20.7901 22.9992 20.9999 22.9994H22.9999C23.2651 22.9994 23.5195 22.894 23.707 22.7065C23.8946 22.519 23.9999 22.2646 23.9999 21.9994C23.9999 21.7342 23.8946 21.4798 23.707 21.2923C23.5195 21.1047 23.2651 20.9994 22.9999 20.9994ZM8.9999 3.99939C8.9999 3.60383 9.1172 3.21715 9.33696 2.88825C9.55673 2.55935 9.86909 2.30301 10.2345 2.15163C10.6 2.00025 11.0021 1.96065 11.3901 2.03782C11.778 2.11499 12.1344 2.30547 12.4141 2.58518C12.6938 2.86488 12.8843 3.22125 12.9615 3.60921C13.0386 3.99717 12.999 4.3993 12.8477 4.76476C12.6963 5.13021 12.4399 5.44257 12.111 5.66233C11.7821 5.88209 11.3955 5.99939 10.9999 5.99939C10.4695 5.99939 9.96076 5.78868 9.58569 5.4136C9.21062 5.03853 8.9999 4.52982 8.9999 3.99939Z" fill="#374957"/>
</g>
<defs>
<clipPath id="clip0_74_8715">
<rect width="24" height="24" fill="white"/>
</clipPath>
</defs>
</svg>
