<svg width="24" height="24" viewBox="0 0 24 24" fill="none" xmlns="http://www.w3.org/2000/svg">
<g clip-path="url(#clip0_74_9132)">
<path d="M21.8 5.57906L14.8 0.855057C13.9742 0.293454 12.9987 -0.0068512 12 -0.0068512C11.0014 -0.0068512 10.0258 0.293454 9.2 0.855057L2.2 5.57906C1.52215 6.03723 0.967097 6.65475 0.583525 7.37743C0.199953 8.10012 -0.000414419 8.90589 6.43539e-07 9.72406V19.0001C0.0015885 20.3257 0.528883 21.5965 1.46622 22.5338C2.40356 23.4712 3.67441 23.9985 5 24.0001H19C20.3256 23.9985 21.5964 23.4712 22.5338 22.5338C23.4711 21.5965 23.9984 20.3257 24 19.0001V9.72406C24.0004 8.90589 23.8001 8.10012 23.4165 7.37743C23.0329 6.65475 22.4778 6.03723 21.8 5.57906ZM22 19.0001C22 19.7957 21.6839 20.5588 21.1213 21.1214C20.5587 21.684 19.7957 22.0001 19 22.0001H5C4.20435 22.0001 3.44129 21.684 2.87868 21.1214C2.31607 20.5588 2 19.7957 2 19.0001V9.72406C1.99997 9.23298 2.1205 8.7494 2.351 8.31577C2.5815 7.88215 2.91492 7.51174 3.322 7.23706L10.322 2.51306C10.817 2.17678 11.4016 1.99698 12 1.99698C12.5984 1.99698 13.183 2.17678 13.678 2.51306L20.678 7.23706C21.0851 7.51174 21.4185 7.88215 21.649 8.31577C21.8795 8.7494 22 9.23298 22 9.72406V19.0001ZM12 7.00606C10.8122 7.00591 9.65116 7.3583 8.66384 8.01858C7.67652 8.67886 6.90739 9.61732 6.45387 10.7151C6.00035 11.8128 5.88285 13.0205 6.11626 14.1851C6.34966 15.3497 6.92347 16.4188 7.765 17.2571L9.589 19.0411C10.2353 19.667 11.0998 20.0169 11.9995 20.0169C12.8992 20.0169 13.7637 19.667 14.41 19.0411L16.243 17.2491C17.0823 16.4099 17.6538 15.3408 17.8854 14.1768C18.117 13.0128 17.9981 11.8063 17.544 10.7099C17.0898 9.61341 16.3206 8.67629 15.3338 8.01701C14.347 7.35773 13.1868 7.00592 12 7.00606ZM14.836 15.8271L13.011 17.6121C12.7398 17.8747 12.377 18.0216 11.9995 18.0216C11.622 18.0216 11.2592 17.8747 10.988 17.6121L9.171 15.8351C8.61196 15.276 8.23113 14.5638 8.07663 13.7884C7.92213 13.013 8.00088 12.2092 8.30294 11.4785C8.605 10.7479 9.11681 10.1231 9.77374 9.68318C10.4307 9.24323 11.2032 9.00784 11.9939 9.00672C12.7845 9.0056 13.5577 9.23882 14.2159 9.6769C14.8741 10.115 15.3876 10.7383 15.6918 11.4681C15.9959 12.1979 16.0769 13.0015 15.9246 13.7773C15.7723 14.5531 15.3935 15.2664 14.836 15.8271ZM13 13.0001C13 13.1978 12.9414 13.3912 12.8315 13.5556C12.7216 13.7201 12.5654 13.8482 12.3827 13.9239C12.2 13.9996 11.9989 14.0194 11.8049 13.9808C11.6109 13.9423 11.4327 13.847 11.2929 13.7072C11.153 13.5673 11.0578 13.3891 11.0192 13.1951C10.9806 13.0012 11.0004 12.8001 11.0761 12.6174C11.1518 12.4346 11.28 12.2785 11.4444 12.1686C11.6089 12.0587 11.8022 12.0001 12 12.0001C12.2652 12.0001 12.5196 12.1054 12.7071 12.293C12.8946 12.4805 13 12.7348 13 13.0001Z" fill="#374957"/>
</g>
<defs>
<clipPath id="clip0_74_9132">
<rect width="24" height="24" fill="white"/>
</clipPath>
</defs>
</svg>
