<svg width="24" height="24" viewBox="0 0 24 24" fill="none" xmlns="http://www.w3.org/2000/svg">
<g clip-path="url(#clip0_74_9072)">
<path d="M11.9998 20C14.1208 19.9976 16.1542 19.154 17.654 17.6542C19.1538 16.1544 19.9974 14.121 19.9998 12V7.99999C19.9998 5.87826 19.1569 3.84343 17.6566 2.34314C16.1563 0.842847 14.1215 -7.62939e-06 11.9998 -7.62939e-06C9.87802 -7.62939e-06 7.84319 0.842847 6.3429 2.34314C4.84261 3.84343 3.99976 5.87826 3.99976 7.99999V12C4.00214 14.121 4.84576 16.1544 6.34553 17.6542C7.84531 19.154 9.87876 19.9976 11.9998 20ZM11.9998 1.99999C13.4163 2.00262 14.7863 2.50586 15.8678 3.42079C16.9492 4.33572 17.6725 5.60345 17.9098 6.99999H14.9998C14.7345 6.99999 14.4802 7.10535 14.2926 7.29289C14.1051 7.48042 13.9998 7.73478 13.9998 7.99999C13.9998 8.26521 14.1051 8.51956 14.2926 8.7071C14.4802 8.89464 14.7345 8.99999 14.9998 8.99999H17.9998V11H14.9998C14.7345 11 14.4802 11.1053 14.2926 11.2929C14.1051 11.4804 13.9998 11.7348 13.9998 12C13.9998 12.2652 14.1051 12.5196 14.2926 12.7071C14.4802 12.8946 14.7345 13 14.9998 13H17.9098C17.6747 14.3975 16.9521 15.6665 15.8701 16.5817C14.7881 17.4969 13.4169 17.999 11.9998 17.999C10.5826 17.999 9.21137 17.4969 8.1294 16.5817C7.04744 15.6665 6.32479 14.3975 6.08976 13H8.99976C9.26497 13 9.51933 12.8946 9.70686 12.7071C9.8944 12.5196 9.99976 12.2652 9.99976 12C9.99976 11.7348 9.8944 11.4804 9.70686 11.2929C9.51933 11.1053 9.26497 11 8.99976 11H5.99976V8.99999H8.99976C9.26497 8.99999 9.51933 8.89464 9.70686 8.7071C9.8944 8.51956 9.99976 8.26521 9.99976 7.99999C9.99976 7.73478 9.8944 7.48042 9.70686 7.29289C9.51933 7.10535 9.26497 6.99999 8.99976 6.99999H6.08976C6.32703 5.60345 7.05028 4.33572 8.13173 3.42079C9.21317 2.50586 10.5832 2.00262 11.9998 1.99999Z" fill="#374957"/>
<path d="M23 12C22.7348 12 22.4804 12.1054 22.2929 12.2929C22.1054 12.4804 22 12.7348 22 13C21.9974 15.3861 21.0483 17.6738 19.361 19.361C17.6738 21.0483 15.3861 21.9974 13 22H11C8.61395 21.9971 6.32645 21.0479 4.63925 19.3607C2.95206 17.6735 2.00291 15.3861 2 13C2 12.7348 1.89464 12.4804 1.70711 12.2929C1.51957 12.1054 1.26522 12 1 12C0.734784 12 0.48043 12.1054 0.292893 12.2929C0.105357 12.4804 0 12.7348 0 13C0.00344047 15.9163 1.16347 18.7122 3.22563 20.7744C5.28778 22.8365 8.08367 23.9966 11 24H13C15.9163 23.9966 18.7122 22.8365 20.7744 20.7744C22.8365 18.7122 23.9966 15.9163 24 13C24 12.7348 23.8946 12.4804 23.7071 12.2929C23.5196 12.1054 23.2652 12 23 12Z" fill="#374957"/>
</g>
<defs>
<clipPath id="clip0_74_9072">
<rect width="24" height="24" fill="white"/>
</clipPath>
</defs>
</svg>
