<svg width="24" height="24" viewBox="0 0 24 24" fill="none" xmlns="http://www.w3.org/2000/svg">
<g clip-path="url(#clip0_74_8758)">
<path d="M12 24C9.86522 23.9995 7.76922 23.4295 5.92818 22.3489C4.08713 21.2683 2.56769 19.7161 1.52656 17.8524C0.485432 15.9887 -0.039689 13.881 0.00535817 11.7468C0.0504054 9.61246 0.663989 7.52882 1.78283 5.71074C2.90166 3.89265 4.48525 2.40595 6.37025 1.40395C8.25525 0.401956 10.3734 -0.0790495 12.5063 0.0105445C14.6392 0.100138 16.7096 0.757088 18.5039 1.91364C20.2982 3.07019 21.7516 4.68446 22.714 6.58997C22.7779 6.70763 22.8176 6.83693 22.8306 6.97021C22.8436 7.10348 22.8297 7.23801 22.7898 7.36582C22.7498 7.49362 22.6846 7.6121 22.598 7.71423C22.5113 7.81635 22.4051 7.90004 22.2855 7.96032C22.166 8.02061 22.0355 8.05627 21.9019 8.06518C21.7683 8.0741 21.6342 8.05609 21.5077 8.01222C21.3812 7.96835 21.2648 7.89952 21.1654 7.80981C21.066 7.7201 20.9856 7.61134 20.929 7.48997C19.9155 5.48319 18.2553 3.87648 16.2164 2.92918C14.1775 1.98188 11.8789 1.74926 9.69159 2.26887C7.50426 2.78847 5.55584 4.02999 4.16081 5.79302C2.76579 7.55606 2.00555 9.73775 2.00281 11.9859C2.00008 14.2341 2.755 16.4177 4.14573 18.1841C5.53646 19.9505 7.48186 21.1968 9.66792 21.7217C11.854 22.2466 14.1531 22.0196 16.1943 21.0773C18.2355 20.1349 19.8996 18.5323 20.918 16.528C21.043 16.2999 21.2519 16.1296 21.5004 16.053C21.7489 15.9764 22.0174 15.9996 22.2491 16.1177C22.4808 16.2358 22.6573 16.4395 22.7413 16.6856C22.8253 16.9317 22.8101 17.2009 22.699 17.436C21.6995 19.4144 20.1696 21.0759 18.2803 22.2351C16.3909 23.3942 14.2165 24.0053 12 24Z" fill="#374957"/>
</g>
<defs>
<clipPath id="clip0_74_8758">
<rect width="24" height="24" fill="white"/>
</clipPath>
</defs>
</svg>
