<svg width="24" height="24" viewBox="0 0 24 24" fill="none" xmlns="http://www.w3.org/2000/svg">
<g clip-path="url(#clip0_74_9179)">
<path d="M16.9 14.7236C17.0875 14.9111 17.3418 15.0164 17.607 15.0164C17.8722 15.0164 18.1265 14.9111 18.314 14.7236L23.263 9.77364C23.4952 9.54149 23.6794 9.26586 23.8051 8.9625C23.9308 8.65914 23.9955 8.334 23.9955 8.00564C23.9955 7.67728 23.9308 7.35214 23.8051 7.04878C23.6794 6.74542 23.4952 6.4698 23.263 6.23764L18.313 1.28864C18.1228 1.11621 17.8736 1.02352 17.617 1.02974C17.3604 1.03597 17.116 1.14064 16.9344 1.32209C16.7529 1.50354 16.648 1.74787 16.6416 2.00448C16.6352 2.2611 16.7277 2.51035 16.9 2.70064L21.2 7.00064H5C3.67392 7.00064 2.40215 7.52742 1.46447 8.46511C0.526784 9.40279 0 10.6746 0 12.0006L0 19.0006C0.00158786 20.3262 0.528882 21.5971 1.46622 22.5344C2.40356 23.4718 3.67441 23.9991 5 24.0006H19C19.2652 24.0006 19.5196 23.8953 19.7071 23.7077C19.8946 23.5202 20 23.2659 20 23.0006C20 22.7354 19.8946 22.4811 19.7071 22.2935C19.5196 22.106 19.2652 22.0006 19 22.0006H5C4.20435 22.0006 3.44129 21.6846 2.87868 21.122C2.31607 20.5594 2 19.7963 2 19.0006V12.0006C2 11.205 2.31607 10.4419 2.87868 9.87932C3.44129 9.31671 4.20435 9.00064 5 9.00064H21.212L16.9 13.3096C16.7125 13.4972 16.6072 13.7515 16.6072 14.0166C16.6072 14.2818 16.7125 14.5361 16.9 14.7236Z" fill="#374957"/>
</g>
<defs>
<clipPath id="clip0_74_9179">
<rect width="24" height="24" fill="white"/>
</clipPath>
</defs>
</svg>
