<svg width="24" height="24" viewBox="0 0 24 24" fill="none" xmlns="http://www.w3.org/2000/svg">
<g clip-path="url(#clip0_74_9085)">
<path d="M18.7129 11.9999H13.9999C13.4695 11.9999 12.9608 11.7891 12.5857 11.4141C12.2106 11.039 11.9999 10.5303 11.9999 9.99986V5.27386C12.0013 4.81384 11.8968 4.35967 11.6946 3.94647C11.4925 3.53326 11.198 3.17208 10.8339 2.89086C10.4889 2.61767 10.0858 2.42744 9.65561 2.33485C9.22543 2.24225 8.77972 2.24979 8.35291 2.35686C5.92856 2.95867 3.78224 4.36992 2.26888 6.35722C0.755522 8.34453 -0.034216 10.7888 0.0302694 13.2859C0.0947548 15.783 1.0096 18.1833 2.62351 20.0899C4.23743 21.9964 6.45373 23.295 8.90591 23.7709C11.663 24.2986 14.5176 23.7523 16.885 22.2438C19.2524 20.7353 20.9535 18.3788 21.6399 15.6569C21.7474 15.2295 21.7552 14.7832 21.6628 14.3523C21.5704 13.9214 21.3802 13.5176 21.1069 13.1719C20.8224 12.8083 20.4591 12.514 20.0445 12.311C19.6298 12.108 19.1746 12.0016 18.7129 11.9999ZM19.7009 15.1679C19.318 16.7097 18.5325 18.1222 17.4246 19.2609C16.3167 20.3995 14.9262 21.2235 13.3954 21.6484C11.8646 22.0734 10.2484 22.0841 8.71211 21.6795C7.1758 21.2749 5.77453 20.4695 4.65162 19.3457C3.52871 18.2218 2.72446 16.8199 2.32113 15.2833C1.9178 13.7466 1.92987 12.1304 2.35611 10.6C2.78234 9.06952 3.60744 7.67975 4.74701 6.5728C5.88658 5.46586 7.29973 4.68147 8.84191 4.29986C8.97384 4.2669 9.11166 4.26529 9.24433 4.29515C9.377 4.32502 9.50083 4.38554 9.60591 4.47186C9.73 4.56647 9.83063 4.68839 9.9 4.82817C9.96937 4.96794 10.0056 5.12182 10.0059 5.27786V9.99986C10.0059 11.0607 10.4273 12.0781 11.1775 12.8283C11.9276 13.5784 12.945 13.9999 14.0059 13.9999H18.7179C18.8753 14.0005 19.0305 14.0368 19.1719 14.1061C19.3132 14.1754 19.437 14.2758 19.5339 14.3999C19.6189 14.5064 19.6781 14.6312 19.7069 14.7644C19.7357 14.8976 19.7333 15.0357 19.6999 15.1679H19.7009Z" fill="#374957"/>
<path d="M23.6513 7.44614C23.1909 5.75361 22.2965 4.21064 21.0567 2.96992C19.8168 1.72919 18.2745 0.83373 16.5823 0.372139C16.4049 0.324449 16.222 0.300242 16.0383 0.300139C15.774 0.297629 15.5119 0.347507 15.2671 0.446892C15.0222 0.546277 14.7995 0.693198 14.6118 0.879165C14.424 1.06513 14.275 1.28646 14.1733 1.53036C14.0716 1.77426 14.0193 2.03589 14.0193 2.30014V7.00014C14.0193 7.79579 14.3354 8.55885 14.898 9.12146C15.4606 9.68407 16.2236 10.0001 17.0193 10.0001H21.7383C22.047 9.99717 22.3508 9.92308 22.6262 9.78362C22.9015 9.64416 23.1411 9.44309 23.3261 9.19602C23.5112 8.94896 23.6368 8.66256 23.6932 8.35908C23.7496 8.05559 23.7352 7.74319 23.6513 7.44614ZM21.1533 8.00014H17.0153C16.7501 8.00014 16.4957 7.89478 16.3082 7.70725C16.1206 7.51971 16.0153 7.26536 16.0153 7.00014L16.0073 2.30714C16.0146 2.30185 16.0233 2.29873 16.0323 2.29814H16.0583C17.4204 2.66922 18.6613 3.39105 19.6573 4.39158C20.6533 5.39211 21.3694 6.63636 21.7343 8.00014H21.1533Z" fill="#374957"/>
</g>
<defs>
<clipPath id="clip0_74_9085">
<rect width="24" height="24" fill="white"/>
</clipPath>
</defs>
</svg>
