<svg width="24" height="24" viewBox="0 0 24 24" fill="none" xmlns="http://www.w3.org/2000/svg">
<g clip-path="url(#clip0_74_8954)">
<path d="M10.2069 0.0683773H10.1999C9.9759 0.0177667 9.74129 0.0458071 9.53551 0.147786C9.32973 0.249766 9.16532 0.419469 9.06992 0.628377L0.374917 19.7594C0.167296 20.2163 0.077637 20.7181 0.114152 21.2186C0.150667 21.7192 0.312188 22.2026 0.583923 22.6246C0.855659 23.0466 1.22892 23.3936 1.66953 23.634C2.11014 23.8744 2.60401 24.0003 3.10592 24.0004H9.99992C10.2651 24.0004 10.5195 23.895 10.707 23.7075C10.8946 23.5199 10.9999 23.2656 10.9999 23.0004V1.04638C10.998 0.817654 10.9185 0.596351 10.7745 0.418685C10.6304 0.241019 10.4303 0.117513 10.2069 0.0683773ZM8.99992 22.0004H3.10592C2.93852 22.0005 2.77376 21.9586 2.62676 21.8785C2.47976 21.7984 2.35522 21.6827 2.26456 21.542C2.17389 21.4013 2.12001 21.24 2.10784 21.0731C2.09567 20.9061 2.12561 20.7388 2.19492 20.5864L8.99992 5.61638V22.0004Z" fill="#374957"/>
<path d="M23.6247 19.7589L14.9298 0.627868C14.8298 0.417762 14.6612 0.248045 14.4517 0.146768C14.2422 0.0454904 14.0045 0.0187155 13.7778 0.0708683C13.5568 0.121179 13.3595 0.245056 13.2181 0.422198C13.0768 0.59934 12.9998 0.819242 12.9998 1.04587V22.9999C12.9998 23.2651 13.1051 23.5194 13.2926 23.707C13.4802 23.8945 13.7345 23.9999 13.9998 23.9999H20.8937C21.3956 23.9998 21.8895 23.8738 22.3301 23.6335C22.7707 23.3931 23.144 23.0461 23.4157 22.6241C23.6875 22.2021 23.849 21.7187 23.8855 21.2181C23.922 20.7176 23.8324 20.2158 23.6247 19.7589Z" fill="#374957"/>
</g>
<defs>
<clipPath id="clip0_74_8954">
<rect width="24" height="24" fill="white"/>
</clipPath>
</defs>
</svg>
