<svg width="24" height="24" viewBox="0 0 24 24" fill="none" xmlns="http://www.w3.org/2000/svg">
<g clip-path="url(#clip0_74_8774)">
<path d="M18.581 2.14068L12.316 0.0516833C12.1109 -0.0166378 11.8891 -0.0166378 11.684 0.0516833L5.418 2.14068C4.42209 2.47174 3.55582 3.10819 2.94224 3.95962C2.32866 4.81106 1.99897 5.83419 2 6.88368V12.0007C2 19.5637 11.2 23.7407 11.594 23.9147C11.7218 23.9715 11.8601 24.0008 12 24.0008C12.1399 24.0008 12.2782 23.9715 12.406 23.9147C12.8 23.7407 22 19.5637 22 12.0007V6.88368C22.001 5.83407 21.6711 4.81085 21.0574 3.95939C20.4436 3.10794 19.5771 2.47156 18.581 2.14068ZM20 12.0007C20 17.4557 13.681 21.0337 12 21.8897C10.317 21.0367 4 17.4697 4 12.0007V6.88368C3.99999 6.25408 4.19806 5.64044 4.56616 5.12966C4.93426 4.61887 5.45373 4.23685 6.051 4.03768L12 2.05468L17.948 4.03768C18.5455 4.23668 19.0651 4.61863 19.4334 5.12943C19.8017 5.64022 19.9999 6.25396 20 6.88368V12.0007Z" fill="#374957"/>
</g>
<defs>
<clipPath id="clip0_74_8774">
<rect width="24" height="24" fill="white"/>
</clipPath>
</defs>
</svg>
