<svg width="24" height="24" viewBox="0 0 24 24" fill="none" xmlns="http://www.w3.org/2000/svg">
<g clip-path="url(#clip0_74_8887)">
<path d="M23.119 0.871585C22.8064 0.559774 22.4286 0.321175 22.0127 0.172981C21.5969 0.0247878 21.1533 -0.0293104 20.714 0.014585C17.921 0.284585 8.528 1.44759 4.90001 5.07159C3.16578 6.81054 2.1374 9.13041 2.01348 11.5832C1.88956 14.036 2.67888 16.4477 4.22901 18.3526L0.289012 22.2926C0.106854 22.4812 0.00606017 22.7338 0.00833858 22.996C0.010617 23.2582 0.115786 23.509 0.301194 23.6944C0.486602 23.8798 0.737414 23.985 0.99961 23.9873C1.26181 23.9895 1.51441 23.8887 1.70301 23.7066L5.64301 19.7666C7.54751 21.3188 9.95987 22.1098 12.4137 21.9866C14.8675 21.8634 17.1885 20.8347 18.928 19.0996C22.604 15.4226 23.728 6.05859 23.987 3.27658C24.0293 2.83646 23.9734 2.39242 23.8233 1.97652C23.6732 1.56061 23.4327 1.18322 23.119 0.871585ZM17.519 17.6816C16.1555 19.0401 14.3442 19.8559 12.4233 19.9768C10.5023 20.0977 8.60306 19.5154 7.08 18.3386L16.712 8.70658C16.8942 8.51798 16.9949 8.26538 16.9927 8.00318C16.9904 7.74099 16.8852 7.49017 16.6998 7.30477C16.5144 7.11936 16.2636 7.01419 16.0014 7.01191C15.7392 7.00963 15.4866 7.11043 15.298 7.29259L5.66101 16.9246C4.48398 15.4016 3.90154 13.5023 4.02244 11.5813C4.14334 9.66029 4.95932 7.84897 6.318 6.48559C8.827 3.97759 15.745 2.49959 20.907 2.00459C21.0532 1.99036 21.2007 2.00851 21.3391 2.05776C21.4775 2.10701 21.6033 2.18615 21.7077 2.28953C21.812 2.39292 21.8923 2.51803 21.9428 2.65596C21.9934 2.79389 22.0129 2.94126 22 3.08758C21.5 8.47458 20.059 15.1366 17.514 17.6816H17.519Z" fill="#374957"/>
</g>
<defs>
<clipPath id="clip0_74_8887">
<rect width="24" height="24" fill="white"/>
</clipPath>
</defs>
</svg>
