<svg width="24" height="24" viewBox="0 0 24 24" fill="none" xmlns="http://www.w3.org/2000/svg">
<g clip-path="url(#clip0_74_9067)">
<path d="M14.9997 3.84859C15.0029 4.04745 15.0641 4.24106 15.1759 4.40558C15.2876 4.57011 15.445 4.69837 15.6287 4.77459C17.271 5.49717 18.6597 6.69409 19.6168 8.21169C20.5738 9.72929 21.0554 11.4983 20.9997 13.2916C20.961 15.6785 19.9757 17.9523 18.2605 19.6128C16.5453 21.2732 14.2407 22.1843 11.8537 22.1456C9.46679 22.1069 7.19299 21.1215 5.53254 19.4063C3.87209 17.6911 2.96101 15.3865 2.99974 12.9996C3.00205 11.2558 3.51088 9.55026 4.46439 8.09026C5.41789 6.63027 6.775 5.47871 8.37074 4.77559C8.55453 4.69891 8.71194 4.57026 8.82367 4.40542C8.93541 4.24057 8.9966 4.0467 8.99974 3.84759C8.99999 3.68379 8.96002 3.52245 8.88331 3.37773C8.80661 3.23301 8.69554 3.10934 8.55985 3.0176C8.42417 2.92586 8.26802 2.86885 8.10514 2.85158C7.94227 2.83432 7.77764 2.85733 7.62574 2.91858C5.30502 3.92473 3.40196 5.69993 2.2371 7.94518C1.07224 10.1904 0.716765 12.7685 1.23055 15.2452C1.74433 17.7219 3.09597 19.9459 5.05781 21.5425C7.01965 23.1392 9.4718 24.0109 12.0012 24.0109C14.5307 24.0109 16.9828 23.1392 18.9447 21.5425C20.9065 19.9459 22.2581 17.7219 22.7719 15.2452C23.2857 12.7685 22.9302 10.1904 21.7654 7.94518C20.6005 5.69993 18.6975 3.92473 16.3767 2.91858C16.2246 2.85666 16.0596 2.83316 15.8962 2.85017C15.7328 2.86718 15.5762 2.92416 15.44 3.01609C15.3039 3.10802 15.1925 3.23207 15.1158 3.37726C15.039 3.52246 14.9991 3.68433 14.9997 3.84859Z" fill="#374957"/>
<path d="M13.0003 0.999992C13.0003 0.447708 12.5525 -7.62939e-06 12.0002 -7.62939e-06C11.448 -7.62939e-06 11.0002 0.447708 11.0002 0.999992V6.99999C11.0002 7.55228 11.448 7.99999 12.0002 7.99999C12.5525 7.99999 13.0003 7.55228 13.0003 6.99999V0.999992Z" fill="#374957"/>
</g>
<defs>
<clipPath id="clip0_74_9067">
<rect width="24" height="24" fill="white"/>
</clipPath>
</defs>
</svg>
