<svg width="24" height="24" viewBox="0 0 24 24" fill="none" xmlns="http://www.w3.org/2000/svg">
<g clip-path="url(#clip0_74_8801)">
<path d="M19.4998 9.00003H18.9998V7.00003C18.9998 6.73481 18.8944 6.48046 18.7069 6.29292C18.5193 6.10538 18.265 6.00003 17.9998 6.00003C18.0125 5.29071 17.8315 4.59135 17.4762 3.97727C17.121 3.36318 16.605 2.85762 15.9838 2.51503C15.2655 2.11525 14.4435 1.94102 13.6248 2.01503C13.5232 2.02763 13.42 2.01372 13.3254 1.97464C13.2308 1.93556 13.1479 1.87265 13.0848 1.79203C12.6495 1.22183 12.0845 0.763715 11.4367 0.455715C10.7888 0.147716 10.0768 -0.00127452 9.35987 0.0211188C8.64289 0.0435122 7.9416 0.236643 7.31425 0.58447C6.68689 0.932298 6.15157 1.42478 5.75276 2.02103C4.7383 2.08211 3.78531 2.52771 3.08799 3.26703C2.39066 4.00634 2.00148 4.98374 1.99976 6.00003C1.73454 6.00003 1.48019 6.10538 1.29265 6.29292C1.10511 6.48046 0.999756 6.73481 0.999756 7.00003V19C1.00134 20.3256 1.52864 21.5965 2.46598 22.5338C3.40331 23.4711 4.67416 23.9984 5.99976 24H13.9998C15.3254 23.9984 16.5962 23.4711 17.5335 22.5338C18.4709 21.5965 18.9982 20.3256 18.9998 19H19.4998C20.428 19 21.3183 18.6313 21.9746 17.9749C22.631 17.3185 22.9998 16.4283 22.9998 15.5V12.5C22.9998 11.5718 22.631 10.6815 21.9746 10.0252C21.3183 9.36878 20.428 9.00003 19.4998 9.00003ZM5.99976 4.00003C6.05727 4.0019 6.1145 4.00893 6.17076 4.02103C6.38626 4.05607 6.60732 4.01961 6.80016 3.91723C6.99301 3.81485 7.14705 3.65217 7.23876 3.45403C7.42159 3.06588 7.70124 2.73133 8.05079 2.48254C8.40035 2.23376 8.80805 2.07913 9.23467 2.03353C9.66129 1.98792 10.0925 2.05288 10.4867 2.22215C10.881 2.39142 11.225 2.6593 11.4858 3.00003C11.7537 3.35599 12.1095 3.63635 12.5182 3.81372C12.927 3.9911 13.3747 4.05943 13.8178 4.01203C14.2449 3.97838 14.6724 4.07273 15.0458 4.28303C15.3433 4.45827 15.5887 4.70984 15.7564 5.01171C15.9241 5.31358 16.0081 5.65479 15.9998 6.00003H11.9998C11.2041 6.00003 10.441 6.3161 9.87844 6.87871C9.31583 7.44132 8.99976 8.20438 8.99976 9.00003V12C8.99976 12.2652 8.8944 12.5196 8.70686 12.7071C8.51933 12.8947 8.26497 13 7.99976 13C7.73454 13 7.48019 12.8947 7.29265 12.7071C7.10511 12.5196 6.99976 12.2652 6.99976 12V9.00003C6.99976 8.20438 6.68369 7.44132 6.12108 6.87871C5.55847 6.3161 4.79541 6.00003 3.99976 6.00003C3.99976 5.46959 4.21047 4.96089 4.58554 4.58581C4.96061 4.21074 5.46932 4.00003 5.99976 4.00003ZM16.9998 19C16.9998 19.7957 16.6837 20.5587 16.1211 21.1213C15.5585 21.684 14.7954 22 13.9998 22H5.99976C5.20411 22 4.44104 21.684 3.87844 21.1213C3.31583 20.5587 2.99976 19.7957 2.99976 19V8.00003H3.99976C4.26497 8.00003 4.51933 8.10538 4.70686 8.29292C4.8944 8.48046 4.99976 8.73481 4.99976 9.00003V12C4.99976 12.7957 5.31583 13.5587 5.87844 14.1213C6.44104 14.684 7.20411 15 7.99976 15C8.79541 15 9.55847 14.684 10.1211 14.1213C10.6837 13.5587 10.9998 12.7957 10.9998 12V9.00003C10.9998 8.73481 11.1051 8.48046 11.2926 8.29292C11.4802 8.10538 11.7345 8.00003 11.9998 8.00003H16.9998V19ZM20.9998 15.5C20.9998 15.8979 20.8417 16.2794 20.5604 16.5607C20.2791 16.842 19.8976 17 19.4998 17H18.9998V11H19.4998C19.8976 11 20.2791 11.1581 20.5604 11.4394C20.8417 11.7207 20.9998 12.1022 20.9998 12.5V15.5Z" fill="#374957"/>
</g>
<defs>
<clipPath id="clip0_74_8801">
<rect width="24" height="24" fill="white"/>
</clipPath>
</defs>
</svg>
