<svg width="24" height="24" viewBox="0 0 24 24" fill="none" xmlns="http://www.w3.org/2000/svg">
<g clip-path="url(#clip0_74_8962)">
<path d="M15.0002 12.0005C15.0002 12.2657 14.8949 12.52 14.7074 12.7076C14.5198 12.8951 14.2655 13.0005 14.0002 13.0005H13.0002V17.5005C13.0002 17.9949 12.8536 18.4783 12.5789 18.8894C12.3042 19.3005 11.9138 19.6209 11.457 19.8101C11.0001 19.9994 10.4975 20.0489 10.0125 19.9524C9.52757 19.856 9.08211 19.6178 8.73248 19.2682C8.38285 18.9186 8.14474 18.4731 8.04828 17.9882C7.95182 17.5032 8.00133 17.0006 8.19055 16.5437C8.37976 16.0869 8.7002 15.6965 9.11132 15.4218C9.52244 15.1471 10.0058 15.0005 10.5002 15.0005C10.6681 15.0008 10.8356 15.0175 11.0002 15.0505V13.0005C11.0002 12.47 11.211 11.9613 11.586 11.5862C11.9611 11.2112 12.4698 11.0005 13.0002 11.0005H14.0002C14.2655 11.0005 14.5198 11.1058 14.7074 11.2933C14.8949 11.4809 15.0002 11.7352 15.0002 12.0005ZM22.0002 10.4855V19.0005C21.9987 20.326 21.4714 21.5969 20.534 22.5342C19.5967 23.4716 18.3258 23.9989 17.0002 24.0005H7.00024C5.67465 23.9989 4.4038 23.4716 3.46646 22.5342C2.52913 21.5969 2.00183 20.326 2.00024 19.0005V5.00045C2.00183 3.67486 2.52913 2.40401 3.46646 1.46667C4.4038 0.529333 5.67465 0.00203882 7.00024 0.000450958H11.5152C12.435 -0.00195054 13.346 0.178086 14.1957 0.53014C15.0453 0.882194 15.8168 1.39927 16.4652 2.05145L19.9492 5.53545C20.6014 6.18394 21.1185 6.95535 21.4706 7.80502C21.8226 8.65468 22.0026 9.56574 22.0002 10.4855ZM15.0512 3.46545C14.7367 3.16007 14.3834 2.89748 14.0002 2.68445V7.00045C14.0002 7.26567 14.1056 7.52002 14.2931 7.70756C14.4807 7.89509 14.735 8.00045 15.0002 8.00045H19.3162C19.1032 7.61733 18.8406 7.26395 18.5352 6.94945L15.0512 3.46545ZM20.0002 10.4855C20.0002 10.3205 19.9682 10.1625 19.9532 10.0005H15.0002C14.2046 10.0005 13.4415 9.68438 12.8789 9.12177C12.3163 8.55916 12.0002 7.7961 12.0002 7.00045V2.04745C11.8382 2.03245 11.6802 2.00045 11.5152 2.00045H7.00024C6.20459 2.00045 5.44153 2.31652 4.87892 2.87913C4.31631 3.44174 4.00024 4.2048 4.00024 5.00045V19.0005C4.00024 19.7961 4.31631 20.5592 4.87892 21.1218C5.44153 21.6844 6.20459 22.0005 7.00024 22.0005H17.0002C17.7959 22.0005 18.559 21.6844 19.1216 21.1218C19.6842 20.5592 20.0002 19.7961 20.0002 19.0005V10.4855Z" fill="#374957"/>
</g>
<defs>
<clipPath id="clip0_74_8962">
<rect width="24" height="24" fill="white"/>
</clipPath>
</defs>
</svg>
