<svg width="24" height="24" viewBox="0 0 24 24" fill="none" xmlns="http://www.w3.org/2000/svg">
<g clip-path="url(#clip0_74_8891)">
<path d="M12 3.99999C13.1046 3.99999 14 3.10456 14 1.99999C14 0.895423 13.1046 -7.62939e-06 12 -7.62939e-06C10.8954 -7.62939e-06 10 0.895423 10 1.99999C10 3.10456 10.8954 3.99999 12 3.99999Z" fill="#374957"/>
<path d="M12 14.0003C13.1046 14.0003 14 13.1049 14 12.0003C14 10.8957 13.1046 10.0003 12 10.0003C10.8954 10.0003 10 10.8957 10 12.0003C10 13.1049 10.8954 14.0003 12 14.0003Z" fill="#374957"/>
<path d="M12 23.9997C13.1046 23.9997 14 23.1043 14 21.9997C14 20.8951 13.1046 19.9997 12 19.9997C10.8954 19.9997 10 20.8951 10 21.9997C10 23.1043 10.8954 23.9997 12 23.9997Z" fill="#374957"/>
</g>
<defs>
<clipPath id="clip0_74_8891">
<rect width="24" height="24" fill="white"/>
</clipPath>
</defs>
</svg>
