<svg width="24" height="24" viewBox="0 0 24 24" fill="none" xmlns="http://www.w3.org/2000/svg">
<g clip-path="url(#clip0_74_8796)">
<path d="M10.42 20.656C9.61638 20.6553 8.834 20.3978 8.18703 19.921L1.54603 15.051C1.06732 14.6995 0.678082 14.2402 0.409795 13.7104C0.141507 13.1805 0.00170898 12.5949 0.00170898 12.001C0.00170898 11.4071 0.141507 10.8215 0.409795 10.2917C0.678082 9.76182 1.06732 9.30255 1.54603 8.95103L8.18703 4.08103C8.73171 3.68078 9.37367 3.43377 10.0462 3.3657C10.7186 3.29763 11.3971 3.41098 12.0109 3.69396C12.6248 3.97693 13.1516 4.41921 13.5365 4.97478C13.9215 5.53034 14.1506 6.17891 14.2 6.85303L17.982 4.07903C18.5459 3.66658 19.2129 3.41828 19.9093 3.36164C20.6056 3.30501 21.304 3.44225 21.9271 3.75815C22.5502 4.07406 23.0737 4.5563 23.4396 5.15144C23.8055 5.74659 23.9994 6.43141 24 7.13003V16.87C23.9999 17.5691 23.806 18.2546 23.44 18.8502C23.0739 19.4458 22.5501 19.9284 21.9264 20.2444C21.3028 20.5605 20.6038 20.6975 19.907 20.6404C19.2103 20.5833 18.5429 20.3343 17.979 19.921L14.2 17.147C14.1291 18.1005 13.7005 18.9919 13.0001 19.6427C12.2996 20.2934 11.3791 20.6554 10.423 20.656H10.42ZM13.207 14.181C13.42 14.181 13.6274 14.249 13.799 14.375L19.162 18.308C19.4278 18.5027 19.7424 18.6199 20.0707 18.6467C20.3991 18.6736 20.7285 18.609 21.0224 18.46C21.3163 18.3111 21.5632 18.0838 21.7357 17.8031C21.9083 17.5224 21.9998 17.1995 22 16.87V7.13003C21.9996 6.80055 21.9079 6.47763 21.7352 6.19704C21.5625 5.91644 21.3155 5.68912 21.0216 5.54024C20.7277 5.39136 20.3983 5.32674 20.0699 5.35353C19.7415 5.38032 19.4269 5.49748 19.161 5.69203L13.8 9.62503C13.651 9.73447 13.4746 9.80047 13.2904 9.81569C13.1061 9.83092 12.9213 9.79477 12.7563 9.71126C12.5914 9.62776 12.4528 9.50017 12.356 9.34266C12.2593 9.18515 12.208 9.0039 12.208 8.81903V7.13003C12.2079 6.8004 12.1165 6.47725 11.9439 6.19643C11.7712 5.91561 11.5242 5.68811 11.2301 5.53916C10.9361 5.39022 10.6065 5.32565 10.278 5.35264C9.94947 5.37962 9.63484 5.4971 9.36903 5.69203L2.72903 10.562C2.50314 10.7276 2.31943 10.9441 2.1928 11.1939C2.06617 11.4438 2.00019 11.7199 2.00019 12C2.00019 12.2801 2.06617 12.5563 2.1928 12.8061C2.31943 13.0559 2.50314 13.2724 2.72903 13.438L9.36903 18.308C9.63485 18.5027 9.94937 18.6199 10.2777 18.6467C10.6061 18.6736 10.9355 18.609 11.2294 18.46C11.5233 18.3111 11.7702 18.0838 11.9427 17.8031C12.1153 17.5224 12.2068 17.1995 12.207 16.87V15.181C12.207 14.9158 12.3124 14.6615 12.4999 14.4739C12.6875 14.2864 12.9418 14.181 13.207 14.181Z" fill="#374957"/>
</g>
<defs>
<clipPath id="clip0_74_8796">
<rect width="24" height="24" fill="white"/>
</clipPath>
</defs>
</svg>
