<svg width="24" height="24" viewBox="0 0 24 24" fill="none" xmlns="http://www.w3.org/2000/svg">
<g clip-path="url(#clip0_74_8948)">
<path d="M22.9999 16.6527L20.6599 14.8527C20.0824 14.303 19.3154 13.997 18.5182 13.9981C17.7209 13.9992 16.9548 14.3074 16.3789 14.8587L14.9099 16.0267C13.3541 15.3827 11.9408 14.4376 10.7514 13.2458C9.56195 12.0539 8.61973 10.6388 7.97889 9.0817L9.13689 7.6257C9.6886 7.04987 9.99718 6.28358 9.99849 5.4861C9.99979 4.68863 9.69372 3.92133 9.14389 3.3437L7.34589 0.999702C7.31948 0.964492 7.29075 0.931084 7.25989 0.899702C6.68881 0.325886 5.91482 -0.000100756 5.10529 -0.00777314C4.29576 -0.0154455 3.51574 0.295814 2.93389 0.858702L1.78389 1.8587C-5.93511 10.0687 13.9839 30.0037 22.1839 22.1587L23.0939 21.1097C23.6734 20.5286 23.9988 19.7414 23.9988 18.9207C23.9988 18.1 23.6734 17.3128 23.0939 16.7317C23.064 16.7037 23.0326 16.6773 22.9999 16.6527ZM21.6359 19.7527L20.7249 20.8027C14.7879 26.4177 -2.50011 10.1137 3.14689 3.3247L4.29689 2.3247C4.49603 2.12666 4.76338 2.0123 5.04413 2.00505C5.32489 1.9978 5.59779 2.09821 5.80689 2.2857L7.59289 4.6087C7.61907 4.64409 7.64781 4.67752 7.67889 4.7087C7.88315 4.91472 7.99777 5.19309 7.99777 5.4832C7.99777 5.77332 7.88315 6.05169 7.67889 6.2577C7.65075 6.28324 7.62435 6.31063 7.59989 6.3397L6.04389 8.2997C5.9331 8.4385 5.86127 8.60429 5.83579 8.78004C5.81031 8.95579 5.83208 9.13516 5.89889 9.2997C6.65203 11.3148 7.82956 13.1444 9.35166 14.6646C10.8738 16.1848 12.7049 17.3601 14.7209 18.1107C14.8832 18.1726 15.0589 18.1911 15.2305 18.1645C15.4022 18.1378 15.564 18.0669 15.6999 17.9587L17.6599 16.3997C17.6893 16.376 17.7174 16.3506 17.7439 16.3237C17.8552 16.2163 17.9874 16.1329 18.1323 16.0787C18.2771 16.0246 18.4316 16.0008 18.5861 16.0089C18.7405 16.0169 18.8917 16.0567 19.0301 16.1256C19.1686 16.1946 19.2914 16.2913 19.3909 16.4097L21.7169 18.1967C21.9076 18.4165 22.0053 18.7018 21.9895 18.9924C21.9736 19.283 21.8454 19.556 21.6319 19.7537L21.6359 19.7527ZM23.7069 6.2927C23.889 6.4813 23.9898 6.73391 23.9876 6.9961C23.9853 7.2583 23.8801 7.50911 23.6947 7.69452C23.5093 7.87993 23.2585 7.9851 22.9963 7.98738C22.7341 7.98965 22.4815 7.88886 22.2929 7.7067L19.9999 5.4137L17.7069 7.7067C17.5183 7.88886 17.2657 7.98965 17.0035 7.98738C16.7413 7.9851 16.4905 7.87993 16.3051 7.69452C16.1197 7.50911 16.0145 7.2583 16.0122 6.9961C16.0099 6.73391 16.1107 6.4813 16.2929 6.2927L18.5859 3.9997L16.2929 1.7067C16.1107 1.5181 16.0099 1.2655 16.0122 1.0033C16.0145 0.741104 16.1197 0.490291 16.3051 0.304883C16.4905 0.119475 16.7413 0.014306 17.0035 0.0120276C17.2657 0.00974921 17.5183 0.110544 17.7069 0.292702L19.9999 2.5857L22.2929 0.292702C22.4815 0.110544 22.7341 0.00974921 22.9963 0.0120276C23.2585 0.014306 23.5093 0.119475 23.6947 0.304883C23.8801 0.490291 23.9853 0.741104 23.9876 1.0033C23.9898 1.2655 23.889 1.5181 23.7069 1.7067L21.4139 3.9997L23.7069 6.2927Z" fill="#374957"/>
</g>
<defs>
<clipPath id="clip0_74_8948">
<rect width="24" height="24" fill="white"/>
</clipPath>
</defs>
</svg>
