<svg width="24" height="24" viewBox="0 0 24 24" fill="none" xmlns="http://www.w3.org/2000/svg">
<g clip-path="url(#clip0_74_9130)">
<path d="M20.5367 12.7L19.4067 12L20.5377 11.3C21.323 10.8331 21.9311 10.1188 22.2667 9.26905C22.4768 8.70719 22.5551 8.10461 22.4956 7.50773C22.4361 6.91084 22.2403 6.33558 21.9235 5.82626C21.6066 5.31694 21.177 4.88716 20.6679 4.57003C20.1587 4.25289 19.5836 4.05686 18.9867 3.99705C18.0761 3.92256 17.1665 4.1526 16.4007 4.65105L15.9997 4.90005V4.17205C16.0166 3.1568 15.6576 2.17114 14.9918 1.40453C14.326 0.637919 13.4003 0.144474 12.3927 0.0190481C11.8369 -0.0358204 11.2759 0.026293 10.7456 0.20139C10.2153 0.376487 9.7275 0.660687 9.31368 1.0357C8.89987 1.4107 8.56916 1.86821 8.34285 2.37876C8.11655 2.88931 7.99966 3.44159 7.9997 4.00005V4.90005L7.5997 4.65005C6.83411 4.15019 5.92404 3.91907 5.01271 3.99305C4.41575 4.05234 3.84037 4.24792 3.33094 4.56471C2.82151 4.88149 2.39163 5.31103 2.07443 5.82021C1.75723 6.32939 1.5612 6.9046 1.50143 7.50151C1.44166 8.09843 1.51976 8.70109 1.72971 9.26305C2.06534 10.1131 2.67388 10.8275 3.45971 11.294L4.59271 12L3.4617 12.7C2.67641 13.167 2.06828 13.8813 1.73271 14.731C1.52235 15.2933 1.44402 15.8965 1.50377 16.4938C1.56352 17.0912 1.75975 17.6668 2.07731 18.1763C2.39487 18.6858 2.82527 19.1155 3.33527 19.4322C3.84527 19.749 4.42124 19.9443 5.01871 20.003C5.92735 20.0773 6.83498 19.8484 7.5997 19.352L7.9997 19.1V20C7.9997 21.0609 8.42113 22.0783 9.17128 22.8285C9.92142 23.5786 10.9388 24.0001 11.9997 24.0001C13.0606 24.0001 14.078 23.5786 14.8281 22.8285C15.5783 22.0783 15.9997 21.0609 15.9997 20V19.1L16.3997 19.351C17.164 19.8477 18.0712 20.0773 18.9797 20.004C19.577 19.945 20.1527 19.7495 20.6625 19.4326C21.1722 19.1158 21.6024 18.6861 21.9197 18.1766C22.2371 17.6672 22.4331 17.0916 22.4928 16.4944C22.5524 15.8971 22.474 15.2942 22.2637 14.732C21.9287 13.8823 21.3213 13.1677 20.5367 12.7ZM20.2257 17.118C19.957 17.5492 19.528 17.856 19.0331 17.971C18.5382 18.086 18.018 17.9996 17.5867 17.7311L15.5277 16.449C15.3762 16.3548 15.2022 16.3029 15.0237 16.2986C14.8453 16.2943 14.669 16.3378 14.5131 16.4246C14.3572 16.5115 14.2274 16.6384 14.1371 16.7924C14.0468 16.9463 13.9994 17.1216 13.9997 17.3V20C13.9997 20.5305 13.789 21.0392 13.4139 21.4143C13.0388 21.7893 12.5301 22 11.9997 22C11.4693 22 10.9606 21.7893 10.5855 21.4143C10.2104 21.0392 9.99971 20.5305 9.99971 20V17.3C9.99966 17.1218 9.95196 16.9467 9.86153 16.7931C9.7711 16.6394 9.64124 16.5128 9.4854 16.4262C9.32955 16.3396 9.15339 16.2962 8.97516 16.3006C8.79693 16.305 8.62311 16.3569 8.4717 16.451L6.4127 17.7351C6.19918 17.868 5.96155 17.9576 5.71339 17.9987C5.46523 18.0399 5.2114 18.0317 4.9664 17.9748C4.72139 17.9178 4.49 17.8131 4.28544 17.6667C4.08089 17.5203 3.90717 17.3351 3.7742 17.1215C3.64124 16.908 3.55164 16.6704 3.51051 16.4222C3.46938 16.1741 3.47754 15.9202 3.5345 15.6752C3.59147 15.4302 3.69614 15.1988 3.84253 14.9943C3.98893 14.7897 4.17418 14.616 4.38771 14.483L7.0127 12.849C7.15741 12.7594 7.27683 12.6342 7.35964 12.4855C7.44246 12.3367 7.48592 12.1693 7.48592 11.999C7.48592 11.8288 7.44246 11.6614 7.35964 11.5126C7.27683 11.3639 7.15741 11.2387 7.0127 11.149L4.38771 9.51605C3.95646 9.24752 3.64956 8.81867 3.5345 8.32386C3.41945 7.82904 3.50567 7.30879 3.7742 6.87755C4.04274 6.44631 4.47158 6.1394 4.9664 6.02435C5.46121 5.90929 5.98146 5.99552 6.4127 6.26405L8.4717 7.54605C8.6229 7.64005 8.79644 7.69198 8.97441 7.69649C9.15239 7.70099 9.32834 7.6579 9.48409 7.57167C9.63984 7.48543 9.76975 7.35918 9.86039 7.20595C9.95103 7.05273 9.99913 6.87808 9.99971 6.70005V4.10705C9.98891 3.6202 10.1497 3.14506 10.4539 2.7648C10.7581 2.38454 11.1864 2.12338 11.6637 2.02705C11.9508 1.97813 12.2451 1.99248 12.526 2.06911C12.8069 2.14573 13.0677 2.28279 13.2902 2.47068C13.5127 2.65858 13.6914 2.8928 13.814 3.15695C13.9365 3.42111 13.9999 3.70885 13.9997 4.00005V6.70005C13.9999 6.87825 14.0478 7.05315 14.1383 7.20666C14.2288 7.36017 14.3586 7.48671 14.5145 7.57318C14.6703 7.65965 14.8464 7.70292 15.0245 7.6985C15.2026 7.69408 15.3764 7.64214 15.5277 7.54805L17.5867 6.26705C17.8002 6.13409 18.0379 6.04448 18.286 6.00335C18.5342 5.96223 18.788 5.97038 19.033 6.02735C19.278 6.08432 19.5094 6.18898 19.714 6.33538C19.9185 6.48177 20.0922 6.66702 20.2252 6.88055C20.3582 7.09408 20.4478 7.33171 20.4889 7.57986C20.53 7.82802 20.5219 8.08185 20.4649 8.32686C20.4079 8.57187 20.3033 8.80325 20.1569 9.00781C20.0105 9.21237 19.8252 9.38609 19.6117 9.51905L16.9867 11.153C16.842 11.2427 16.7226 11.3679 16.6398 11.5166C16.557 11.6654 16.5135 11.8328 16.5135 12.003C16.5135 12.1733 16.557 12.3407 16.6398 12.4895C16.7226 12.6382 16.842 12.7634 16.9867 12.853L19.6117 14.4871C19.8254 14.6198 20.0107 14.7934 20.1572 14.9979C20.3038 15.2024 20.4085 15.4338 20.4655 15.6788C20.5226 15.9238 20.5307 16.1776 20.4896 16.4258C20.4484 16.6739 20.3588 16.9116 20.2257 17.125V17.118Z" fill="#374957"/>
</g>
<defs>
<clipPath id="clip0_74_9130">
<rect width="24" height="24" fill="white"/>
</clipPath>
</defs>
</svg>
