<svg width="24" height="24" viewBox="0 0 24 24" fill="none" xmlns="http://www.w3.org/2000/svg">
<g clip-path="url(#clip0_74_8878)">
<path d="M19.9999 0.010262C16.1879 0.010262 11.8749 2.04826 8.46089 5.46126C5.02759 8.86509 2.26672 12.8856 0.322888 17.3123C0.00505099 18.0475 -0.0837577 18.8616 0.0680517 19.6481C0.219861 20.4346 0.605237 21.1571 1.17389 21.7213L2.27989 22.8263C2.84299 23.3936 3.56384 23.7783 4.34861 23.9302C5.13337 24.0822 5.94571 23.9944 6.67989 23.6783C11.1092 21.7373 15.1313 18.9757 18.5339 15.5393C21.9519 12.1263 23.9899 7.81326 23.9899 4.00026C24.0461 3.46247 23.9816 2.91891 23.8009 2.40926C23.6203 1.8996 23.3281 1.43671 22.9458 1.05436C22.5634 0.672011 22.1005 0.379859 21.5909 0.199225C21.0812 0.0185908 20.5377 -0.0459675 19.9999 0.010262ZM17.1249 14.1253C13.9028 17.3813 10.0943 19.9989 5.89989 21.8403C5.56638 21.9769 5.20223 22.0211 4.84572 21.9683C4.4892 21.9155 4.1535 21.7677 3.87389 21.5403L16.7069 8.70726C16.8024 8.61502 16.8786 8.50467 16.931 8.38267C16.9834 8.26066 17.011 8.12944 17.0121 7.99666C17.0133 7.86388 16.988 7.7322 16.9377 7.60931C16.8874 7.48641 16.8132 7.37476 16.7193 7.28087C16.6254 7.18697 16.5137 7.11272 16.3908 7.06244C16.2679 7.01216 16.1363 6.98686 16.0035 6.98801C15.8707 6.98917 15.7395 7.01675 15.6175 7.06916C15.4955 7.12157 15.3851 7.19775 15.2929 7.29326L2.45689 20.1293C2.22923 19.8494 2.08121 19.5133 2.02842 19.1565C1.97563 18.7996 2.02 18.4351 2.15689 18.1013C4.00098 13.9074 6.6194 10.0988 9.87489 6.87526C13.4629 3.28826 17.4579 2.01026 19.9999 2.01026C21.4509 2.01026 21.9899 2.54926 21.9899 4.00026C21.9899 6.54326 20.7119 10.5383 17.1249 14.1253Z" fill="#374957"/>
</g>
<defs>
<clipPath id="clip0_74_8878">
<rect width="24" height="24" fill="white"/>
</clipPath>
</defs>
</svg>
