<svg width="24" height="24" viewBox="0 0 24 24" fill="none" xmlns="http://www.w3.org/2000/svg">
<g clip-path="url(#clip0_74_9095)">
<path d="M3.0002 7.00006V3.00006C3.0002 2.46963 3.21091 1.96092 3.58599 1.58585C3.96106 1.21077 4.46977 1.00006 5.0002 1.00006H9.0002C9.26542 1.00006 9.51977 1.10542 9.70731 1.29295C9.89484 1.48049 10.0002 1.73484 10.0002 2.00006C10.0002 2.26528 9.89484 2.51963 9.70731 2.70717C9.51977 2.8947 9.26542 3.00006 9.0002 3.00006H6.4392L12.3452 8.92606C12.3658 8.94676 12.3902 8.96317 12.4172 8.97433C12.4441 8.98549 12.473 8.99118 12.5022 8.99106C12.5311 8.99129 12.5599 8.98574 12.5866 8.97476C12.6134 8.96377 12.6378 8.94755 12.6582 8.92706L19.5422 2.04306C19.7308 1.8609 19.9834 1.76011 20.2456 1.76239C20.5078 1.76467 20.7586 1.86983 20.944 2.05524C21.1294 2.24065 21.2346 2.49146 21.2369 2.75366C21.2392 3.01586 21.1384 3.26846 20.9562 3.45706L14.0722 10.3411C13.8667 10.5481 13.622 10.7122 13.3525 10.8238C13.083 10.9353 12.7939 10.9922 12.5022 10.9911C12.21 10.9918 11.9205 10.9344 11.6507 10.8223C11.3808 10.7102 11.1359 10.5456 10.9302 10.3381L5.0002 4.38906V7.00006C5.0002 7.26528 4.89484 7.51963 4.70731 7.70717C4.51977 7.8947 4.26542 8.00006 4.0002 8.00006C3.73498 8.00006 3.48063 7.8947 3.29309 7.70717C3.10556 7.51963 3.0002 7.26528 3.0002 7.00006ZM24.0002 20.1071L23.9152 21.3711C23.9005 22.0806 23.6078 22.7561 23.1 23.2519C22.5921 23.7477 21.9099 24.0243 21.2002 24.0221C21.1562 24.0221 18.6782 23.7001 18.6782 23.7001C17.9809 23.6806 17.3177 23.3946 16.8249 22.9009C16.3321 22.4072 16.0474 21.7434 16.0292 21.0461L15.8742 19.7541C14.6382 19.2735 13.3262 19.0182 12.0002 19.0001C10.6776 19.0067 9.36769 19.259 8.1372 19.7441L7.9802 21.0441C7.9625 21.7426 7.67726 22.4076 7.18337 22.9018C6.68949 23.3961 6.02468 23.6818 5.3262 23.7001C5.3262 23.7001 2.8482 24.0221 2.8042 24.0221C2.08262 24.0213 1.39083 23.7342 0.880686 23.2239C0.370542 22.7135 0.0837282 22.0216 0.0831989 21.3001L0.000198866 20.1761C-0.00590689 19.4746 0.128643 18.7791 0.395897 18.1305C0.663152 17.482 1.05769 16.8936 1.5562 16.4001C6.0472 11.9121 17.9562 11.9131 22.4432 16.4001C22.9351 16.8842 23.326 17.4612 23.5932 18.0975C23.8605 18.7338 23.9988 19.4169 24.0002 20.1071ZM22.0002 20.0371C21.9793 19.198 21.6295 18.4007 21.0262 17.8171C17.0442 13.8321 6.3992 14.3881 2.9692 17.8171C2.66441 18.1154 2.42183 18.4713 2.2555 18.864C2.08917 19.2567 2.0024 19.6786 2.0002 20.1051L2.0812 21.2321C2.06938 21.4248 2.13265 21.6146 2.25775 21.7617C2.38285 21.9088 2.56006 22.0018 2.7522 22.0211C2.7522 22.0211 5.2102 21.7011 5.2522 21.7011C5.44352 21.7005 5.62686 21.6243 5.76215 21.489C5.89743 21.3537 5.97367 21.1704 5.9742 20.9791C5.9742 20.9391 6.2132 18.9291 6.2132 18.9291C6.23377 18.7574 6.29848 18.5941 6.40101 18.4549C6.50354 18.3158 6.64038 18.2056 6.7982 18.1351C8.41309 17.3966 10.1665 17.0097 11.9422 17.0001H12.0052C13.7899 17.0261 15.5513 17.4097 17.1852 18.1281C17.3466 18.197 17.4871 18.3072 17.5924 18.4477C17.6977 18.5881 17.7642 18.7538 17.7852 18.9281C17.7852 18.9281 18.0242 20.9381 18.0242 20.9781C18.0247 21.1694 18.101 21.3527 18.2363 21.488C18.3715 21.6233 18.5549 21.6995 18.7462 21.7001C18.7902 21.7001 21.2462 22.0201 21.2462 22.0201C21.4278 22.0067 21.5977 21.9252 21.7218 21.7918C21.8458 21.6585 21.9149 21.4832 21.9152 21.3011L22.0002 20.0371Z" fill="#374957"/>
</g>
<defs>
<clipPath id="clip0_74_9095">
<rect width="24" height="24" fill="white"/>
</clipPath>
</defs>
</svg>
