<svg width="24" height="24" viewBox="0 0 24 24" fill="none" xmlns="http://www.w3.org/2000/svg">
<g clip-path="url(#clip0_74_9045)">
<path d="M14.4998 6.99991C13.5682 6.98542 12.6689 7.34152 11.9998 7.98991C11.4853 7.50953 10.8403 7.19208 10.1458 7.07753C9.45133 6.96298 8.73848 7.05645 8.09702 7.34618C7.45556 7.63591 6.91415 8.10894 6.54095 8.70572C6.16776 9.3025 5.97947 9.99635 5.99978 10.6999C5.99978 13.9559 10.8738 17.4359 11.4298 17.8209C11.5972 17.937 11.796 17.9993 11.9998 17.9993C12.2035 17.9993 12.4024 17.937 12.5698 17.8209C13.1258 17.4359 17.9998 13.9559 17.9998 10.6999C18.0245 9.74562 17.6701 8.82041 17.0141 8.12691C16.3581 7.43342 15.454 7.02817 14.4998 6.99991ZM11.9998 15.7619C10.2588 14.4319 7.99978 12.2019 7.99978 10.6999C7.92378 8.69391 10.9128 8.29991 10.9998 10.4539V10.9999C10.9998 11.2651 11.1051 11.5195 11.2927 11.707C11.4802 11.8946 11.7346 11.9999 11.9998 11.9999C12.265 11.9999 12.5194 11.8946 12.7069 11.707C12.8944 11.5195 12.9998 11.2651 12.9998 10.9999V10.4539C13.0868 8.30191 16.0758 8.69391 15.9998 10.6999C15.9998 12.1999 13.7408 14.4319 11.9998 15.7619ZM12.8358 0.0279113C11.1215 -0.0918807 9.40151 0.157913 7.79213 0.760393C6.18275 1.36287 4.72155 2.30399 3.50737 3.52006C2.29319 4.73614 1.35436 6.19881 0.754391 7.80912C0.154423 9.41944 -0.0926865 11.1398 0.0297806 12.8539C0.469781 19.2079 6.08178 23.9999 13.0828 23.9999H18.9998C20.3254 23.9983 21.5962 23.471 22.5336 22.5337C23.4709 21.5964 23.9982 20.3255 23.9998 18.9999V12.3399C24.0368 9.25742 22.9066 6.275 20.8358 3.99133C18.7651 1.70766 15.9072 0.291777 12.8358 0.0279113ZM21.9998 18.9999C21.9998 19.7956 21.6837 20.5586 21.1211 21.1212C20.5585 21.6838 19.7954 21.9999 18.9998 21.9999H13.0828C7.04878 21.9999 2.39978 18.0999 2.02478 12.7159C1.92212 11.2869 2.12771 9.85254 2.62763 8.50992C3.12755 7.16729 3.91013 5.94776 4.92238 4.93389C5.93463 3.92003 7.15292 3.13551 8.49475 2.63345C9.83658 2.13139 11.2706 1.92352 12.6998 2.02391C15.2662 2.25095 17.6517 3.44082 19.3769 5.35447C21.102 7.26811 22.0391 9.76373 21.9998 12.3399V18.9999Z" fill="#374957"/>
</g>
<defs>
<clipPath id="clip0_74_9045">
<rect width="24" height="24" fill="white"/>
</clipPath>
</defs>
</svg>
