<svg width="24" height="24" viewBox="0 0 24 24" fill="none" xmlns="http://www.w3.org/2000/svg">
<g clip-path="url(#clip0_74_8767)">
<path d="M18.9 -0.000422383H5.1C3.76103 -0.0124211 2.472 0.507325 1.51584 1.44474C0.559682 2.38215 0.0145152 3.66063 0 4.99958L0 7.99958C0 8.26479 0.105357 8.51915 0.292893 8.70668C0.48043 8.89422 0.734784 8.99958 1 8.99958C1.26522 8.99958 1.51957 8.89422 1.70711 8.70668C1.89464 8.51915 2 8.26479 2 7.99958V4.99958C2.01421 4.19097 2.34856 3.42102 2.92971 2.85861C3.51087 2.29621 4.29137 1.98727 5.1 1.99958H18.9C19.7086 1.98727 20.4891 2.29621 21.0703 2.85861C21.6514 3.42102 21.9858 4.19097 22 4.99958V18.9996C21.9858 19.8082 21.6514 20.5781 21.0703 21.1405C20.4891 21.7029 19.7086 22.0119 18.9 21.9996H5.1C4.29137 22.0119 3.51087 21.7029 2.92971 21.1405C2.34856 20.5781 2.01421 19.8082 2 18.9996V15.9996C2 15.7344 1.89464 15.48 1.70711 15.2925C1.51957 15.1049 1.26522 14.9996 1 14.9996C0.734784 14.9996 0.48043 15.1049 0.292893 15.2925C0.105357 15.48 0 15.7344 0 15.9996L0 18.9996C0.0145152 20.3385 0.559682 21.617 1.51584 22.5544C2.472 23.4918 3.76103 24.0116 5.1 23.9996H18.9C20.239 24.0116 21.528 23.4918 22.4842 22.5544C23.4403 21.617 23.9855 20.3385 24 18.9996V4.99958C23.9855 3.66063 23.4403 2.38215 22.4842 1.44474C21.528 0.507325 20.239 -0.0124211 18.9 -0.000422383Z" fill="#374957"/>
<path d="M3 11.9992C3 12.2644 3.10536 12.5187 3.29289 12.7063C3.48043 12.8938 3.73478 12.9992 4 12.9992L17.188 12.9692L12.865 17.2922C12.7695 17.3844 12.6933 17.4947 12.6409 17.6168C12.5885 17.7388 12.5609 17.87 12.5597 18.0028C12.5586 18.1355 12.5839 18.2672 12.6342 18.3901C12.6845 18.513 12.7587 18.6247 12.8526 18.7185C12.9465 18.8124 13.0581 18.8867 13.181 18.937C13.3039 18.9873 13.4356 19.0126 13.5684 19.0114C13.7012 19.0103 13.8324 18.9827 13.9544 18.9303C14.0764 18.8778 14.1868 18.8017 14.279 18.7062L18.865 14.1202C19.4274 13.5576 19.7434 12.7946 19.7434 11.9992C19.7434 11.2037 19.4274 10.4407 18.865 9.87816L14.281 5.29216C14.0924 5.11 13.8398 5.0092 13.5776 5.01148C13.3154 5.01376 13.0646 5.11893 12.8792 5.30434C12.6938 5.48975 12.5886 5.74056 12.5863 6.00275C12.584 6.26495 12.6848 6.51755 12.867 6.70616L17.129 10.9692L4 10.9992C3.73478 10.9992 3.48043 11.1045 3.29289 11.292C3.10536 11.4796 3 11.7339 3 11.9992Z" fill="#374957"/>
</g>
<defs>
<clipPath id="clip0_74_8767">
<rect width="24" height="24" fill="white"/>
</clipPath>
</defs>
</svg>
